<svg id="svg" version="1.1" xmlns="http://www.w3.org/2000/svg" xmlns:xlink="http://www.w3.org/1999/xlink" width="400"
     height="379.2746113989637" viewBox="0, 0, 400,379.2746113989637">
    <g id="svgg">
        <path id="path0"
              d="M0.259 189.508 L 0.259 379.016 200.130 379.016 L 400.000 379.016 400.000 189.508 L 400.000 0.000 200.130 0.000 L 0.259 0.000 0.259 189.508 M395.013 189.573 L 395.078 373.575 200.389 373.575 L 5.699 373.575 5.699 189.508 L 5.699 5.440 200.324 5.505 L 394.948 5.570 395.013 189.573 M156.335 19.030 L 155.699 19.666 155.699 28.198 C 155.699 37.796,155.721 37.910,157.513 37.910 C 159.305 37.910,159.326 37.796,159.326 28.198 L 159.326 19.666 158.691 19.030 C 158.341 18.680,157.811 18.394,157.513 18.394 C 157.215 18.394,156.685 18.680,156.335 19.030 M182.748 18.646 C 181.669 19.082,181.581 19.893,181.660 28.697 C 181.742 37.712,181.723 37.596,183.172 37.951 C 183.632 38.064,184.042 37.946,184.532 37.561 L 185.233 37.009 185.233 28.337 L 185.233 19.666 184.597 19.030 C 183.924 18.356,183.620 18.293,182.748 18.646 M208.628 18.704 C 207.626 19.188,207.513 20.171,207.513 28.419 C 207.513 37.038,207.598 37.594,208.975 37.939 C 209.472 38.064,209.871 37.971,210.344 37.618 L 211.010 37.120 211.079 28.297 L 211.147 19.473 210.461 18.933 C 209.698 18.334,209.456 18.303,208.628 18.704 M146.973 42.748 C 145.873 43.191,145.855 43.436,145.855 57.999 C 145.855 65.694,145.767 72.039,145.661 72.099 C 145.554 72.158,141.852 71.529,137.435 70.701 C 133.018 69.873,129.107 69.189,128.743 69.183 C 128.317 69.175,126.101 70.461,122.525 72.792 C 116.016 77.033,117.188 76.804,111.908 74.867 C 107.086 73.098,107.296 73.230,106.965 71.758 C 104.102 59.017,85.363 61.279,85.363 74.366 C 85.363 86.712,102.736 89.890,106.602 78.252 L 107.027 76.970 109.796 77.968 C 111.319 78.518,113.395 79.269,114.410 79.639 C 117.193 80.653,117.027 80.709,123.331 76.597 L 129.024 72.883 136.468 74.257 C 140.562 75.014,144.320 75.727,144.819 75.844 L 145.725 76.056 145.855 90.769 C 145.980 104.955,146.002 105.496,146.487 105.850 C 146.910 106.159,149.903 106.218,165.334 106.218 L 183.679 106.218 183.679 115.140 L 183.679 124.063 187.953 128.654 C 191.250 132.195,192.225 133.399,192.215 133.915 C 192.207 134.284,191.883 136.377,191.495 138.567 L 190.789 142.549 188.839 143.111 C 176.716 146.608,178.006 164.008,190.457 164.947 C 203.088 165.899,207.197 147.491,195.253 143.465 C 194.800 143.312,194.395 143.160,194.351 143.125 C 194.308 143.091,194.695 140.696,195.211 137.801 C 196.333 131.510,196.729 132.647,191.477 127.073 L 187.327 122.668 187.316 114.443 L 187.306 106.218 203.716 106.218 C 220.070 106.218,220.129 106.216,220.620 105.672 C 221.099 105.144,221.116 104.206,221.191 75.038 C 221.272 43.235,221.276 43.339,220.068 42.789 C 219.262 42.422,147.882 42.382,146.973 42.748 M253.380 42.943 C 252.074 44.001,252.630 45.472,254.740 46.541 C 279.036 58.853,293.456 82.341,294.956 112.047 C 295.591 124.617,295.803 125.223,306.864 146.094 C 315.423 162.244,315.313 161.970,314.159 164.308 C 312.853 166.954,311.659 167.351,304.924 167.376 C 298.215 167.400,295.909 167.615,295.439 168.258 C 295.140 168.667,295.077 171.329,295.073 183.664 C 295.068 202.371,294.874 203.469,290.864 207.569 C 286.924 211.596,285.427 211.907,269.933 211.913 C 259.934 211.916,257.785 211.980,257.368 212.285 C 256.887 212.636,256.860 213.144,256.736 223.794 C 256.591 236.274,256.680 235.713,254.636 236.917 C 253.237 237.741,172.915 237.732,171.512 236.908 C 169.483 235.716,169.579 236.558,169.403 218.394 C 169.243 201.859,169.152 200.170,168.004 192.358 C 165.778 177.214,160.915 161.668,154.259 148.415 C 152.990 145.888,152.341 145.428,151.054 146.147 C 149.850 146.820,150.020 147.865,152.022 152.073 C 162.598 174.309,166.040 191.904,166.060 223.834 L 166.067 235.363 166.683 236.685 C 167.447 238.326,168.732 239.635,170.373 240.443 L 171.632 241.062 213.083 241.062 L 254.534 241.062 256.018 240.333 C 259.931 238.412,260.217 237.423,260.312 225.470 L 260.391 215.577 272.229 215.483 C 285.471 215.377,285.001 215.436,288.990 213.399 C 291.992 211.866,295.155 208.654,296.594 205.676 C 298.437 201.862,298.437 201.866,298.446 185.881 C 298.450 178.044,298.539 171.498,298.644 171.335 C 298.776 171.130,300.789 171.009,305.181 170.942 C 313.415 170.817,315.628 169.899,317.444 165.853 C 319.273 161.777,319.227 161.643,309.958 144.187 C 299.348 124.203,298.465 121.669,298.450 111.140 C 298.410 84.175,282.265 57.520,257.818 44.056 C 254.887 42.442,254.209 42.272,253.380 42.943 M217.487 74.352 L 217.487 102.461 183.484 102.527 L 149.482 102.593 149.482 74.526 C 149.482 59.089,149.560 46.381,149.656 46.286 C 149.751 46.190,165.052 46.142,183.658 46.178 L 217.487 46.244 217.487 74.352 M121.667 47.169 C 120.832 47.826,120.757 48.995,121.503 49.741 C 121.999 50.238,122.366 50.259,130.440 50.259 C 138.515 50.259,138.881 50.238,139.378 49.741 C 140.124 48.995,140.049 47.826,139.214 47.169 C 138.153 46.334,122.728 46.334,121.667 47.169 M228.756 47.150 C 228.095 47.812,228.071 49.250,228.712 49.830 C 229.511 50.553,244.606 50.472,245.337 49.741 C 246.036 49.042,245.999 47.894,245.255 47.195 C 244.356 46.350,229.597 46.310,228.756 47.150 M159.149 53.888 C 158.053 54.329,158.031 54.615,158.031 68.219 C 158.031 82.885,157.978 82.470,159.845 82.470 C 161.698 82.470,161.658 82.761,161.658 69.272 L 161.658 57.254 183.031 57.254 L 204.404 57.254 204.404 69.390 C 204.404 82.952,204.337 82.470,206.233 82.470 C 207.960 82.470,207.894 83.009,207.973 68.299 C 208.044 55.140,208.039 55.003,207.501 54.318 L 206.957 53.627 183.336 53.643 C 170.345 53.652,159.460 53.762,159.149 53.888 M99.436 67.667 C 102.021 68.895,103.624 71.506,103.619 74.482 C 103.605 82.373,93.095 84.731,89.479 77.654 C 86.318 71.467,93.105 64.660,99.436 67.667 M229.145 72.848 C 228.109 73.436,227.877 74.981,228.712 75.737 C 229.511 76.460,244.606 76.379,245.337 75.648 C 246.082 74.902,246.007 73.733,245.172 73.076 C 244.368 72.443,230.214 72.242,229.145 72.848 M167.635 89.543 C 166.930 90.439,166.957 91.074,167.734 91.851 L 168.370 92.487 183.373 92.487 C 200.190 92.487,199.741 92.537,199.741 90.655 C 199.741 88.778,200.485 88.860,183.438 88.860 L 168.172 88.860 167.635 89.543 M122.280 98.624 C 121.013 99.107,120.614 100.392,121.388 101.497 C 121.791 102.072,121.796 102.073,130.440 102.073 C 140.066 102.073,139.896 102.105,139.896 100.242 C 139.896 98.630,139.633 98.580,130.737 98.525 C 126.299 98.498,122.494 98.542,122.280 98.624 M228.935 98.972 C 228.094 99.633,227.981 100.982,228.712 101.644 C 229.472 102.331,244.800 102.290,245.426 101.599 C 246.028 100.934,245.970 99.666,245.310 99.069 C 244.413 98.256,229.953 98.170,228.935 98.972 M156.236 112.341 C 155.401 113.403,155.401 129.343,156.236 130.405 C 156.912 131.264,158.058 131.316,158.798 130.521 C 159.308 129.974,159.326 129.651,159.326 121.373 C 159.326 113.095,159.308 112.772,158.798 112.225 C 158.058 111.430,156.912 111.482,156.236 112.341 M208.136 112.203 C 207.671 112.717,207.642 113.256,207.642 121.373 C 207.642 130.946,207.668 131.088,209.367 131.088 C 211.127 131.088,211.140 131.018,211.140 121.373 C 211.140 113.040,211.119 112.674,210.622 112.176 C 209.944 111.499,208.762 111.512,208.136 112.203 M194.778 147.259 C 199.556 149.680,200.290 155.970,196.214 159.558 C 191.485 163.720,183.966 160.278,183.944 153.942 C 183.924 148.343,189.784 144.728,194.778 147.259 M359.942 270.503 C 353.149 270.982,349.349 273.841,347.771 279.663 C 347.042 282.353,347.019 306.695,347.743 309.326 C 349.450 315.532,353.513 317.933,362.306 317.932 C 374.165 317.930,377.720 313.933,377.720 300.601 C 377.720 293.598,377.916 293.782,370.466 293.782 C 367.589 293.782,365.287 293.899,364.798 294.070 C 363.144 294.646,362.688 296.924,363.970 298.206 L 364.727 298.964 368.762 298.964 L 372.798 298.964 372.798 301.827 C 372.798 309.105,370.457 312.244,364.490 312.970 C 358.438 313.707,354.025 311.831,352.669 307.946 C 351.956 305.901,351.959 283.042,352.673 280.730 C 353.801 277.075,356.647 275.516,362.176 275.522 C 368.292 275.529,371.705 277.701,372.203 281.903 C 372.645 285.638,377.202 285.444,377.202 281.690 C 377.202 274.438,370.034 269.793,359.942 270.503 M25.777 270.767 C 24.275 271.593,24.364 270.102,24.358 294.316 C 24.352 316.114,24.361 316.492,24.869 317.038 C 25.642 317.867,26.263 317.908,36.616 317.824 L 46.159 317.746 46.784 317.019 C 47.975 315.634,47.367 313.441,45.660 312.967 C 45.088 312.808,41.523 312.697,36.982 312.696 L 29.275 312.694 29.275 304.534 L 29.275 296.373 35.427 296.372 C 38.891 296.371,42.005 296.252,42.551 296.100 C 44.185 295.647,44.868 293.371,43.792 291.969 L 43.295 291.321 36.349 291.192 L 29.404 291.062 29.336 283.368 L 29.267 275.674 37.713 275.596 L 46.159 275.518 46.784 274.791 C 47.741 273.679,47.662 272.021,46.612 271.137 L 45.815 270.466 36.055 270.474 C 29.459 270.480,26.127 270.574,25.777 270.767 M90.766 270.723 C 89.314 271.309,89.378 270.224,89.378 294.116 C 89.378 317.794,89.322 316.885,90.816 317.509 C 92.095 318.043,109.971 318.046,111.249 317.512 C 112.886 316.828,113.080 314.578,111.610 313.341 L 110.841 312.694 102.571 312.694 L 94.301 312.694 94.301 292.629 C 94.301 277.624,94.222 272.392,93.991 271.884 C 93.467 270.733,92.026 270.215,90.766 270.723 M125.455 270.728 C 123.765 271.421,123.836 270.380,123.836 294.301 C 123.836 315.069,123.856 315.965,124.327 316.737 C 125.007 317.852,125.234 317.876,135.492 317.876 C 140.444 317.876,144.871 317.800,145.331 317.708 C 147.116 317.351,147.649 314.889,146.246 313.485 L 145.585 312.824 137.300 312.746 L 129.016 312.667 129.016 304.536 L 129.016 296.405 135.773 296.324 L 142.530 296.244 143.286 295.397 C 144.249 294.319,144.298 293.073,143.417 292.048 L 142.792 291.321 135.968 291.192 L 129.145 291.062 129.076 283.368 L 129.008 275.674 137.454 275.596 L 145.900 275.518 146.525 274.791 C 147.373 273.805,147.373 272.309,146.525 271.323 L 145.900 270.596 135.968 270.543 C 130.381 270.513,125.782 270.594,125.455 270.728 M172.102 270.958 C 170.933 271.690,170.990 271.538,167.845 282.460 C 166.278 287.904,163.487 297.513,161.643 303.814 C 159.799 310.115,158.290 315.458,158.290 315.686 C 158.290 316.478,159.728 317.617,160.727 317.617 C 162.547 317.617,163.026 316.826,164.736 311.010 L 166.259 305.829 173.592 305.760 C 177.625 305.722,181.016 305.783,181.127 305.894 C 181.239 306.006,182.038 308.427,182.904 311.274 C 184.681 317.120,185.093 317.791,186.740 317.524 C 187.969 317.324,188.860 316.436,188.860 315.411 C 188.860 313.666,176.198 272.213,175.426 271.430 C 174.477 270.468,173.179 270.284,172.102 270.958 M203.113 271.200 L 202.332 271.981 202.332 294.137 L 202.332 316.292 202.957 317.019 C 203.771 317.965,205.666 318.024,206.560 317.131 C 207.101 316.590,207.130 316.307,207.254 310.291 L 207.383 304.016 211.269 304.016 L 215.155 304.016 218.394 310.492 C 222.063 317.831,222.399 318.232,224.373 317.641 C 226.867 316.894,226.746 315.937,223.251 308.769 L 220.516 303.160 221.665 302.722 C 226.548 300.856,227.722 297.808,227.717 286.995 C 227.713 277.978,227.275 276.149,224.530 273.681 C 221.522 270.976,220.211 270.666,211.209 270.530 L 203.894 270.419 203.113 271.200 M265.637 270.711 C 264.206 271.320,264.249 270.774,264.249 288.270 C 264.249 297.144,264.161 304.403,264.054 304.401 C 263.948 304.400,260.142 297.026,255.598 288.015 C 251.054 279.005,247.090 271.431,246.790 271.185 C 245.901 270.456,244.393 270.593,243.503 271.483 L 242.746 272.240 242.746 294.034 C 242.746 318.159,242.667 317.035,244.399 317.606 C 245.531 317.980,246.504 317.732,247.154 316.905 C 247.654 316.269,247.668 315.817,247.668 300.224 C 247.668 291.409,247.756 284.197,247.863 284.197 C 247.971 284.197,251.766 291.532,256.298 300.498 C 262.441 312.652,264.715 316.917,265.235 317.263 C 266.251 317.937,267.702 317.870,268.509 317.112 L 269.171 316.490 269.171 294.171 L 269.171 271.852 268.560 271.278 C 267.871 270.630,266.467 270.358,265.637 270.711 M286.621 270.723 C 285.168 271.309,285.233 270.211,285.233 294.249 L 285.233 316.361 285.990 317.118 C 286.965 318.093,288.259 318.145,289.299 317.250 L 290.026 316.625 290.095 294.647 C 290.146 278.445,290.086 272.478,289.864 271.944 C 289.373 270.756,287.907 270.204,286.621 270.723 M327.959 271.224 L 327.202 271.981 327.202 288.048 C 327.202 296.884,327.102 304.176,326.979 304.252 C 326.857 304.328,323.061 297.078,318.545 288.141 C 309.323 269.890,309.250 269.782,306.913 271.027 C 305.675 271.686,305.716 270.880,305.708 294.221 L 305.699 316.292 306.325 317.019 C 307.208 318.046,309.125 318.033,310.019 316.993 L 310.622 316.292 310.622 300.245 C 310.622 291.418,310.709 284.200,310.816 284.204 C 310.923 284.207,314.690 291.516,319.188 300.445 C 325.031 312.046,327.567 316.830,328.072 317.207 C 329.148 318.010,330.723 317.922,331.504 317.013 L 332.124 316.292 332.124 294.269 C 332.124 279.660,332.035 272.078,331.858 271.747 C 331.130 270.388,329.071 270.112,327.959 271.224 M219.599 276.484 C 222.593 278.056,222.851 278.963,222.749 287.579 C 222.625 298.098,222.100 298.678,212.500 298.901 L 207.254 299.023 207.254 287.313 L 207.254 275.603 212.759 275.694 C 218.157 275.782,218.290 275.798,219.599 276.484 M176.742 290.693 C 178.276 295.741,179.532 300.016,179.533 300.194 C 179.533 300.444,178.190 300.518,173.677 300.518 C 169.101 300.518,167.846 300.447,167.939 300.194 C 168.005 300.016,169.270 295.703,170.752 290.610 C 172.233 285.516,173.559 281.387,173.699 281.432 C 173.838 281.478,175.207 285.646,176.742 290.693 M60.873 291.419 C 59.867 292.425,59.807 293.926,60.729 294.999 L 61.354 295.725 68.177 295.725 C 71.930 295.725,75.318 295.636,75.708 295.527 C 77.156 295.122,77.663 292.793,76.577 291.530 L 75.952 290.803 68.797 290.727 L 61.642 290.650 60.873 291.419 M64.875 332.993 C 60.725 334.353,60.104 335.996,60.104 345.605 C 60.104 356.451,61.358 358.420,68.264 358.420 C 72.761 358.420,75.075 357.041,76.042 353.786 C 76.441 352.441,76.609 340.141,76.258 338.013 C 75.573 333.872,69.867 331.356,64.875 332.993 M326.098 333.107 C 322.111 334.537,321.384 336.736,321.550 346.868 C 321.707 356.489,323.085 358.420,329.793 358.420 C 334.258 358.420,336.642 356.976,337.595 353.694 C 338.291 351.297,338.097 338.270,337.339 336.595 C 335.784 333.155,330.519 331.521,326.098 333.107 M26.076 333.375 C 25.691 333.802,25.648 335.040,25.648 345.759 C 25.648 358.482,25.628 358.290,26.943 358.290 C 28.185 358.290,28.238 358.045,28.238 352.280 L 28.238 346.891 31.541 346.887 C 35.309 346.883,36.092 346.647,36.227 345.473 C 36.371 344.216,35.834 344.041,31.809 344.041 L 28.226 344.041 28.297 339.832 L 28.368 335.622 32.902 335.553 C 37.698 335.481,38.083 335.378,38.083 334.166 C 38.083 333.004,37.580 332.902,31.887 332.902 C 27.002 332.902,26.466 332.945,26.076 333.375 M100.972 333.181 C 100.322 333.560,100.277 352.048,100.921 353.939 C 103.123 360.402,114.501 360.111,116.452 353.542 C 117.041 351.557,117.024 333.901,116.432 333.309 C 115.891 332.768,115.204 332.794,114.677 333.375 C 114.295 333.798,114.249 334.858,114.249 343.132 L 114.249 352.416 113.603 353.517 C 111.352 357.359,104.292 356.609,103.124 352.403 C 102.959 351.808,102.852 347.921,102.851 342.474 C 102.850 332.484,102.778 332.129,100.972 333.181 M141.740 333.324 C 141.195 333.706,141.192 333.786,141.192 345.589 C 141.192 358.732,141.151 358.290,142.370 358.290 C 143.650 358.290,143.642 358.338,143.782 348.964 L 143.912 340.285 148.286 348.834 C 153.094 358.231,153.131 358.290,154.176 358.290 C 155.419 358.290,155.440 358.076,155.440 345.642 C 155.440 332.552,155.425 332.442,153.719 333.042 L 152.979 333.302 152.911 342.190 C 152.865 348.171,152.755 351.048,152.575 350.988 C 152.427 350.939,150.289 346.945,147.823 342.114 C 143.160 332.978,142.858 332.541,141.740 333.324 M180.471 333.454 C 179.725 334.520,179.847 357.308,180.603 358.064 C 181.532 358.993,190.119 358.689,192.439 357.645 C 196.228 355.940,196.714 354.486,196.573 345.259 C 196.439 336.505,196.040 335.327,192.676 333.779 C 190.329 332.699,181.171 332.455,180.471 333.454 M226.312 333.401 C 225.899 333.857,219.177 356.327,219.173 357.267 C 219.168 358.266,220.588 358.646,221.307 357.837 C 221.529 357.587,221.962 356.509,222.270 355.440 C 222.578 354.372,222.948 353.119,223.093 352.655 L 223.356 351.813 227.343 351.813 C 231.956 351.813,231.441 351.478,232.512 355.181 C 233.315 357.955,233.508 358.290,234.306 358.290 C 235.997 358.290,236.015 358.392,232.068 345.238 C 228.266 332.563,227.848 331.704,226.312 333.401 M257.117 333.428 C 255.917 334.754,256.776 335.347,260.109 335.492 L 263.083 335.622 263.212 346.632 C 263.284 352.688,263.436 357.788,263.552 357.966 C 263.724 358.233,265.405 358.446,265.602 358.225 C 265.634 358.190,265.721 353.089,265.796 346.891 L 265.933 335.622 268.638 335.547 C 271.923 335.457,272.973 334.668,271.614 333.309 C 270.906 332.601,257.768 332.708,257.117 333.428 M295.513 333.225 C 294.770 333.770,294.976 358.016,295.725 358.292 C 296.010 358.396,296.506 358.384,296.826 358.265 L 297.409 358.048 297.409 345.743 C 297.409 333.842,297.393 333.429,296.908 333.170 C 296.261 332.823,296.049 332.832,295.513 333.225 M362.937 333.250 L 362.306 333.564 362.238 345.574 C 362.166 358.448,362.151 358.290,363.494 358.290 C 364.716 358.290,364.766 357.917,364.775 348.786 C 364.782 341.668,364.839 340.359,365.127 340.738 C 365.316 340.987,367.310 344.834,369.559 349.287 C 374.058 358.197,374.116 358.290,375.161 358.290 C 376.404 358.290,376.425 358.083,376.425 345.524 C 376.425 332.349,376.437 332.433,374.668 333.055 L 373.964 333.302 373.896 342.169 C 373.854 347.535,373.730 351.036,373.582 351.036 C 373.447 351.036,371.339 347.071,368.899 342.225 C 364.342 333.175,364.030 332.705,362.937 333.250 M71.823 335.968 C 73.681 337.117,73.834 337.846,73.834 345.558 C 73.834 354.903,73.075 356.203,67.789 355.910 C 62.993 355.645,62.326 354.231,62.481 344.654 C 62.587 338.128,62.797 337.200,64.406 336.146 C 66.105 335.032,70.152 334.935,71.823 335.968 M332.896 335.816 C 335.265 337.026,335.478 337.853,335.486 345.873 L 335.492 351.980 334.780 353.386 C 332.864 357.169,326.122 356.944,324.492 353.043 C 323.850 351.508,323.922 339.388,324.581 337.953 C 325.755 335.395,329.958 334.315,332.896 335.816 M191.204 336.063 C 192.354 336.557,193.422 337.805,193.771 339.062 C 194.200 340.609,194.123 352.201,193.677 353.057 C 192.548 355.228,191.071 355.798,186.528 355.815 L 182.772 355.829 182.704 345.985 C 182.667 340.571,182.698 335.981,182.773 335.784 C 182.969 335.274,189.900 335.503,191.204 336.063 M229.098 343.847 C 229.919 346.590,230.586 348.922,230.580 349.028 C 230.558 349.457,224.352 349.250,224.352 348.821 C 224.352 348.490,226.664 340.284,227.067 339.184 C 227.358 338.389,227.698 339.169,229.098 343.847 "
              stroke="none" fill="#F9EC9E" fill-rule="evenodd"></path>
        <path id="path1"
              d="M5.959 189.508 L 5.959 373.316 200.389 373.316 L 394.819 373.316 394.819 189.508 L 394.819 5.699 200.389 5.699 L 5.959 5.699 5.959 189.508 M159.049 19.076 C 159.906 20.167,159.883 36.567,159.022 37.483 C 158.205 38.353,156.695 38.312,155.977 37.400 C 155.459 36.741,155.440 36.424,155.440 28.238 C 155.440 18.513,155.466 18.394,157.513 18.394 C 158.283 18.394,158.634 18.550,159.049 19.076 M184.893 18.957 L 185.492 19.520 185.492 28.235 C 185.492 36.646,185.474 36.969,184.964 37.516 C 184.173 38.365,182.591 38.299,181.874 37.388 C 181.071 36.367,181.157 19.837,181.970 18.939 C 182.639 18.200,184.097 18.210,184.893 18.957 M210.871 18.961 C 211.381 19.508,211.399 19.830,211.399 28.287 C 211.399 38.228,211.429 38.083,209.367 38.083 C 207.363 38.083,207.383 38.187,207.383 28.188 L 207.383 19.384 207.995 18.889 C 208.831 18.212,210.205 18.246,210.871 18.961 M257.772 43.831 C 282.065 56.583,297.578 82.044,298.706 111.010 C 299.176 123.081,299.409 123.750,310.356 144.430 C 319.732 162.143,319.295 161.006,318.164 164.728 C 316.662 169.675,313.958 171.030,305.263 171.193 L 298.998 171.311 298.900 185.850 C 298.804 200.048,298.788 200.434,298.218 202.327 C 296.627 207.603,293.385 211.458,288.455 213.936 C 285.140 215.602,284.946 215.624,272.227 215.735 L 260.645 215.837 260.569 225.600 C 260.477 237.341,260.252 238.157,256.506 240.360 L 255.311 241.062 213.511 241.130 L 171.711 241.198 170.175 240.509 C 168.465 239.742,167.416 238.693,166.450 236.787 L 165.803 235.509 165.799 224.555 C 165.786 192.095,162.542 175.247,151.908 152.400 C 149.482 147.189,149.424 146.713,151.113 145.904 C 152.869 145.062,153.632 146.100,157.262 154.275 C 163.338 167.958,166.993 181.422,168.938 197.280 C 169.451 201.466,169.525 203.611,169.664 218.264 C 169.818 234.535,169.820 234.588,170.393 235.508 C 171.512 237.308,168.128 237.176,213.187 237.176 L 254.016 237.176 254.826 236.598 C 256.469 235.426,256.477 235.365,256.477 223.629 C 256.477 213.563,256.502 212.979,256.972 212.399 L 257.467 211.788 270.637 211.649 C 285.109 211.497,284.249 211.591,287.619 209.795 C 290.435 208.294,292.981 205.168,294.104 201.832 C 294.668 200.160,294.679 199.842,294.761 184.270 L 294.844 168.411 295.477 167.914 C 296.051 167.462,296.745 167.401,303.042 167.250 C 311.954 167.037,313.048 166.701,314.137 163.850 C 314.904 161.841,314.773 161.532,306.749 146.399 C 295.418 125.027,295.079 124.046,294.567 111.140 C 293.439 82.675,279.190 59.747,254.490 46.652 C 252.099 45.385,251.708 43.530,253.627 42.565 C 254.444 42.154,254.764 42.252,257.772 43.831 M220.325 42.648 C 221.531 43.111,221.503 42.329,221.503 74.618 L 221.503 104.962 220.745 105.719 L 219.988 106.477 203.776 106.477 L 187.565 106.477 187.565 114.525 L 187.565 122.574 191.738 127.025 C 194.033 129.474,196.027 131.725,196.169 132.028 C 196.390 132.499,195.408 139.201,194.651 142.389 C 194.540 142.855,194.778 143.059,196.217 143.732 C 203.195 146.997,204.883 155.919,199.602 161.623 C 192.690 169.089,180.033 164.086,180.055 153.896 C 180.066 148.652,184.310 143.489,189.135 142.849 C 190.626 142.651,190.437 143.084,191.341 137.792 L 192.076 133.485 190.921 132.203 C 190.286 131.497,188.339 129.390,186.593 127.518 L 183.420 124.116 183.420 115.297 L 183.420 106.477 165.144 106.477 L 146.868 106.477 146.232 105.841 L 145.596 105.205 145.596 90.713 L 145.596 76.222 145.013 76.079 C 143.891 75.804,129.917 73.257,129.404 73.234 C 129.119 73.221,126.355 74.866,123.262 76.890 C 116.694 81.188,117.559 81.022,112.112 79.031 C 109.796 78.184,107.748 77.456,107.561 77.412 C 107.361 77.365,107.028 77.829,106.753 78.540 C 102.329 89.960,85.033 86.844,84.936 74.609 C 84.832 61.524,102.966 58.612,107.019 71.063 L 107.691 73.126 112.149 74.746 L 116.608 76.366 122.334 72.639 C 125.483 70.589,128.233 68.912,128.445 68.912 C 128.826 68.912,143.893 71.660,145.013 71.934 L 145.596 72.077 145.596 57.882 L 145.596 43.686 146.159 43.087 L 146.722 42.487 183.314 42.487 C 203.440 42.487,220.095 42.559,220.325 42.648 M138.827 46.659 C 140.271 47.163,140.619 48.782,139.520 49.882 L 138.884 50.518 130.440 50.518 L 121.997 50.518 121.361 49.882 C 120.307 48.828,120.550 47.315,121.865 46.743 C 122.906 46.290,137.560 46.218,138.827 46.659 M149.741 74.351 L 149.741 102.332 183.550 102.332 L 217.360 102.332 217.294 74.417 L 217.228 46.503 183.484 46.437 L 149.741 46.371 149.741 74.351 M244.785 46.659 C 246.230 47.163,246.578 48.782,245.478 49.882 L 244.842 50.518 237.073 50.518 L 229.304 50.518 228.598 49.911 C 227.444 48.919,227.727 47.191,229.136 46.620 C 229.957 46.287,243.818 46.322,244.785 46.659 M207.084 53.656 C 208.267 54.195,208.290 54.475,208.290 68.242 C 208.290 81.037,208.280 81.290,207.753 81.960 C 207.058 82.844,205.619 82.901,204.745 82.079 L 204.145 81.516 204.145 69.514 L 204.145 57.513 183.031 57.513 L 161.917 57.513 161.917 69.395 C 161.917 82.957,161.966 82.642,159.845 82.642 C 157.704 82.642,157.772 83.121,157.772 68.135 C 157.772 53.659,157.749 53.868,159.396 53.550 C 160.815 53.276,206.472 53.377,207.084 53.656 M94.011 67.456 C 86.187 70.252,87.988 81.592,96.257 81.604 C 102.967 81.613,105.939 73.396,100.847 68.914 C 98.988 67.277,96.185 66.679,94.011 67.456 M244.785 72.566 C 246.273 73.084,246.634 74.942,245.431 75.888 C 244.322 76.761,229.371 76.720,228.581 75.842 C 227.475 74.613,227.710 73.264,229.139 72.641 C 230.158 72.197,243.543 72.133,244.785 72.566 M199.364 89.237 C 200.464 90.337,200.116 91.956,198.671 92.460 C 197.431 92.892,169.004 92.850,168.143 92.415 C 166.641 91.655,166.533 89.598,167.959 88.909 C 168.333 88.728,173.613 88.630,183.626 88.619 L 198.728 88.601 199.364 89.237 M139.556 99.009 C 140.403 99.805,140.365 101.093,139.473 101.795 C 138.383 102.652,122.241 102.629,121.325 101.768 C 120.556 101.046,120.540 99.842,121.289 99.045 L 121.852 98.446 130.404 98.446 C 138.828 98.446,138.965 98.454,139.556 99.009 M245.514 99.009 C 246.283 99.731,246.299 100.936,245.551 101.732 L 244.987 102.332 237.114 102.332 C 232.474 102.332,229.046 102.227,228.767 102.078 C 227.644 101.477,227.678 99.077,228.816 98.619 C 230.058 98.119,244.937 98.466,245.514 99.009 M158.950 112.035 L 159.585 112.671 159.585 121.373 L 159.585 130.075 158.950 130.711 C 158.084 131.577,156.905 131.557,156.076 130.662 L 155.440 129.976 155.440 121.373 L 155.440 112.770 156.076 112.084 C 156.905 111.189,158.084 111.169,158.950 112.035 M210.716 111.936 L 211.399 112.473 211.399 121.373 L 211.399 130.273 210.716 130.810 C 209.819 131.516,209.002 131.489,208.110 130.722 L 207.383 130.097 207.383 121.373 L 207.383 112.649 208.110 112.024 C 209.002 111.257,209.819 111.230,210.716 111.936 M188.944 147.041 C 182.993 149.236,182.552 157.595,188.239 160.395 C 195.147 163.796,201.718 155.557,197.013 149.394 C 195.264 147.104,191.638 146.047,188.944 147.041 M45.893 270.473 C 48.028 271.065,48.440 274.148,46.552 275.401 C 46.093 275.705,44.417 275.793,37.759 275.858 L 29.534 275.940 29.534 283.436 L 29.534 290.933 36.023 290.933 C 42.903 290.933,43.671 291.052,44.293 292.214 C 44.784 293.131,44.610 294.731,43.935 295.517 L 43.310 296.244 36.487 296.373 L 29.663 296.503 29.595 304.598 L 29.526 312.694 37.840 312.694 L 46.154 312.694 46.911 313.452 C 47.967 314.508,47.968 315.978,46.913 317.159 L 46.157 318.005 37.133 318.087 C 26.658 318.183,25.574 318.102,24.707 317.167 L 24.093 316.505 24.093 294.298 C 24.093 269.345,23.955 271.081,25.988 270.493 C 27.136 270.161,44.706 270.143,45.893 270.473 M93.326 270.769 C 94.573 271.408,94.560 271.167,94.560 292.474 L 94.560 312.435 102.170 312.435 C 106.355 312.435,110.142 312.508,110.586 312.596 C 113.275 313.134,113.669 316.917,111.127 317.796 C 109.973 318.196,92.544 318.256,91.139 317.865 C 88.962 317.261,89.119 319.105,89.119 294.156 L 89.119 272.060 89.776 271.280 C 90.651 270.240,91.934 270.055,93.326 270.769 M146.654 271.183 C 148.084 272.784,147.436 275.069,145.390 275.637 C 144.833 275.792,141.246 275.904,136.852 275.905 L 129.275 275.907 129.275 283.420 L 129.275 290.933 135.583 290.933 C 143.398 290.933,144.301 291.215,144.301 293.657 C 144.301 296.150,143.653 296.361,135.946 296.367 L 129.275 296.373 129.275 304.534 L 129.275 312.694 137.319 312.694 C 147.078 312.694,148.014 313.005,147.255 315.994 C 146.748 317.996,146.750 317.995,136.129 318.082 C 125.618 318.168,124.893 318.088,124.080 316.761 C 123.279 315.454,123.415 272.400,124.223 271.494 C 125.341 270.242,125.637 270.211,136.097 270.276 L 145.898 270.337 146.654 271.183 M175.286 270.901 C 175.585 271.094,176.022 271.630,176.257 272.090 C 176.813 273.183,189.171 314.452,189.178 315.241 C 189.191 316.669,188.003 317.720,186.377 317.720 C 184.802 317.720,184.388 317.003,182.614 311.201 L 181.008 305.951 173.733 306.019 L 166.459 306.088 165.010 311.010 C 164.213 313.718,163.396 316.195,163.195 316.516 C 161.986 318.440,158.676 318.079,158.145 315.965 C 158.041 315.547,159.385 310.551,162.138 301.126 C 164.420 293.311,167.242 283.595,168.409 279.534 C 170.072 273.744,170.675 271.995,171.201 271.431 C 172.308 270.244,173.942 270.032,175.286 270.901 M220.337 271.075 C 223.749 272.194,225.913 274.053,227.118 276.900 L 227.850 278.627 227.929 286.198 C 228.048 297.558,226.917 300.800,222.152 302.759 C 220.693 303.359,220.530 302.695,223.705 309.080 C 227.010 315.727,227.143 317.135,224.530 317.830 C 222.244 318.438,221.702 317.814,218.110 310.427 L 215.055 304.145 211.284 304.145 L 207.513 304.145 207.513 310.198 C 207.513 315.921,207.484 316.288,206.979 316.931 C 205.985 318.194,203.873 318.310,202.727 317.164 L 202.073 316.510 202.073 294.382 C 202.073 269.924,201.999 271.003,203.695 270.480 C 205.638 269.881,218.051 270.325,220.337 271.075 M268.718 271.190 L 269.430 271.859 269.430 294.099 C 269.430 318.871,269.544 317.346,267.656 317.868 C 266.862 318.087,266.525 318.036,265.545 317.549 L 264.378 316.969 256.218 300.865 L 248.057 284.761 247.927 300.665 L 247.798 316.569 247.150 317.202 C 246.094 318.236,244.324 318.198,243.244 317.118 L 242.487 316.361 242.487 294.229 L 242.487 272.096 243.107 271.428 C 243.969 270.497,245.322 270.286,246.522 270.893 C 247.418 271.346,247.936 272.291,255.724 287.694 L 263.977 304.016 263.983 288.076 C 263.990 270.459,263.907 271.338,265.642 270.576 C 266.683 270.119,267.818 270.346,268.718 271.190 M289.181 270.769 C 290.435 271.411,290.415 271.012,290.415 294.443 L 290.415 316.373 289.534 317.254 C 288.579 318.209,287.617 318.384,286.392 317.825 C 284.925 317.157,284.974 317.979,284.974 294.074 L 284.974 272.060 285.631 271.280 C 286.506 270.240,287.789 270.055,289.181 270.769 M330.482 270.466 C 330.695 270.466,331.210 270.807,331.626 271.224 L 332.383 271.981 332.383 294.131 L 332.383 316.281 331.739 317.048 C 330.640 318.354,328.581 318.278,327.413 316.888 C 327.083 316.495,323.258 309.125,318.912 300.509 L 311.010 284.845 310.881 300.685 C 310.757 315.840,310.730 316.550,310.254 317.075 C 309.185 318.256,307.108 318.199,306.023 316.959 L 305.440 316.292 305.440 294.145 L 305.440 271.997 306.059 271.378 C 306.877 270.561,308.223 270.322,309.349 270.796 C 310.181 271.145,310.727 272.143,318.523 287.544 L 326.813 303.920 326.880 287.874 L 326.947 271.828 327.613 271.163 C 328.276 270.499,329.095 270.197,329.749 270.373 C 329.939 270.424,330.268 270.466,330.482 270.466 M368.264 270.981 C 373.910 272.789,377.052 276.329,377.397 281.269 C 377.707 285.700,372.495 286.263,371.917 281.862 C 371.263 276.883,364.294 274.061,357.772 276.133 C 352.819 277.708,352.336 279.348,352.334 294.638 C 352.331 309.873,352.848 311.325,358.726 312.570 C 367.464 314.421,372.160 311.035,372.477 302.655 L 372.606 299.223 368.937 299.223 C 363.810 299.223,362.621 298.556,363.041 295.915 C 363.363 293.892,363.738 293.782,370.368 293.782 C 378.375 293.782,377.981 293.417,377.976 300.829 C 377.967 314.222,374.515 318.005,362.306 318.005 C 352.327 318.005,348.406 315.318,347.144 307.615 C 346.700 304.905,346.823 282.956,347.295 280.624 C 348.421 275.064,351.587 271.841,357.124 270.619 C 359.864 270.014,365.855 270.209,368.264 270.981 M207.513 287.315 L 207.513 298.752 212.630 298.637 C 222.074 298.427,222.629 297.740,222.490 286.450 L 222.409 279.880 221.630 278.620 C 220.215 276.333,219.290 276.051,212.897 275.957 L 207.513 275.878 207.513 287.315 M173.202 283.198 C 172.979 283.961,171.772 288.083,170.518 292.358 L 168.240 300.130 173.666 300.200 C 176.650 300.238,179.143 300.218,179.205 300.156 C 179.317 300.043,173.921 282.125,173.713 281.916 C 173.654 281.858,173.424 282.434,173.202 283.198 M76.706 291.390 C 77.561 292.348,77.680 293.385,77.070 294.565 C 76.424 295.813,76.149 295.855,68.520 295.855 L 61.359 295.855 60.602 295.098 C 59.267 293.763,59.771 291.202,61.467 290.696 C 61.934 290.556,65.332 290.467,69.128 290.495 L 75.950 290.544 76.706 291.390 M72.744 333.158 C 74.430 333.889,75.784 335.407,76.301 337.147 C 76.870 339.062,76.854 352.258,76.281 353.939 C 74.154 360.183,63.733 360.664,60.585 354.663 C 59.868 353.295,59.496 340.643,60.094 337.922 C 61.131 333.195,67.389 330.839,72.744 333.158 M332.974 332.768 C 335.744 333.490,337.253 335.010,337.968 337.802 C 338.544 340.051,338.410 352.440,337.792 354.061 C 335.390 360.362,324.942 360.590,322.043 354.406 C 320.778 351.708,320.940 338.623,322.270 336.037 C 323.841 332.983,328.426 331.583,332.974 332.768 M37.975 333.275 C 39.380 335.199,38.267 335.751,32.991 335.751 L 28.497 335.751 28.497 339.767 L 28.497 343.782 31.966 343.782 C 35.832 343.782,36.593 344.051,36.593 345.416 C 36.593 346.786,36.280 346.891,32.222 346.891 L 28.497 346.891 28.497 352.246 C 28.497 358.095,28.389 358.549,26.988 358.549 C 25.343 358.549,25.389 358.914,25.389 345.735 C 25.389 333.382,25.403 333.199,26.425 332.815 C 27.594 332.375,37.609 332.774,37.975 333.275 M102.533 333.046 L 103.109 333.449 103.110 342.437 C 103.112 351.983,103.199 352.820,104.337 354.172 C 106.302 356.507,111.502 356.239,113.212 353.715 L 113.860 352.759 113.990 343.102 C 114.129 332.701,114.112 332.815,115.522 332.815 C 117.142 332.815,117.098 332.535,117.098 343.027 C 117.098 353.893,117.021 354.390,114.990 356.482 C 111.892 359.675,104.971 359.609,102.119 356.360 C 100.172 354.143,100.000 353.013,100.000 342.428 L 100.000 333.914 100.636 333.278 C 101.377 332.537,101.743 332.492,102.533 333.046 M155.064 333.278 L 155.699 333.914 155.699 345.656 C 155.699 358.560,155.701 358.549,154.180 358.549 C 152.998 358.549,152.781 358.212,148.337 349.482 L 144.051 341.062 144.046 349.230 C 144.041 358.256,143.992 358.549,142.491 358.549 C 140.886 358.549,140.933 358.936,140.933 345.586 C 140.933 332.106,140.828 332.902,142.603 332.902 C 143.463 332.902,143.450 332.880,148.256 342.419 C 150.426 346.728,152.290 350.255,152.396 350.256 C 152.503 350.258,152.591 346.477,152.591 341.854 C 152.591 333.462,152.592 333.448,153.166 333.046 C 153.956 332.492,154.323 332.537,155.064 333.278 M190.409 332.919 C 194.004 333.502,196.042 335.424,196.630 338.787 C 197.134 341.667,196.890 353.262,196.303 354.336 C 195.530 355.751,194.280 356.995,192.899 357.724 C 190.943 358.756,180.893 358.968,180.209 357.992 C 179.656 357.202,179.569 334.059,180.117 333.369 C 180.722 332.606,186.833 332.339,190.409 332.919 M228.327 333.225 C 229.042 333.881,235.872 356.143,235.708 357.284 C 235.661 357.614,235.315 358.056,234.939 358.266 C 233.717 358.950,233.154 358.282,232.144 354.948 L 231.268 352.059 227.397 352.131 L 223.525 352.202 222.666 355.038 C 221.618 358.500,220.572 359.436,219.310 358.041 C 218.699 357.366,218.606 357.769,222.252 345.207 C 225.848 332.816,225.707 333.224,226.488 332.910 C 227.383 332.551,227.639 332.594,228.327 333.225 M271.704 333.046 C 272.059 333.295,272.278 333.716,272.276 334.147 C 272.268 335.479,271.997 335.612,268.987 335.751 L 266.192 335.881 266.062 346.966 C 265.922 358.962,265.978 358.536,264.528 358.545 C 262.923 358.555,262.953 358.782,262.953 346.722 L 262.953 335.751 260.110 335.751 C 257.364 335.751,257.251 335.729,256.843 335.106 C 256.309 334.291,256.544 333.222,257.326 332.907 C 258.424 332.465,271.049 332.587,271.704 333.046 M297.093 333.046 L 297.668 333.449 297.668 345.688 C 297.668 358.923,297.710 358.549,296.244 358.549 C 294.777 358.549,294.819 358.923,294.819 345.688 L 294.819 333.449 295.394 333.046 C 295.711 332.824,296.093 332.642,296.244 332.642 C 296.394 332.642,296.776 332.824,297.093 333.046 M375.729 332.940 C 376.676 333.438,376.676 333.438,376.680 345.705 C 376.684 358.655,376.696 358.549,375.240 358.549 C 374.068 358.549,373.779 358.104,369.502 349.727 L 365.155 341.213 365.026 349.453 C 364.885 358.390,364.858 358.549,363.458 358.549 C 361.873 358.549,361.917 358.920,361.917 345.586 C 361.917 332.139,361.819 332.902,363.544 332.902 C 364.487 332.902,364.651 333.171,369.209 342.228 L 373.446 350.648 373.509 342.098 C 373.571 333.749,373.586 333.539,374.121 333.096 C 374.766 332.562,374.973 332.542,375.729 332.940 M65.415 335.858 C 63.144 336.867,62.953 337.641,62.953 345.833 C 62.953 355.000,63.261 355.570,68.218 355.570 C 73.213 355.570,73.575 354.894,73.575 345.558 C 73.575 337.630,73.433 337.008,71.405 336.026 C 70.099 335.394,66.675 335.298,65.415 335.858 M326.680 336.075 C 324.571 337.144,324.493 337.459,324.403 345.337 C 324.325 352.112,324.332 352.217,324.933 353.368 C 326.675 356.708,332.939 356.627,334.595 353.242 L 335.273 351.857 335.188 345.294 C 335.091 337.771,334.947 337.156,333.031 336.082 C 331.546 335.249,328.316 335.246,326.680 336.075 M183.096 335.901 C 182.989 336.009,182.902 340.507,182.902 345.898 L 182.902 355.699 185.868 355.699 C 193.245 355.699,193.785 355.059,193.776 346.321 C 193.768 338.462,193.537 337.533,191.305 336.400 C 190.242 335.860,183.541 335.453,183.096 335.901 M225.948 343.956 C 225.211 346.497,224.608 348.663,224.609 348.769 C 224.610 348.876,225.894 348.964,227.461 348.964 C 229.028 348.964,230.311 348.901,230.311 348.824 C 230.311 348.560,227.665 340.026,227.477 339.682 C 227.367 339.482,226.727 341.273,225.948 343.956 "
              stroke="none" fill="none" fill-rule="evenodd"></path>
        <path id="path2"
              d="M5.764 189.573 L 5.699 373.575 200.324 373.511 L 394.948 373.446 200.454 373.381 L 5.959 373.316 5.894 189.443 L 5.829 5.570 5.764 189.573 M155.557 28.238 C 155.557 33.012,155.592 34.964,155.634 32.578 C 155.677 30.191,155.677 26.286,155.634 23.899 C 155.592 21.512,155.557 23.465,155.557 28.238 M159.326 28.420 C 159.255 33.293,159.286 37.191,159.395 37.082 C 159.504 36.973,159.562 32.986,159.524 28.222 L 159.456 19.560 159.326 28.420 M181.463 28.368 C 181.463 33.070,181.498 35.030,181.541 32.724 C 181.584 30.417,181.584 26.570,181.541 24.174 C 181.498 21.779,181.463 23.666,181.463 28.368 M207.370 28.238 C 207.370 32.869,207.405 34.764,207.448 32.448 C 207.491 30.133,207.491 26.344,207.448 24.028 C 207.405 21.713,207.370 23.608,207.370 28.238 M221.369 74.482 C 221.369 91.295,221.400 98.135,221.438 89.682 C 221.476 81.229,221.476 67.472,221.438 59.112 C 221.400 50.752,221.369 57.668,221.369 74.482 M126.506 46.567 C 128.759 46.610,132.373 46.610,134.537 46.567 C 136.701 46.523,134.858 46.488,130.440 46.488 C 126.023 46.488,124.253 46.524,126.506 46.567 M149.610 74.482 L 149.611 102.461 183.420 102.463 L 217.228 102.464 183.486 102.397 L 149.743 102.330 149.676 74.416 L 149.608 46.503 149.610 74.482 M233.241 46.567 C 235.352 46.610,238.732 46.610,240.754 46.567 C 242.776 46.523,241.049 46.487,236.917 46.487 C 232.785 46.488,231.131 46.523,233.241 46.567 M275.389 57.124 C 276.737 58.478,277.898 59.585,277.969 59.585 C 278.040 59.585,276.996 58.478,275.648 57.124 C 274.300 55.771,273.138 54.663,273.067 54.663 C 272.996 54.663,274.041 55.771,275.389 57.124 M208.151 68.135 C 208.151 75.473,208.185 78.475,208.225 74.806 C 208.266 71.137,208.266 65.133,208.225 61.464 C 208.185 57.795,208.151 60.797,208.151 68.135 M161.777 57.578 C 161.708 57.756,161.684 63.206,161.723 69.689 L 161.793 81.477 161.855 69.496 L 161.917 57.516 183.096 57.448 L 204.275 57.380 183.088 57.317 C 166.330 57.267,161.875 57.322,161.777 57.578 M274.870 62.257 C 274.870 62.302,275.249 62.681,275.712 63.099 L 276.554 63.860 275.793 63.018 C 275.084 62.233,274.870 62.057,274.870 62.257 M95.664 63.139 C 96.058 63.199,96.641 63.197,96.960 63.136 C 97.278 63.074,96.956 63.026,96.244 63.027 C 95.531 63.029,95.270 63.080,95.664 63.139 M103.368 65.625 C 103.368 65.670,103.747 66.049,104.210 66.467 L 105.052 67.228 104.291 66.386 C 103.582 65.601,103.368 65.425,103.368 65.625 M233.355 72.474 C 235.385 72.517,238.708 72.517,240.738 72.474 C 242.769 72.430,241.108 72.394,237.047 72.394 C 232.986 72.394,231.324 72.430,233.355 72.474 M290.338 77.843 C 290.721 78.622,291.077 79.217,291.130 79.164 C 291.246 79.047,289.940 76.425,289.765 76.425 C 289.698 76.425,289.956 77.063,290.338 77.843 M104.003 82.448 L 102.979 83.549 104.080 82.525 C 105.104 81.573,105.300 81.347,105.104 81.347 C 105.062 81.347,104.567 81.843,104.003 82.448 M95.793 81.789 C 96.115 81.851,96.582 81.849,96.829 81.784 C 97.077 81.719,96.813 81.669,96.244 81.672 C 95.674 81.674,95.471 81.727,95.793 81.789 M175.972 92.681 C 180.068 92.721,186.771 92.721,190.868 92.681 C 194.964 92.641,191.613 92.608,183.420 92.608 C 175.227 92.608,171.875 92.641,175.972 92.681 M183.516 109.067 C 183.516 110.563,183.558 111.176,183.611 110.427 C 183.663 109.679,183.663 108.455,183.611 107.707 C 183.558 106.959,183.516 107.571,183.516 109.067 M298.523 108.031 C 298.523 108.815,298.572 109.135,298.631 108.744 C 298.691 108.352,298.691 107.710,298.631 107.319 C 298.572 106.927,298.523 107.247,298.523 108.031 M187.419 115.674 C 187.419 119.521,187.455 121.131,187.499 119.251 C 187.543 117.372,187.544 114.224,187.499 112.256 C 187.455 110.289,187.419 111.826,187.419 115.674 M294.656 111.788 C 294.657 113.355,294.700 113.963,294.751 113.138 C 294.803 112.314,294.802 111.031,294.750 110.288 C 294.698 109.546,294.656 110.220,294.656 111.788 M155.557 121.373 C 155.557 126.218,155.592 128.163,155.634 125.696 C 155.677 123.229,155.677 119.265,155.634 116.888 C 155.591 114.510,155.557 116.528,155.557 121.373 M159.443 121.373 C 159.443 126.218,159.478 128.163,159.520 125.696 C 159.563 123.229,159.563 119.265,159.520 116.888 C 159.477 114.510,159.443 116.528,159.443 121.373 M207.369 121.373 C 207.370 125.933,207.405 127.761,207.448 125.437 C 207.491 123.113,207.491 119.382,207.448 117.147 C 207.405 114.912,207.369 116.813,207.369 121.373 M298.775 115.803 C 298.775 116.444,298.826 116.707,298.887 116.386 C 298.949 116.065,298.949 115.541,298.887 115.220 C 298.826 114.900,298.775 115.162,298.775 115.803 M189.626 124.935 C 190.700 126.079,190.933 126.285,190.933 126.090 C 190.933 126.049,190.379 125.495,189.702 124.860 L 188.472 123.705 189.626 124.935 M187.435 128.497 C 187.992 129.067,188.505 129.534,188.577 129.534 C 188.648 129.534,188.251 129.067,187.694 128.497 C 187.138 127.927,186.624 127.461,186.553 127.461 C 186.482 127.461,186.879 127.927,187.435 128.497 M193.253 128.821 C 193.889 129.498,194.442 130.052,194.484 130.052 C 194.679 130.052,194.473 129.819,193.329 128.746 L 192.098 127.591 193.253 128.821 M190.966 132.254 C 191.483 132.824,191.969 133.465,192.047 133.679 C 192.169 134.016,192.190 134.014,192.208 133.667 C 192.219 133.446,191.733 132.805,191.127 132.242 L 190.026 131.218 190.966 132.254 M196.174 132.902 C 196.174 133.400,196.227 133.604,196.293 133.355 C 196.358 133.106,196.358 132.698,196.293 132.448 C 196.227 132.199,196.174 132.403,196.174 132.902 M184.015 153.886 C 184.015 154.670,184.064 154.990,184.123 154.598 C 184.183 154.207,184.183 153.565,184.123 153.174 C 184.064 152.782,184.015 153.102,184.015 153.886 M202.656 154.016 C 202.659 154.585,202.712 154.788,202.774 154.466 C 202.836 154.144,202.834 153.677,202.769 153.430 C 202.704 153.182,202.653 153.446,202.656 154.016 M318.471 162.176 C 318.471 162.960,318.520 163.280,318.579 162.889 C 318.639 162.497,318.639 161.856,318.579 161.464 C 318.520 161.072,318.471 161.392,318.471 162.176 M182.642 161.221 C 182.642 161.266,183.021 161.644,183.484 162.063 L 184.326 162.824 183.566 161.982 C 182.856 161.197,182.642 161.021,182.642 161.221 M190.613 165.214 C 191.079 165.271,191.779 165.270,192.168 165.211 C 192.557 165.152,192.176 165.105,191.321 165.106 C 190.466 165.108,190.148 165.156,190.613 165.214 M303.951 167.289 C 304.628 167.342,305.735 167.342,306.412 167.289 C 307.089 167.236,306.535 167.192,305.181 167.192 C 303.828 167.192,303.274 167.236,303.951 167.289 M304.868 171.177 C 305.764 171.227,307.163 171.227,307.976 171.176 C 308.790 171.124,308.057 171.083,306.347 171.083 C 304.637 171.084,303.972 171.126,304.868 171.177 M298.825 184.845 C 298.825 192.396,298.858 195.448,298.899 191.627 C 298.939 187.805,298.939 181.627,298.899 177.896 C 298.858 174.166,298.825 177.293,298.825 184.845 M169.242 202.073 C 169.242 202.714,169.292 202.976,169.354 202.655 C 169.416 202.335,169.416 201.810,169.354 201.490 C 169.292 201.169,169.242 201.431,169.242 202.073 M165.345 203.627 C 165.345 204.126,165.398 204.330,165.464 204.080 C 165.529 203.831,165.529 203.423,165.464 203.174 C 165.398 202.924,165.345 203.128,165.345 203.627 M169.513 206.218 C 169.513 207.144,169.560 207.523,169.617 207.060 C 169.675 206.597,169.675 205.839,169.617 205.376 C 169.560 204.913,169.513 205.291,169.513 206.218 M165.633 209.456 C 165.634 210.596,165.679 211.030,165.734 210.421 C 165.789 209.811,165.788 208.879,165.732 208.348 C 165.677 207.818,165.632 208.316,165.633 209.456 M293.118 210.687 L 292.358 211.528 293.199 210.768 C 293.984 210.058,294.161 209.845,293.960 209.845 C 293.916 209.845,293.537 210.223,293.118 210.687 M260.481 215.869 C 260.412 216.048,260.388 220.391,260.427 225.519 L 260.499 234.845 260.560 225.327 L 260.622 215.809 271.567 215.738 L 282.513 215.668 271.559 215.606 C 262.967 215.557,260.579 215.614,260.481 215.869 M167.358 238.423 C 167.358 238.468,167.736 238.847,168.199 239.265 L 169.041 240.026 168.281 239.184 C 167.571 238.399,167.358 238.223,167.358 238.423 M31.282 270.401 C 33.883 270.443,38.138 270.443,40.738 270.401 C 43.339 270.359,41.211 270.324,36.010 270.324 C 30.810 270.324,28.682 270.359,31.282 270.401 M130.911 270.401 C 133.592 270.443,137.905 270.443,140.496 270.401 C 143.087 270.359,140.894 270.324,135.622 270.324 C 130.350 270.325,128.230 270.359,130.911 270.401 M207.333 270.401 C 209.016 270.446,211.697 270.446,213.292 270.401 C 214.887 270.355,213.510 270.318,210.233 270.318 C 206.956 270.319,205.651 270.356,207.333 270.401 M94.428 292.358 L 94.430 312.565 102.332 312.570 L 110.233 312.576 102.398 312.502 L 94.563 312.428 94.494 292.289 L 94.425 272.150 94.428 292.358 M290.279 294.301 C 290.279 306.483,290.311 311.467,290.350 305.376 C 290.388 299.284,290.388 289.317,290.350 283.225 C 290.311 277.134,290.279 282.118,290.279 294.301 M123.699 294.301 C 123.699 306.341,123.731 311.266,123.769 305.246 C 123.808 299.226,123.808 289.375,123.769 283.355 C 123.731 277.335,123.699 282.260,123.699 294.301 M350.518 273.964 C 349.889 274.605,349.432 275.130,349.504 275.130 C 349.575 275.130,350.148 274.605,350.777 273.964 C 351.406 273.323,351.863 272.798,351.792 272.798 C 351.721 272.798,351.147 273.323,350.518 273.964 M33.355 275.841 C 35.528 275.885,39.084 275.885,41.256 275.841 C 43.429 275.798,41.652 275.763,37.306 275.763 C 32.960 275.763,31.182 275.798,33.355 275.841 M129.133 275.975 C 129.064 276.155,129.040 279.623,129.080 283.682 L 129.153 291.062 129.214 283.488 L 129.275 275.914 137.111 275.842 L 144.948 275.769 137.103 275.708 C 130.979 275.661,129.231 275.719,129.133 275.975 M207.372 275.972 C 207.304 276.150,207.280 281.367,207.319 287.565 L 207.389 298.834 207.451 287.377 L 207.513 275.919 211.982 275.842 L 216.451 275.764 211.974 275.706 C 208.587 275.662,207.466 275.727,207.372 275.972 M313.083 277.202 C 313.444 277.915,313.798 278.497,313.869 278.497 C 313.940 278.497,313.703 277.915,313.342 277.202 C 312.981 276.490,312.627 275.907,312.556 275.907 C 312.485 275.907,312.722 276.490,313.083 277.202 M310.622 300.389 C 310.622 309.199,310.678 316.351,310.747 316.282 C 310.919 316.110,310.931 284.679,310.759 284.507 C 310.684 284.431,310.622 291.578,310.622 300.389 M255.570 287.824 C 255.931 288.536,256.285 289.119,256.356 289.119 C 256.427 289.119,256.190 288.536,255.829 287.824 C 255.468 287.111,255.114 286.528,255.043 286.528 C 254.972 286.528,255.209 287.111,255.570 287.824 M65.350 290.608 C 67.166 290.653,70.139 290.653,71.956 290.608 C 73.773 290.564,72.286 290.527,68.653 290.527 C 65.019 290.527,63.533 290.564,65.350 290.608 M77.267 293.135 C 77.270 293.705,77.323 293.907,77.385 293.585 C 77.447 293.263,77.445 292.796,77.380 292.549 C 77.315 292.301,77.265 292.565,77.267 293.135 M144.107 293.653 C 144.110 294.223,144.163 294.425,144.225 294.103 C 144.287 293.781,144.284 293.315,144.219 293.067 C 144.155 292.819,144.104 293.083,144.107 293.653 M129.131 304.663 C 129.131 309.152,129.166 310.988,129.209 308.744 C 129.252 306.499,129.252 302.827,129.209 300.583 C 129.166 298.339,129.131 300.175,129.131 304.663 M323.964 298.705 C 324.325 299.417,324.678 300.000,324.750 300.000 C 324.821 300.000,324.584 299.417,324.223 298.705 C 323.862 297.992,323.508 297.409,323.437 297.409 C 323.366 297.409,323.603 297.992,323.964 298.705 M366.916 299.157 C 368.027 299.205,369.775 299.205,370.802 299.156 C 371.829 299.107,370.920 299.067,368.782 299.067 C 366.645 299.068,365.805 299.108,366.916 299.157 M224.729 300.842 L 223.705 301.943 224.806 300.919 C 225.830 299.967,226.026 299.741,225.830 299.741 C 225.787 299.741,225.292 300.236,224.729 300.842 M173.705 300.259 L 168.005 300.404 173.769 300.461 C 177.478 300.498,179.534 300.426,179.534 300.259 C 179.534 300.117,179.505 300.026,179.469 300.057 C 179.433 300.089,176.839 300.179,173.705 300.259 M207.365 310.363 C 207.365 313.711,207.402 315.081,207.447 313.407 C 207.492 311.733,207.492 308.993,207.447 307.319 C 207.402 305.644,207.365 307.014,207.365 310.363 M377.780 305.440 C 377.780 305.939,377.834 306.143,377.899 305.894 C 377.964 305.644,377.964 305.236,377.899 304.987 C 377.834 304.738,377.780 304.942,377.780 305.440 M166.490 305.894 C 166.424 306.001,168.545 306.058,171.203 306.022 C 180.320 305.897,181.210 305.809,173.914 305.754 C 169.897 305.724,166.557 305.787,166.490 305.894 M224.377 310.751 C 224.377 310.894,224.774 311.768,225.259 312.694 C 225.744 313.620,226.141 314.262,226.141 314.119 C 226.141 313.977,225.744 313.102,225.259 312.176 C 224.774 311.250,224.377 310.609,224.377 310.751 M349.741 314.071 C 349.741 314.115,350.120 314.494,350.583 314.913 L 351.425 315.674 350.664 314.832 C 349.955 314.047,349.741 313.871,349.741 314.071 M147.210 315.285 C 147.210 315.784,147.264 315.988,147.329 315.738 C 147.394 315.489,147.394 315.081,147.329 314.832 C 147.264 314.582,147.210 314.786,147.210 315.285 M31.282 318.070 C 33.883 318.112,38.138 318.112,40.738 318.070 C 43.339 318.027,41.211 317.993,36.010 317.993 C 30.810 317.993,28.682 318.027,31.282 318.070 M96.308 318.070 C 98.909 318.112,103.164 318.112,105.764 318.070 C 108.365 318.027,106.237 317.993,101.036 317.993 C 95.835 317.993,93.708 318.027,96.308 318.070 M130.764 318.070 C 133.365 318.112,137.620 318.112,140.220 318.070 C 142.821 318.027,140.693 317.993,135.492 317.993 C 130.291 317.993,128.164 318.027,130.764 318.070 M29.210 332.836 C 30.670 332.882,33.060 332.882,34.521 332.836 C 35.981 332.790,34.786 332.752,31.865 332.752 C 28.944 332.752,27.749 332.790,29.210 332.836 M183.096 332.835 C 184.271 332.883,186.195 332.883,187.370 332.835 C 188.546 332.787,187.584 332.748,185.233 332.748 C 182.882 332.748,181.920 332.787,183.096 332.835 M261.075 332.836 C 262.963 332.880,266.052 332.880,267.940 332.836 C 269.828 332.792,268.284 332.756,264.508 332.756 C 260.732 332.756,259.187 332.792,261.075 332.836 M38.118 334.247 C 38.098 334.645,37.835 335.118,37.507 335.348 C 37.190 335.570,37.056 335.751,37.208 335.751 C 37.731 335.751,38.385 334.766,38.269 334.153 C 38.163 333.598,38.151 333.606,38.118 334.247 M73.834 333.760 C 73.834 333.804,74.213 334.183,74.676 334.602 L 75.518 335.363 74.757 334.521 C 74.048 333.736,73.834 333.560,73.834 333.760 M114.106 342.746 C 114.106 347.804,114.141 349.874,114.184 347.345 C 114.226 344.815,114.226 340.677,114.184 338.148 C 114.141 335.619,114.106 337.688,114.106 342.746 M179.912 345.596 C 179.912 352.222,179.946 354.932,179.987 351.619 C 180.028 348.306,180.028 342.885,179.987 339.573 C 179.946 336.260,179.912 338.970,179.912 345.596 M376.425 345.777 C 376.354 352.503,376.384 357.917,376.492 357.808 C 376.601 357.700,376.659 352.197,376.622 345.580 L 376.554 333.549 376.425 345.777 M100.116 342.746 C 100.116 347.662,100.151 349.673,100.194 347.215 C 100.236 344.757,100.236 340.735,100.194 338.277 C 100.151 335.819,100.116 337.830,100.116 342.746 M155.560 345.725 C 155.560 352.280,155.593 354.924,155.635 351.601 C 155.676 348.279,155.676 342.916,155.634 339.684 C 155.593 336.452,155.560 339.171,155.560 345.725 M67.814 335.416 C 68.136 335.478,68.602 335.476,68.850 335.411 C 69.098 335.346,68.834 335.296,68.264 335.298 C 67.694 335.301,67.492 335.354,67.814 335.416 M329.472 335.416 C 329.794 335.478,330.261 335.476,330.508 335.411 C 330.756 335.346,330.492 335.296,329.922 335.298 C 329.352 335.301,329.150 335.354,329.472 335.416 M145.466 337.306 C 145.827 338.018,146.181 338.601,146.252 338.601 C 146.323 338.601,146.086 338.018,145.725 337.306 C 145.364 336.593,145.011 336.010,144.939 336.010 C 144.868 336.010,145.105 336.593,145.466 337.306 M263.072 346.891 C 263.072 352.947,263.106 355.424,263.147 352.396 C 263.189 349.369,263.189 344.414,263.147 341.386 C 263.106 338.358,263.072 340.835,263.072 346.891 M62.807 345.596 C 62.807 349.372,62.844 350.916,62.888 349.028 C 62.932 347.141,62.932 344.051,62.888 342.163 C 62.844 340.275,62.807 341.820,62.807 345.596 M338.196 345.596 C 338.196 349.372,338.232 350.916,338.277 349.028 C 338.321 347.141,338.321 344.051,338.277 342.163 C 338.232 340.275,338.196 341.820,338.196 345.596 M196.745 346.114 C 196.745 349.890,196.781 351.435,196.826 349.547 C 196.870 347.659,196.870 344.569,196.826 342.681 C 196.781 340.793,196.745 342.338,196.745 346.114 M321.356 345.596 C 321.356 349.087,321.392 350.515,321.437 348.769 C 321.482 347.024,321.482 344.168,321.437 342.422 C 321.392 340.677,321.356 342.105,321.356 345.596 M73.687 345.855 C 73.687 349.203,73.723 350.573,73.769 348.899 C 73.814 347.225,73.814 344.485,73.769 342.811 C 73.723 341.137,73.687 342.506,73.687 345.855 M324.204 345.984 C 324.205 349.262,324.242 350.567,324.287 348.884 C 324.332 347.202,324.332 344.521,324.287 342.926 C 324.241 341.331,324.204 342.707,324.204 345.984 M143.782 349.093 C 143.782 353.772,143.838 357.544,143.905 357.477 C 144.079 357.302,144.100 340.905,143.926 340.731 C 143.847 340.652,143.782 344.415,143.782 349.093 M364.767 349.093 C 364.767 353.772,364.822 357.544,364.890 357.477 C 365.064 357.302,365.084 340.905,364.910 340.731 C 364.831 340.652,364.767 344.415,364.767 349.093 M30.105 343.974 C 31.061 344.024,32.693 344.024,33.732 343.975 C 34.771 343.926,33.990 343.885,31.995 343.885 C 30.000 343.884,29.150 343.925,30.105 343.974 M67.814 355.883 C 68.136 355.945,68.602 355.942,68.850 355.877 C 69.098 355.813,68.834 355.762,68.264 355.765 C 67.694 355.768,67.492 355.821,67.814 355.883 M108.228 355.883 C 108.551 355.945,109.017 355.942,109.265 355.877 C 109.512 355.813,109.249 355.762,108.679 355.765 C 108.109 355.768,107.906 355.821,108.228 355.883 M329.210 355.882 C 329.530 355.944,330.055 355.944,330.376 355.882 C 330.696 355.821,330.434 355.770,329.793 355.770 C 329.152 355.770,328.889 355.821,329.210 355.882 M100.216 379.210 C 155.263 379.246,245.263 379.246,300.216 379.210 C 355.168 379.174,310.130 379.144,200.130 379.144 C 90.130 379.144,45.168 379.174,100.216 379.210 "
              stroke="none" fill="#a5afc8" fill-rule="evenodd"></path>
        <path id="path3"
              d="M0.129 189.637 C 0.129 293.867,0.158 336.506,0.194 284.391 C 0.230 232.277,0.230 146.998,0.194 94.883 C 0.158 42.769,0.129 85.408,0.129 189.637 M200.194 5.635 L 394.818 5.700 394.884 189.573 L 394.949 373.446 394.948 189.508 L 394.948 5.570 200.259 5.570 L 5.570 5.569 200.194 5.635 M211.256 28.238 C 211.256 32.869,211.291 34.764,211.334 32.448 C 211.377 30.133,211.377 26.344,211.334 24.028 C 211.291 21.713,211.256 23.608,211.256 28.238 M145.596 58.083 C 145.525 65.877,145.555 72.166,145.663 72.057 C 145.771 71.949,145.829 65.572,145.792 57.886 L 145.725 43.912 145.596 58.083 M183.483 46.308 L 217.355 46.375 217.423 74.353 L 217.491 102.332 217.489 74.288 L 217.487 46.244 183.549 46.242 L 149.611 46.241 183.483 46.308 M171.956 53.562 C 178.261 53.601,188.578 53.601,194.883 53.562 C 201.188 53.523,196.030 53.492,183.420 53.492 C 170.810 53.492,165.651 53.523,171.956 53.562 M272.280 54.226 C 272.280 54.271,272.659 54.650,273.122 55.068 L 273.964 55.829 273.203 54.987 C 272.494 54.202,272.280 54.026,272.280 54.226 M272.668 59.845 C 274.231 61.412,275.568 62.694,275.639 62.694 C 275.710 62.694,274.490 61.412,272.927 59.845 C 271.365 58.277,270.028 56.995,269.957 56.995 C 269.886 56.995,271.106 58.277,272.668 59.845 M204.265 69.171 C 204.265 75.797,204.298 78.507,204.339 75.194 C 204.380 71.881,204.380 66.460,204.339 63.148 C 204.298 59.835,204.265 62.545,204.265 69.171 M277.461 59.456 C 277.945 59.955,278.398 60.363,278.470 60.363 C 278.541 60.363,278.204 59.955,277.720 59.456 C 277.237 58.957,276.783 58.549,276.712 58.549 C 276.641 58.549,276.978 58.957,277.461 59.456 M95.661 67.018 C 95.910 67.083,96.318 67.083,96.567 67.018 C 96.817 66.953,96.613 66.899,96.114 66.899 C 95.615 66.899,95.411 66.953,95.661 67.018 M85.059 74.482 C 85.060 75.479,85.107 75.856,85.163 75.318 C 85.219 74.781,85.218 73.964,85.161 73.505 C 85.104 73.045,85.058 73.484,85.059 74.482 M88.675 74.482 C 88.677 75.194,88.727 75.455,88.787 75.061 C 88.846 74.667,88.845 74.085,88.783 73.766 C 88.722 73.447,88.673 73.769,88.675 74.482 M145.717 90.544 C 145.717 98.523,145.750 101.825,145.790 97.881 C 145.830 93.937,145.830 87.409,145.790 83.373 C 145.750 79.338,145.717 82.565,145.717 90.544 M233.355 76.360 C 235.385 76.403,238.708 76.403,240.738 76.360 C 242.769 76.316,241.108 76.280,237.047 76.280 C 232.986 76.280,231.324 76.316,233.355 76.360 M176.101 88.795 C 180.126 88.835,186.713 88.835,190.738 88.795 C 194.764 88.755,191.470 88.722,183.420 88.722 C 175.369 88.722,172.076 88.755,176.101 88.795 M126.506 102.266 C 128.759 102.310,132.373 102.310,134.537 102.266 C 136.701 102.223,134.858 102.188,130.440 102.188 C 126.023 102.188,124.253 102.223,126.506 102.266 M233.241 102.266 C 235.352 102.310,238.732 102.310,240.754 102.266 C 242.776 102.222,241.049 102.187,236.917 102.187 C 232.785 102.187,231.131 102.223,233.241 102.266 M294.625 107.383 C 294.628 107.953,294.681 108.156,294.743 107.834 C 294.805 107.512,294.802 107.045,294.738 106.797 C 294.673 106.550,294.622 106.813,294.625 107.383 M298.541 112.694 C 298.541 114.190,298.584 114.802,298.637 114.054 C 298.689 113.306,298.689 112.082,298.637 111.334 C 298.584 110.586,298.541 111.198,298.541 112.694 M294.912 114.249 C 294.912 115.602,294.956 116.156,295.009 115.479 C 295.062 114.802,295.062 113.695,295.009 113.018 C 294.956 112.341,294.912 112.895,294.912 114.249 M211.255 121.373 C 211.256 125.933,211.291 127.761,211.334 125.437 C 211.377 123.113,211.377 119.382,211.334 117.147 C 211.291 114.912,211.255 116.813,211.255 121.373 M183.517 120.855 C 183.517 122.422,183.560 123.030,183.611 122.206 C 183.663 121.381,183.663 120.099,183.610 119.356 C 183.558 118.613,183.516 119.288,183.517 120.855 M190.674 126.295 C 191.157 126.794,191.611 127.202,191.682 127.202 C 191.753 127.202,191.416 126.794,190.933 126.295 C 190.449 125.797,189.996 125.389,189.924 125.389 C 189.853 125.389,190.190 125.797,190.674 126.295 M186.399 127.202 C 186.956 127.772,187.469 128.238,187.540 128.238 C 187.612 128.238,187.215 127.772,186.658 127.202 C 186.101 126.632,185.588 126.166,185.517 126.166 C 185.445 126.166,185.842 126.632,186.399 127.202 M194.301 130.181 C 194.784 130.680,195.238 131.088,195.309 131.088 C 195.380 131.088,195.043 130.680,194.560 130.181 C 194.076 129.683,193.622 129.275,193.551 129.275 C 193.480 129.275,193.817 129.683,194.301 130.181 M190.026 131.088 C 190.582 131.658,191.096 132.124,191.167 132.124 C 191.239 132.124,190.842 131.658,190.285 131.088 C 189.728 130.518,189.215 130.052,189.144 130.052 C 189.072 130.052,189.469 130.518,190.026 131.088 M183.533 145.920 L 182.772 146.762 183.614 146.001 C 184.077 145.582,184.456 145.203,184.456 145.159 C 184.456 144.959,184.242 145.135,183.533 145.920 M150.060 147.668 C 150.060 148.167,150.113 148.371,150.179 148.122 C 150.244 147.872,150.244 147.464,150.179 147.215 C 150.113 146.966,150.060 147.170,150.060 147.668 M198.782 153.886 C 198.782 154.670,198.831 154.990,198.890 154.598 C 198.950 154.207,198.950 153.565,198.890 153.174 C 198.831 152.782,198.782 153.102,198.782 153.886 M314.578 162.176 C 314.578 162.817,314.629 163.080,314.691 162.759 C 314.752 162.438,314.752 161.914,314.691 161.593 C 314.629 161.273,314.578 161.535,314.578 162.176 M297.215 167.543 C 297.607 167.602,298.248 167.602,298.640 167.543 C 299.032 167.484,298.711 167.435,297.927 167.435 C 297.144 167.435,296.823 167.484,297.215 167.543 M294.940 183.938 C 294.940 192.273,294.973 195.683,295.013 191.516 C 295.053 187.348,295.053 180.528,295.013 176.360 C 294.973 172.192,294.940 175.602,294.940 183.938 M299.417 171.172 C 299.880 171.229,300.638 171.229,301.101 171.172 C 301.564 171.114,301.185 171.067,300.259 171.067 C 299.333 171.067,298.954 171.114,299.417 171.172 M298.566 185.492 C 298.566 193.258,298.599 196.435,298.640 192.552 C 298.680 188.669,298.680 182.315,298.640 178.433 C 298.599 174.550,298.566 177.727,298.566 185.492 M165.350 201.684 C 165.353 202.254,165.406 202.457,165.468 202.134 C 165.530 201.812,165.528 201.346,165.463 201.098 C 165.398 200.850,165.347 201.114,165.350 201.684 M165.622 205.440 C 165.622 206.224,165.670 206.545,165.730 206.153 C 165.789 205.761,165.789 205.120,165.730 204.728 C 165.670 204.336,165.622 204.657,165.622 205.440 M290.401 207.966 L 289.508 208.938 290.479 208.045 C 291.384 207.214,291.570 206.995,291.372 206.995 C 291.329 206.995,290.892 207.432,290.401 207.966 M169.550 221.503 C 169.550 228.556,169.583 231.441,169.624 227.915 C 169.665 224.388,169.665 218.617,169.624 215.091 C 169.583 211.564,169.550 214.449,169.550 221.503 M293.005 210.492 C 292.376 211.133,291.919 211.658,291.991 211.658 C 292.062 211.658,292.635 211.133,293.264 210.492 C 293.894 209.851,294.350 209.326,294.279 209.326 C 294.208 209.326,293.634 209.851,293.005 210.492 M165.923 222.668 C 165.923 229.508,165.956 232.268,165.997 228.803 C 166.038 225.338,166.038 219.742,165.997 216.368 C 165.956 212.994,165.923 215.829,165.923 222.668 M256.595 223.834 C 256.595 229.747,256.629 232.166,256.671 229.210 C 256.712 226.253,256.712 221.415,256.671 218.459 C 256.629 215.502,256.595 217.921,256.595 223.834 M193.050 237.500 C 203.974 237.537,221.928 237.537,232.946 237.500 C 243.964 237.463,235.026 237.432,213.083 237.432 C 191.140 237.432,182.125 237.463,193.050 237.500 M24.217 294.171 C 24.217 306.282,24.249 311.199,24.288 305.097 C 24.326 298.995,24.326 289.086,24.287 283.076 C 24.249 277.067,24.217 282.060,24.217 294.171 M47.469 273.057 C 47.469 273.556,47.523 273.760,47.588 273.510 C 47.653 273.261,47.653 272.853,47.588 272.604 C 47.523 272.354,47.469 272.558,47.469 273.057 M202.196 294.171 C 202.196 306.282,202.228 311.199,202.267 305.097 C 202.306 298.995,202.305 289.086,202.267 283.076 C 202.228 277.067,202.196 282.060,202.196 294.171 M269.295 294.171 C 269.295 306.282,269.326 311.199,269.365 305.097 C 269.404 298.995,269.404 289.086,269.365 283.076 C 269.326 277.067,269.295 282.060,269.295 294.171 M305.564 294.171 C 305.564 306.282,305.596 311.199,305.635 305.097 C 305.673 298.995,305.673 289.086,305.635 283.076 C 305.596 277.067,305.564 282.060,305.564 294.171 M326.943 288.264 C 326.872 297.127,326.902 304.290,327.010 304.182 C 327.118 304.074,327.176 296.823,327.139 288.068 L 327.072 272.150 326.943 288.264 M89.243 294.171 C 89.243 306.140,89.275 310.998,89.313 304.968 C 89.352 298.937,89.352 289.144,89.313 283.206 C 89.275 277.268,89.243 282.202,89.243 294.171 M263.929 288.472 C 263.891 297.235,263.948 304.404,264.054 304.404 C 264.161 304.404,264.249 297.234,264.249 288.472 C 264.249 279.709,264.192 272.539,264.123 272.539 C 264.054 272.539,263.967 279.709,263.929 288.472 M285.098 294.171 C 285.098 306.140,285.130 310.998,285.168 304.968 C 285.207 298.937,285.207 289.144,285.168 283.206 C 285.130 277.268,285.098 282.202,285.098 294.171 M369.689 277.542 C 369.689 277.587,370.068 277.966,370.531 278.384 L 371.373 279.145 370.612 278.303 C 369.903 277.518,369.689 277.342,369.689 277.542 M227.831 286.528 C 227.831 289.734,227.868 291.046,227.914 289.443 C 227.959 287.840,227.959 285.217,227.914 283.614 C 227.868 282.011,227.831 283.323,227.831 286.528 M372.081 282.124 C 372.081 282.623,372.134 282.827,372.199 282.578 C 372.264 282.328,372.264 281.920,372.199 281.671 C 372.134 281.422,372.081 281.626,372.081 282.124 M352.192 294.560 C 352.192 300.900,352.225 303.494,352.267 300.324 C 352.308 297.153,352.308 291.966,352.267 288.795 C 352.225 285.625,352.192 288.219,352.192 294.560 M247.728 300.065 C 247.761 308.792,247.819 313.426,247.857 310.363 C 248.036 295.985,248.039 284.197,247.863 284.197 C 247.756 284.197,247.695 291.337,247.728 300.065 M32.578 291.126 C 34.323 291.171,37.179 291.171,38.925 291.126 C 40.670 291.081,39.242 291.045,35.751 291.045 C 32.260 291.045,30.832 291.081,32.578 291.126 M132.319 291.126 C 134.064 291.171,136.920 291.171,138.666 291.126 C 140.411 291.081,138.983 291.045,135.492 291.045 C 132.001 291.045,130.573 291.081,132.319 291.126 M59.905 293.264 C 59.905 293.763,59.958 293.967,60.023 293.718 C 60.088 293.468,60.088 293.060,60.023 292.811 C 59.958 292.562,59.905 292.766,59.905 293.264 M377.824 300.130 C 377.824 302.267,377.864 303.107,377.913 301.996 C 377.962 300.885,377.961 299.136,377.912 298.110 C 377.863 297.083,377.823 297.992,377.824 300.130 M209.378 298.897 C 210.618 298.945,212.716 298.945,214.041 298.898 C 215.367 298.851,214.352 298.812,211.788 298.812 C 209.223 298.811,208.139 298.850,209.378 298.897 M372.599 304.404 C 372.599 304.903,372.652 305.107,372.717 304.858 C 372.783 304.608,372.783 304.200,372.717 303.951 C 372.652 303.701,372.599 303.905,372.599 304.404 M209.403 304.079 C 210.514 304.127,212.263 304.127,213.289 304.078 C 214.316 304.029,213.407 303.989,211.269 303.990 C 209.132 303.990,208.292 304.030,209.403 304.079 M361.726 313.139 C 362.120 313.199,362.703 313.197,363.022 313.136 C 363.340 313.074,363.018 313.026,362.306 313.027 C 361.593 313.029,361.333 313.080,361.726 313.139 M359.909 318.054 C 360.159 318.119,360.567 318.119,360.816 318.054 C 361.065 317.989,360.861 317.936,360.363 317.936 C 359.864 317.936,359.660 317.989,359.909 318.054 M363.795 318.054 C 364.045 318.119,364.453 318.119,364.702 318.054 C 364.951 317.989,364.747 317.936,364.249 317.936 C 363.750 317.936,363.546 317.989,363.795 318.054 M141.221 333.514 C 141.009 333.769,140.947 337.190,140.997 345.755 L 141.068 357.642 141.130 345.712 C 141.176 336.850,141.272 333.702,141.503 333.472 C 141.674 333.301,141.746 333.161,141.664 333.161 C 141.582 333.161,141.382 333.320,141.221 333.514 M100.376 343.135 C 100.376 348.407,100.411 350.527,100.453 347.846 C 100.495 345.165,100.495 340.851,100.453 338.260 C 100.411 335.669,100.376 337.863,100.376 343.135 M102.967 342.746 C 102.967 347.804,103.001 349.874,103.044 347.345 C 103.086 344.815,103.086 340.677,103.044 338.148 C 103.001 335.619,102.967 337.688,102.967 342.746 M152.707 342.358 C 152.707 347.202,152.742 349.147,152.785 346.680 C 152.827 344.213,152.827 340.250,152.784 337.872 C 152.742 335.494,152.707 337.513,152.707 342.358 M294.938 345.725 C 294.938 352.422,294.972 355.199,295.013 351.896 C 295.054 348.593,295.054 343.114,295.013 339.720 C 294.972 336.326,294.938 339.028,294.938 345.725 M297.529 345.596 C 297.529 352.222,297.562 354.932,297.603 351.619 C 297.644 348.306,297.644 342.885,297.603 339.573 C 297.562 336.260,297.529 338.970,297.529 345.596 M373.691 342.358 C 373.692 347.202,373.726 349.147,373.769 346.680 C 373.812 344.213,373.812 340.250,373.769 337.872 C 373.726 335.494,373.691 337.513,373.691 342.358 M362.037 345.725 C 362.037 352.280,362.070 354.924,362.111 351.601 C 362.152 348.279,362.152 342.916,362.111 339.684 C 362.070 336.452,362.036 339.171,362.037 345.725 M116.956 342.746 C 116.956 347.519,116.990 349.472,117.033 347.085 C 117.076 344.699,117.076 340.793,117.033 338.407 C 116.990 336.020,116.956 337.973,116.956 342.746 M30.505 335.685 C 31.681 335.733,33.604 335.733,34.780 335.685 C 35.955 335.637,34.994 335.598,32.642 335.598 C 30.291 335.598,29.330 335.637,30.505 335.685 M182.761 335.817 C 182.692 335.995,182.667 340.571,182.704 345.985 L 182.772 355.829 185.881 355.841 L 188.990 355.853 185.946 355.768 L 182.902 355.684 182.902 345.725 L 182.902 335.767 186.075 335.686 L 189.249 335.604 186.067 335.548 C 183.714 335.507,182.853 335.577,182.761 335.817 M259.003 335.683 C 259.751 335.736,260.975 335.736,261.723 335.683 C 262.471 335.631,261.859 335.588,260.363 335.588 C 258.867 335.588,258.255 335.631,259.003 335.683 M265.922 335.816 C 265.853 335.994,265.829 340.978,265.868 346.891 L 265.939 357.642 266.000 346.706 L 266.062 335.770 268.588 335.685 L 271.114 335.601 268.580 335.546 C 266.749 335.507,266.011 335.582,265.922 335.816 M76.537 345.596 C 76.537 349.087,76.574 350.515,76.618 348.769 C 76.663 347.024,76.663 344.168,76.618 342.422 C 76.574 340.677,76.537 342.105,76.537 345.596 M335.345 345.725 C 335.345 349.288,335.382 350.781,335.427 349.044 C 335.471 347.306,335.471 344.392,335.427 342.567 C 335.382 340.742,335.346 342.163,335.345 345.725 M59.956 345.596 C 59.956 348.944,59.993 350.314,60.038 348.640 C 60.083 346.966,60.083 344.226,60.038 342.552 C 59.993 340.878,59.956 342.247,59.956 345.596 M193.895 346.114 C 193.895 349.747,193.931 351.234,193.976 349.417 C 194.020 347.600,194.020 344.628,193.976 342.811 C 193.931 340.994,193.895 342.481,193.895 346.114 M62.547 345.855 C 62.547 349.203,62.584 350.573,62.629 348.899 C 62.674 347.225,62.674 344.485,62.629 342.811 C 62.584 341.137,62.547 342.506,62.547 345.855 M67.811 358.732 C 68.131 358.794,68.656 358.794,68.977 358.732 C 69.297 358.670,69.035 358.620,68.394 358.620 C 67.753 358.620,67.490 358.670,67.811 358.732 M107.966 358.732 C 108.287 358.794,108.812 358.794,109.132 358.732 C 109.453 358.670,109.190 358.620,108.549 358.620 C 107.908 358.620,107.646 358.670,107.966 358.732 M329.210 358.732 C 329.530 358.794,330.055 358.794,330.376 358.732 C 330.696 358.670,330.434 358.620,329.793 358.620 C 329.152 358.620,328.889 358.670,329.210 358.732 "
              stroke="none" fill="#7c8cad" fill-rule="evenodd"></path>
        <path id="path4"
              d="M185.349 28.238 C 185.349 32.869,185.384 34.764,185.427 32.448 C 185.470 30.133,185.470 26.344,185.427 24.028 C 185.384 21.713,185.349 23.608,185.349 28.238 M126.506 50.453 C 128.759 50.496,132.373 50.496,134.537 50.453 C 136.701 50.409,134.858 50.374,130.440 50.374 C 126.023 50.374,124.253 50.410,126.506 50.453 M233.355 50.453 C 235.385 50.497,238.708 50.497,240.738 50.453 C 242.769 50.409,241.108 50.373,237.047 50.373 C 232.986 50.373,231.324 50.409,233.355 50.453 M157.892 68.135 C 157.892 75.330,157.925 78.274,157.966 74.676 C 158.007 71.078,158.007 65.191,157.966 61.593 C 157.925 57.995,157.892 60.939,157.892 68.135 M156.431 106.412 C 161.464 106.451,169.625 106.451,174.566 106.412 C 179.507 106.372,175.389 106.340,165.415 106.340 C 155.440 106.340,151.398 106.372,156.431 106.412 M187.410 106.579 C 187.334 106.778,187.318 107.390,187.374 107.939 C 187.473 108.889,187.480 108.878,187.521 107.709 L 187.565 106.481 203.562 106.412 L 219.560 106.343 203.554 106.280 C 190.060 106.227,187.527 106.274,187.410 106.579 M183.520 114.896 C 183.521 116.749,183.562 117.472,183.612 116.505 C 183.662 115.537,183.662 114.022,183.611 113.137 C 183.561 112.252,183.520 113.044,183.520 114.896 M307.837 167.277 C 308.086 167.342,308.494 167.342,308.744 167.277 C 308.993 167.212,308.789 167.159,308.290 167.159 C 307.791 167.159,307.587 167.212,307.837 167.277 M302.137 171.163 C 302.387 171.228,302.795 171.228,303.044 171.163 C 303.293 171.098,303.089 171.045,302.591 171.045 C 302.092 171.045,301.888 171.098,302.137 171.163 M264.202 211.852 C 267.382 211.893,272.511 211.893,275.601 211.852 C 278.690 211.811,276.088 211.777,269.819 211.777 C 263.549 211.777,261.022 211.811,264.202 211.852 M242.611 294.171 C 242.611 306.140,242.643 310.998,242.681 304.968 C 242.720 298.937,242.720 289.144,242.681 283.206 C 242.642 277.268,242.611 282.202,242.611 294.171 M332.248 294.301 C 332.248 306.341,332.280 311.266,332.319 305.246 C 332.357 299.226,332.357 289.375,332.319 283.355 C 332.280 277.335,332.248 282.260,332.248 294.301 M29.389 283.420 C 29.389 287.623,29.425 289.343,29.468 287.241 C 29.512 285.139,29.512 281.700,29.468 279.598 C 29.425 277.497,29.389 279.216,29.389 283.420 M222.649 286.917 C 222.649 290.052,222.687 291.299,222.732 289.688 C 222.778 288.077,222.778 285.512,222.732 283.988 C 222.686 282.464,222.649 283.782,222.649 286.917 M347.010 294.560 C 347.010 300.758,347.044 303.293,347.085 300.194 C 347.127 297.095,347.127 292.024,347.085 288.925 C 347.044 285.826,347.010 288.361,347.010 294.560 M29.390 304.663 C 29.390 309.152,29.425 310.988,29.468 308.744 C 29.512 306.499,29.512 302.827,29.468 300.583 C 29.425 298.339,29.390 300.175,29.390 304.663 M372.631 301.425 C 372.630 302.707,372.674 303.265,372.728 302.663 C 372.783 302.062,372.783 301.013,372.730 300.332 C 372.676 299.651,372.632 300.142,372.631 301.425 M67.814 332.567 C 68.136 332.629,68.602 332.626,68.850 332.561 C 69.098 332.497,68.834 332.446,68.264 332.449 C 67.694 332.452,67.492 332.505,67.814 332.567 M329.472 332.567 C 329.794 332.629,330.261 332.626,330.508 332.561 C 330.756 332.497,330.492 332.446,329.922 332.449 C 329.352 332.452,329.150 332.505,329.472 332.567 M25.508 345.596 C 25.508 352.079,25.542 354.731,25.583 351.490 C 25.624 348.248,25.624 342.944,25.583 339.702 C 25.542 336.460,25.508 339.113,25.508 345.596 M28.343 339.767 C 28.344 342.047,28.383 342.945,28.431 341.762 C 28.479 340.580,28.479 338.715,28.431 337.617 C 28.382 336.520,28.343 337.487,28.343 339.767 M28.347 352.202 C 28.347 355.052,28.385 356.253,28.431 354.871 C 28.478 353.490,28.478 351.158,28.432 349.690 C 28.385 348.222,28.347 349.352,28.347 352.202 M225.972 349.155 C 226.791 349.207,228.131 349.207,228.951 349.155 C 229.770 349.104,229.100 349.062,227.461 349.062 C 225.823 349.062,225.152 349.104,225.972 349.155 M225.453 352.006 C 226.558 352.055,228.365 352.055,229.469 352.006 C 230.573 351.957,229.670 351.918,227.461 351.918 C 225.253 351.918,224.349 351.957,225.453 352.006 "
              stroke="none" fill="#8694b4" fill-rule="evenodd"></path>
    </g>
</svg>