<svg id="svg" version="1.1" xmlns="http://www.w3.org/2000/svg" xmlns:xlink="http://www.w3.org/1999/xlink" width="400"
     height="129.03225806451613" viewBox="0, 0, 400,129.03225806451613">
    <g id="svgg">
        <path id="path0"
              d="M130.000 31.139 C 129.891 31.175,129.833 35.157,129.833 42.623 L 129.833 54.052 131.784 56.028 L 133.735 58.003 143.242 57.960 L 152.750 57.917 152.750 55.167 L 152.750 52.417 144.750 52.333 L 136.750 52.250 136.703 50.107 C 136.640 47.205,135.859 47.500,143.594 47.500 C 148.374 47.500,150.179 47.448,150.266 47.307 C 150.521 46.895,150.433 42.264,150.167 42.047 C 149.980 41.895,148.282 41.843,143.464 41.839 C 135.887 41.832,136.665 42.132,136.669 39.219 C 136.673 36.460,135.698 36.764,144.869 36.667 L 152.750 36.583 152.796 33.875 C 152.831 31.769,152.794 31.166,152.629 31.163 C 150.201 31.121,130.118 31.099,130.000 31.139 M175.070 31.153 C 175.031 31.191,175.000 36.365,175.000 42.650 L 175.000 54.078 176.956 56.039 L 178.911 58.000 187.442 58.000 C 192.134 58.000,196.091 57.954,196.236 57.899 C 196.725 57.711,196.620 52.571,196.125 52.438 C 195.919 52.383,192.700 52.337,188.972 52.336 C 185.244 52.334,182.075 52.288,181.930 52.232 C 181.694 52.141,181.667 51.053,181.667 41.649 L 181.667 31.167 181.042 31.134 C 179.809 31.070,175.138 31.085,175.070 31.153 M211.517 31.126 L 200.833 31.169 200.833 42.624 L 200.833 54.078 202.789 56.039 L 204.745 58.000 214.187 58.000 L 223.630 58.000 223.711 57.458 C 223.756 57.160,223.783 55.904,223.771 54.667 L 223.750 52.417 215.750 52.333 L 207.750 52.250 207.750 49.917 L 207.750 47.583 214.433 47.500 C 219.758 47.434,221.172 47.370,221.391 47.188 C 221.840 46.815,221.799 42.249,221.344 42.006 C 221.138 41.895,218.691 41.833,214.544 41.833 C 209.728 41.833,208.015 41.782,207.867 41.633 C 207.569 41.336,207.590 37.104,207.890 36.855 C 208.045 36.727,210.497 36.657,215.932 36.627 L 223.750 36.583 223.798 34.250 C 223.860 31.233,223.855 31.215,222.935 31.142 C 222.531 31.110,217.393 31.103,211.517 31.126 M231.707 33.081 L 229.664 35.079 229.707 46.498 L 229.750 57.917 232.917 57.917 L 236.083 57.917 236.167 54.443 C 236.246 51.136,236.267 50.956,236.610 50.679 C 237.062 50.313,246.058 50.197,246.289 50.554 C 246.359 50.662,246.454 52.362,246.500 54.333 L 246.583 57.917 249.583 57.964 C 251.233 57.990,252.752 57.970,252.958 57.919 L 253.333 57.827 253.333 46.551 L 253.333 35.275 251.229 33.180 L 249.124 31.084 241.437 31.084 L 233.750 31.083 231.707 33.081 M267.375 31.127 L 259.000 31.170 259.000 44.498 L 259.000 57.827 259.375 57.919 C 259.581 57.970,261.100 57.990,262.750 57.964 L 265.750 57.917 265.795 53.589 C 265.819 51.208,265.903 49.197,265.981 49.119 C 266.136 48.964,270.078 48.846,270.966 48.970 C 271.380 49.027,271.574 49.173,271.757 49.565 C 271.890 49.850,272.131 50.277,272.291 50.513 C 273.222 51.884,273.661 52.604,273.663 52.766 C 273.665 52.867,273.817 53.122,274.000 53.333 C 274.183 53.545,274.333 53.807,274.333 53.916 C 274.333 54.026,274.483 54.251,274.667 54.417 C 274.850 54.583,275.000 54.782,275.000 54.861 C 275.000 54.939,275.262 55.377,275.583 55.833 C 275.904 56.290,276.167 56.734,276.167 56.821 C 276.167 56.908,276.378 57.211,276.636 57.494 L 277.106 58.008 280.095 57.962 L 283.083 57.917 283.132 56.447 C 283.182 54.910,283.084 54.608,282.123 53.333 C 281.588 52.625,280.000 50.137,280.000 50.007 C 280.000 49.940,279.850 49.749,279.667 49.583 C 278.990 48.971,279.209 48.544,281.251 46.482 L 283.167 44.548 283.167 39.799 L 283.167 35.049 281.805 33.658 C 281.055 32.892,280.126 31.992,279.740 31.658 L 279.037 31.049 277.393 31.066 C 276.490 31.076,271.981 31.103,267.375 31.127 M289.255 31.133 C 289.207 31.182,289.167 37.247,289.167 44.611 L 289.167 58.000 292.236 58.000 C 293.925 58.000,295.425 57.954,295.570 57.899 C 295.804 57.809,295.833 57.035,295.833 50.888 C 295.833 46.444,295.895 43.863,296.006 43.656 C 296.236 43.225,296.610 43.248,296.853 43.708 C 297.032 44.048,298.700 46.573,299.615 47.891 C 299.816 48.180,299.985 48.508,299.990 48.619 C 299.996 48.730,300.140 48.896,300.310 48.988 C 300.481 49.079,300.715 49.382,300.831 49.660 C 300.946 49.939,301.101 50.167,301.175 50.167 C 301.248 50.167,302.173 51.460,303.230 53.042 C 306.987 58.663,306.130 58.018,309.766 57.962 L 312.750 57.917 312.793 44.542 L 312.835 31.167 310.543 31.149 C 309.282 31.139,307.912 31.116,307.500 31.098 C 307.087 31.079,306.581 31.096,306.375 31.134 L 306.000 31.203 306.000 38.091 C 306.000 44.864,305.924 45.946,305.457 45.792 C 305.260 45.726,302.770 42.194,302.549 41.667 C 302.491 41.529,302.157 41.069,301.805 40.644 C 301.454 40.218,301.167 39.812,301.167 39.741 C 301.167 39.670,301.056 39.493,300.920 39.347 C 300.225 38.604,299.833 38.101,299.833 37.951 C 299.833 37.859,299.582 37.477,299.274 37.100 C 298.966 36.724,298.661 36.248,298.596 36.042 C 298.531 35.835,298.420 35.667,298.349 35.667 C 298.278 35.667,298.133 35.476,298.027 35.244 C 297.921 35.011,297.758 34.730,297.664 34.619 C 297.268 34.151,295.402 31.674,295.232 31.391 C 295.052 31.092,289.535 30.854,289.255 31.133 M318.208 31.136 L 317.667 31.188 317.667 33.576 C 317.667 36.185,317.659 36.167,318.688 36.167 C 318.990 36.167,319.341 36.325,319.591 36.576 L 320.000 36.985 320.000 44.830 L 320.000 52.675 319.572 52.837 C 319.337 52.927,318.931 53.000,318.669 53.000 C 317.665 53.000,317.667 52.997,317.667 55.500 C 317.667 57.441,317.708 57.813,317.930 57.899 C 318.314 58.046,328.828 58.023,328.859 57.875 C 328.933 57.522,328.961 53.542,328.892 53.292 C 328.830 53.069,328.633 53.000,328.064 53.000 C 327.471 53.000,327.234 52.909,326.909 52.559 L 326.500 52.118 326.500 44.551 L 326.500 36.985 326.909 36.576 C 327.220 36.265,327.495 36.167,328.055 36.167 C 328.727 36.167,328.799 36.127,328.875 35.708 C 328.968 35.200,328.860 31.305,328.751 31.195 C 328.669 31.114,319.002 31.059,318.208 31.136 M334.542 31.122 L 333.833 31.186 333.833 44.506 L 333.833 57.827 334.208 57.919 C 334.415 57.970,335.933 57.990,337.583 57.964 L 340.583 57.917 340.627 50.757 C 340.651 46.818,340.735 43.532,340.814 43.453 C 341.010 43.257,341.664 43.897,342.393 45.000 C 343.340 46.431,343.517 46.683,344.335 47.750 C 344.757 48.300,345.907 49.962,346.891 51.444 C 347.876 52.926,348.791 54.229,348.924 54.339 C 349.057 54.450,349.167 54.633,349.167 54.745 C 349.167 54.857,349.317 55.084,349.500 55.250 C 349.683 55.416,349.833 55.627,349.833 55.720 C 349.833 55.813,349.944 56.007,350.080 56.153 C 350.821 56.945,351.167 57.405,351.167 57.600 C 351.167 57.935,352.017 58.020,354.833 57.966 L 357.417 57.917 357.459 44.560 L 357.502 31.204 356.959 31.122 C 356.117 30.995,351.201 31.077,351.057 31.221 C 350.986 31.291,350.918 34.552,350.905 38.466 C 350.891 42.381,350.870 45.640,350.857 45.708 C 350.737 46.344,349.304 44.789,347.608 42.184 C 347.035 41.303,346.420 40.367,346.241 40.102 C 346.063 39.837,345.842 39.506,345.750 39.366 C 345.658 39.227,345.471 38.980,345.333 38.817 C 345.196 38.654,344.933 38.322,344.750 38.079 C 344.567 37.835,344.290 37.511,344.136 37.357 C 343.981 37.204,343.776 36.892,343.680 36.664 C 343.583 36.436,343.171 35.800,342.763 35.250 C 342.356 34.700,342.017 34.169,342.011 34.071 C 342.005 33.972,341.813 33.715,341.583 33.500 C 341.354 33.285,341.167 33.045,341.167 32.968 C 341.167 32.586,339.878 31.196,339.438 31.102 C 338.943 30.997,335.791 31.010,334.542 31.122 M367.933 31.137 C 367.350 31.184,367.081 31.394,365.308 33.185 L 363.333 35.180 363.333 44.624 L 363.333 54.068 365.299 56.034 L 367.265 58.000 375.500 58.000 L 383.735 58.000 385.701 56.034 L 387.667 54.068 387.667 48.214 C 387.667 44.995,387.621 42.242,387.566 42.097 C 387.436 41.759,375.657 41.693,374.925 42.027 L 374.500 42.220 374.500 44.584 C 374.500 47.682,374.294 47.500,377.799 47.500 C 380.287 47.500,380.501 47.524,380.661 47.822 C 380.844 48.165,380.903 51.626,380.732 52.070 C 380.590 52.441,370.656 52.472,370.349 52.102 C 370.027 51.714,370.172 37.039,370.500 36.824 C 370.940 36.537,380.200 36.699,380.546 37.000 C 380.704 37.137,381.273 37.667,381.810 38.176 L 382.787 39.102 385.125 39.132 C 387.870 39.168,387.661 39.360,387.664 36.799 L 387.667 35.180 385.652 33.145 L 383.638 31.111 376.111 31.097 C 371.971 31.089,368.291 31.107,367.933 31.137 M246.000 36.882 L 246.417 37.093 246.462 40.734 C 246.493 43.279,246.449 44.444,246.316 44.604 C 246.020 44.961,237.350 44.937,236.655 44.577 L 236.160 44.321 236.205 40.626 L 236.250 36.931 236.667 36.816 C 237.460 36.595,245.546 36.653,246.000 36.882 M276.060 36.879 C 276.428 37.148,276.486 42.259,276.128 42.834 C 275.928 43.154,275.736 43.167,270.963 43.167 L 266.006 43.167 265.914 42.792 C 265.601 41.524,265.916 37.093,266.333 36.882 C 266.932 36.579,275.646 36.577,276.060 36.879 M157.362 42.552 C 156.884 43.061,156.801 46.721,157.264 46.899 C 157.409 46.954,160.373 47.000,163.851 47.000 L 170.175 47.000 170.348 46.545 C 170.543 46.031,170.386 42.931,170.140 42.458 C 170.000 42.189,169.527 42.167,163.857 42.167 L 157.725 42.167 157.362 42.552 M139.167 71.128 L 133.583 71.172 131.708 73.055 L 129.833 74.937 129.836 85.844 C 129.837 91.842,129.899 96.846,129.973 96.962 C 130.076 97.124,130.817 97.164,133.096 97.129 L 136.083 97.083 136.167 92.167 C 136.212 89.462,136.311 87.156,136.385 87.042 C 136.489 86.881,137.999 86.833,143.002 86.833 L 149.485 86.833 149.584 86.292 C 149.638 85.994,149.660 84.775,149.633 83.583 L 149.583 81.417 143.218 81.373 L 136.853 81.329 136.510 80.847 C 136.098 80.268,135.991 77.133,136.375 76.885 C 136.490 76.811,139.958 76.712,144.083 76.667 L 151.583 76.583 151.629 73.875 C 151.665 71.777,151.627 71.161,151.462 71.142 C 151.034 71.092,144.601 71.085,139.167 71.128 M160.292 71.144 C 160.177 71.177,159.202 72.076,158.125 73.141 L 156.167 75.078 156.167 84.181 L 156.167 93.284 157.792 94.944 C 160.200 97.403,159.175 97.167,167.414 97.167 L 174.507 97.167 175.128 96.770 C 175.470 96.551,176.444 95.653,177.292 94.773 L 178.833 93.173 178.833 84.242 C 178.833 77.922,178.778 75.209,178.645 74.959 C 178.541 74.766,177.669 73.822,176.707 72.863 L 174.958 71.118 167.729 71.100 C 163.753 71.091,160.406 71.111,160.292 71.144 M185.042 71.124 L 184.667 71.190 184.667 82.306 L 184.667 93.423 186.375 95.110 C 188.661 97.367,187.739 97.167,195.833 97.167 C 203.946 97.167,202.993 97.381,205.375 95.026 L 207.167 93.256 207.167 82.214 L 207.167 71.173 206.790 71.078 C 206.582 71.026,205.139 71.044,203.581 71.117 L 200.750 71.250 200.708 81.250 C 200.670 90.416,200.643 91.267,200.385 91.458 C 199.990 91.750,191.491 91.758,191.200 91.467 C 191.049 91.316,191.000 88.832,191.000 81.310 C 191.000 74.562,190.944 71.318,190.826 71.245 C 190.632 71.126,185.633 71.021,185.042 71.124 M213.042 71.122 C 212.726 71.232,212.749 96.458,213.065 96.875 C 213.454 97.387,219.089 97.311,219.228 96.792 C 219.284 96.585,219.330 93.482,219.331 89.895 C 219.334 82.651,219.349 82.549,220.275 83.545 C 220.934 84.255,221.972 85.618,222.541 86.523 C 222.793 86.923,223.299 87.700,223.667 88.250 C 224.034 88.800,224.541 89.577,224.792 89.977 C 225.044 90.377,225.531 91.063,225.875 91.501 C 226.219 91.939,226.500 92.376,226.500 92.473 C 226.500 92.569,226.638 92.746,226.806 92.866 C 226.974 92.985,227.330 93.421,227.596 93.833 C 227.862 94.246,228.127 94.621,228.184 94.667 C 228.240 94.712,228.403 94.975,228.546 95.250 C 228.688 95.525,229.080 96.069,229.415 96.458 L 230.026 97.167 232.670 97.167 C 234.475 97.167,235.351 97.106,235.432 96.976 C 235.605 96.695,235.506 71.273,235.331 71.165 C 235.199 71.083,232.771 71.073,230.125 71.142 L 229.167 71.167 229.167 77.980 C 229.167 86.738,229.256 86.640,225.906 81.580 C 225.044 80.277,224.224 79.117,224.086 79.002 C 223.947 78.887,223.833 78.718,223.833 78.628 C 223.833 78.537,223.547 78.115,223.197 77.690 C 222.847 77.265,222.383 76.617,222.166 76.250 C 221.949 75.883,221.617 75.387,221.428 75.148 C 221.238 74.909,220.879 74.384,220.628 73.981 C 219.982 72.942,219.784 72.651,219.500 72.324 C 219.362 72.165,219.080 71.831,218.871 71.583 L 218.493 71.130 215.871 71.090 C 214.430 71.068,213.156 71.083,213.042 71.122 M241.405 71.217 C 241.029 71.427,241.049 96.258,241.426 96.796 L 241.686 97.167 250.682 97.167 C 261.097 97.167,259.761 97.422,262.208 94.966 L 263.833 93.336 263.833 84.189 L 263.833 75.043 261.910 73.146 C 260.853 72.103,259.948 71.214,259.899 71.169 C 259.747 71.030,241.657 71.076,241.405 71.217 M273.617 71.136 C 273.350 71.188,272.095 72.381,270.458 74.136 L 269.667 74.986 269.667 85.794 C 269.667 94.199,269.713 96.667,269.876 96.889 C 270.062 97.143,270.406 97.170,273.001 97.129 L 275.917 97.083 276.011 93.417 C 276.064 91.400,276.120 89.731,276.136 89.708 C 276.257 89.542,285.462 89.695,285.633 89.867 C 285.775 90.008,285.833 91.006,285.833 93.294 C 285.833 95.200,285.904 96.654,286.006 96.844 C 286.272 97.342,291.946 97.342,292.130 96.844 C 292.196 96.666,292.212 91.658,292.167 85.715 L 292.083 74.908 290.203 73.014 L 288.322 71.120 281.107 71.102 C 277.139 71.092,273.768 71.107,273.617 71.136 M296.314 71.179 C 296.049 71.342,296.039 76.479,296.304 76.581 C 296.427 76.628,298.026 76.667,299.858 76.667 C 301.835 76.667,303.320 76.737,303.511 76.839 C 303.824 77.007,303.833 77.293,303.833 86.807 C 303.833 94.400,303.880 96.667,304.042 96.889 C 304.229 97.143,304.572 97.170,307.167 97.129 L 310.083 97.083 310.126 87.099 C 310.156 80.148,310.225 77.047,310.352 76.894 C 310.492 76.725,311.411 76.662,314.226 76.628 L 317.917 76.583 317.917 73.863 L 317.917 71.143 307.192 71.113 C 301.294 71.097,296.399 71.126,296.314 71.179 M321.370 71.137 C 320.993 71.191,320.991 71.206,321.037 73.554 L 321.083 75.917 321.818 76.015 C 323.223 76.202,323.167 75.860,323.167 84.179 C 323.167 92.283,323.183 92.167,322.041 92.167 C 321.072 92.167,321.000 92.334,321.000 94.563 C 321.000 97.402,320.506 97.167,326.468 97.167 L 331.327 97.167 331.420 96.792 C 331.471 96.585,331.491 95.479,331.465 94.333 L 331.417 92.250 330.626 92.199 C 329.547 92.130,329.583 92.419,329.583 83.901 C 329.583 75.651,329.531 76.000,330.770 76.000 L 331.500 76.000 331.500 73.599 L 331.500 71.198 330.708 71.091 C 329.947 70.988,322.150 71.027,321.370 71.137 M338.541 72.854 C 337.576 73.827,336.704 74.765,336.602 74.937 C 336.474 75.153,336.402 78.006,336.369 84.167 L 336.321 93.083 338.119 94.853 C 339.108 95.826,340.157 96.745,340.450 96.894 C 341.153 97.253,355.003 97.312,355.435 96.958 C 355.575 96.844,356.467 95.989,357.417 95.058 L 359.144 93.366 359.182 84.168 L 359.219 74.971 357.295 73.047 L 355.372 71.123 347.833 71.103 L 340.294 71.083 338.541 72.854 M365.208 71.137 L 364.833 71.190 364.833 83.902 C 364.833 99.003,364.379 97.167,368.112 97.167 C 371.713 97.167,371.333 98.015,371.333 89.966 C 371.333 82.858,371.405 82.266,372.147 83.299 C 372.295 83.506,372.698 84.040,373.042 84.487 C 373.385 84.933,373.667 85.373,373.667 85.464 C 373.667 85.556,373.783 85.676,373.925 85.730 C 374.066 85.784,374.261 86.055,374.358 86.331 C 374.454 86.607,374.594 86.833,374.669 86.833 C 374.744 86.833,375.033 87.190,375.311 87.625 C 375.590 88.060,376.028 88.722,376.284 89.095 C 376.791 89.833,376.854 89.929,377.557 91.017 C 378.042 91.767,378.969 93.118,379.205 93.417 C 380.505 95.068,380.971 95.707,381.239 96.207 C 381.708 97.079,382.045 97.167,384.917 97.167 L 387.485 97.167 387.582 96.625 C 387.635 96.327,387.657 90.459,387.631 83.585 L 387.583 71.086 384.667 71.071 C 383.063 71.062,381.619 71.120,381.458 71.200 C 381.188 71.335,381.167 71.841,381.167 78.256 L 381.167 85.167 380.761 85.167 C 380.429 85.167,380.124 84.816,379.060 83.208 C 378.347 82.131,377.723 81.212,377.673 81.167 C 377.623 81.121,377.360 80.746,377.088 80.333 C 376.816 79.921,376.496 79.471,376.376 79.333 C 375.841 78.718,375.113 77.709,374.879 77.258 C 374.738 76.988,374.521 76.664,374.395 76.538 C 374.270 76.412,373.962 75.960,373.712 75.533 C 373.462 75.106,373.157 74.643,373.035 74.503 C 372.704 74.125,370.944 71.750,370.738 71.403 C 370.568 71.117,366.667 70.929,365.208 71.137 M172.252 76.837 C 172.410 77.092,172.438 91.217,172.282 91.458 C 172.116 91.714,163.234 91.757,162.833 91.504 C 162.505 91.296,162.360 77.286,162.682 76.898 C 162.922 76.609,172.075 76.551,172.252 76.837 M257.300 76.867 C 257.641 77.207,257.582 91.061,257.238 91.405 C 256.842 91.801,247.920 91.800,247.768 91.403 C 247.629 91.042,247.639 76.917,247.778 76.778 C 247.991 76.565,257.083 76.650,257.300 76.867 M285.570 76.768 C 285.912 76.899,285.971 83.629,285.633 83.967 C 285.245 84.355,276.385 84.241,276.173 83.844 C 275.918 83.369,275.943 77.124,276.200 76.867 C 276.412 76.655,285.039 76.564,285.570 76.768 M352.511 76.839 C 352.909 77.052,353.026 91.074,352.633 91.467 C 352.348 91.752,343.485 91.752,343.200 91.467 C 342.904 91.171,342.912 76.896,343.208 76.777 C 343.627 76.608,352.186 76.665,352.511 76.839 "
              stroke="none" fill="#141414" fill-rule="evenodd"></path>
        <path id="path1"
              d="M0.000 64.500 L 0.000 129.000 200.000 129.000 L 400.000 129.000 400.000 64.500 L 400.000 0.000 200.000 0.000 L 0.000 0.000 0.000 64.500 M48.708 18.468 C 48.969 18.691,49.000 19.090,49.000 22.180 L 49.000 25.642 48.564 25.986 C 47.614 26.733,47.333 25.820,47.333 21.989 C 47.333 18.232,47.610 17.524,48.708 18.468 M38.004 18.594 C 38.348 19.497,38.207 25.460,37.833 25.833 C 37.190 26.476,36.742 26.069,36.600 24.713 C 36.448 23.262,36.603 18.930,36.821 18.522 C 37.098 18.006,37.797 18.049,38.004 18.594 M59.579 18.658 C 60.061 19.589,59.941 25.282,59.426 25.917 L 59.021 26.417 58.554 25.956 L 58.087 25.496 58.116 22.456 C 58.132 20.785,58.150 19.253,58.156 19.054 C 58.183 18.154,59.176 17.878,59.579 18.658 M63.549 28.379 L 64.000 28.674 64.000 41.062 C 64.000 49.503,63.943 53.615,63.820 53.967 C 63.536 54.783,63.173 54.823,56.441 54.791 C 48.983 54.755,49.797 54.303,49.866 58.434 L 49.917 61.452 50.566 62.184 C 50.924 62.587,51.597 63.322,52.063 63.818 C 53.355 65.193,53.781 66.365,53.245 67.074 C 53.078 67.293,53.000 67.811,53.000 68.688 L 53.000 69.978 53.686 70.448 C 54.426 70.954,54.590 71.110,55.313 72.000 C 56.153 73.033,56.376 75.255,55.758 76.418 C 55.188 77.489,54.673 78.167,54.428 78.167 C 54.309 78.167,54.033 78.303,53.814 78.469 C 52.805 79.236,51.029 79.559,50.407 79.089 C 50.229 78.954,49.951 78.842,49.788 78.839 C 49.388 78.831,47.985 77.708,47.540 77.039 C 46.190 75.007,46.999 71.648,49.083 70.629 C 49.633 70.360,50.192 70.083,50.326 70.015 C 51.052 69.641,51.477 68.760,51.592 67.392 L 51.707 66.034 50.395 64.669 C 49.674 63.917,49.054 63.216,49.019 63.110 C 48.983 63.004,48.815 62.782,48.644 62.619 C 48.362 62.348,48.333 62.020,48.331 59.035 C 48.329 55.498,48.281 55.081,47.859 54.914 C 47.707 54.854,44.330 54.781,40.355 54.753 C 33.240 54.701,33.121 54.695,32.771 54.346 C 32.427 54.001,32.414 53.825,32.324 48.121 C 32.273 44.892,32.217 42.235,32.199 42.216 C 32.181 42.197,31.885 42.133,31.542 42.074 C 31.198 42.015,30.467 41.853,29.917 41.714 C 29.367 41.575,28.504 41.400,28.000 41.325 C 27.496 41.250,26.723 41.110,26.283 41.015 C 25.540 40.853,25.434 40.873,24.802 41.295 C 20.352 44.269,20.377 44.260,18.639 43.452 C 16.463 42.441,16.306 42.472,15.656 44.045 C 15.547 44.309,15.135 44.695,14.691 44.948 C 14.265 45.191,13.804 45.482,13.667 45.595 C 13.454 45.769,12.201 45.987,11.333 45.999 C 9.099 46.032,7.167 43.846,7.167 41.287 C 7.167 40.865,7.242 40.473,7.333 40.417 C 7.425 40.360,7.500 40.142,7.500 39.932 C 7.500 38.590,10.449 36.450,11.909 36.732 C 13.163 36.975,13.977 37.284,14.481 37.708 C 14.781 37.960,15.090 38.167,15.168 38.167 C 15.247 38.167,15.362 38.335,15.425 38.542 C 15.487 38.748,15.672 39.067,15.834 39.250 C 15.997 39.433,16.179 39.812,16.238 40.092 C 16.532 41.484,20.153 42.397,21.583 41.440 C 21.950 41.195,22.390 40.902,22.561 40.789 C 22.732 40.676,23.044 40.452,23.254 40.292 C 23.464 40.131,23.708 40.000,23.795 40.000 C 23.883 40.000,24.134 39.862,24.353 39.693 C 25.102 39.114,25.099 39.114,30.000 39.998 C 32.472 40.443,32.333 40.792,32.333 34.149 L 32.333 28.694 32.753 28.389 C 33.393 27.922,62.837 27.913,63.549 28.379 M79.118 28.750 C 79.465 28.979,79.897 29.279,80.076 29.417 C 80.255 29.554,80.497 29.667,80.613 29.667 C 81.073 29.667,85.164 32.833,86.349 34.106 C 86.679 34.460,87.378 35.146,87.902 35.630 C 88.426 36.114,88.960 36.762,89.089 37.070 C 89.217 37.378,89.531 37.856,89.786 38.133 C 90.793 39.224,91.827 40.895,91.832 41.438 C 91.833 41.541,91.941 41.715,92.073 41.824 C 92.204 41.934,92.359 42.237,92.417 42.499 C 92.474 42.761,92.708 43.098,92.936 43.247 C 93.164 43.397,93.334 43.646,93.314 43.801 C 93.293 43.956,93.469 44.506,93.704 45.023 C 93.940 45.540,94.185 46.215,94.249 46.523 C 94.313 46.831,94.486 47.271,94.632 47.500 C 94.778 47.729,94.955 48.217,95.025 48.583 C 95.774 52.496,96.003 54.033,96.083 55.667 C 96.210 58.283,96.454 59.855,97.158 62.615 C 97.268 63.046,99.266 67.191,99.834 68.167 C 99.914 68.304,100.510 69.515,101.159 70.857 C 101.807 72.199,102.450 73.389,102.586 73.502 C 102.722 73.615,102.833 73.837,102.833 73.996 C 102.833 74.154,103.056 74.517,103.329 74.802 C 103.601 75.087,103.865 75.529,103.915 75.785 C 103.965 76.041,104.117 76.598,104.253 77.022 C 104.559 77.979,104.557 78.327,104.245 78.740 C 104.110 78.918,104.000 79.223,104.000 79.419 C 104.000 80.819,102.198 81.677,98.972 81.813 C 97.627 81.870,96.465 81.979,96.388 82.055 C 96.312 82.132,96.211 84.944,96.164 88.305 C 96.074 94.676,96.077 94.650,95.277 96.320 C 94.871 97.167,93.410 98.833,93.073 98.833 C 92.948 98.833,92.708 98.981,92.540 99.162 C 91.696 100.068,89.783 100.370,85.078 100.339 C 82.743 100.324,80.890 100.383,80.635 100.480 L 80.196 100.647 80.140 104.898 L 80.083 109.149 79.534 109.715 C 79.232 110.027,78.658 110.445,78.259 110.644 L 77.535 111.006 60.309 110.961 L 43.083 110.917 42.377 110.540 C 41.129 109.872,40.549 107.868,40.758 104.940 C 40.891 103.079,40.545 93.405,40.308 92.347 C 40.214 91.927,40.078 91.021,40.006 90.333 C 39.934 89.646,39.756 88.558,39.611 87.917 C 39.466 87.275,39.257 86.300,39.147 85.750 C 39.037 85.200,38.883 84.679,38.807 84.592 C 38.730 84.505,38.667 84.262,38.667 84.054 C 38.667 83.695,37.996 81.473,37.669 80.750 C 37.586 80.567,37.423 79.967,37.307 79.417 C 37.191 78.867,36.897 78.042,36.654 77.583 C 36.411 77.125,36.157 76.574,36.090 76.359 C 36.023 76.145,35.750 75.646,35.484 75.252 C 35.218 74.858,35.000 74.394,35.000 74.221 C 35.000 74.049,34.880 73.736,34.733 73.527 C 34.587 73.317,34.501 73.013,34.544 72.851 C 34.586 72.690,34.521 72.421,34.400 72.255 C 34.109 71.857,34.382 71.333,34.881 71.333 C 35.288 71.333,36.167 72.162,36.167 72.546 C 36.167 72.679,36.305 72.967,36.475 73.186 C 36.645 73.404,36.940 74.071,37.132 74.667 C 37.323 75.262,37.784 76.350,38.156 77.083 C 38.528 77.817,38.832 78.588,38.833 78.798 C 38.833 79.008,38.983 79.474,39.167 79.833 C 39.350 80.193,39.500 80.684,39.500 80.926 C 39.500 81.168,39.604 81.564,39.731 81.808 C 39.859 82.051,40.058 82.662,40.174 83.167 C 40.289 83.671,40.446 84.196,40.523 84.333 C 40.735 84.718,41.172 86.932,41.327 88.417 C 41.404 89.150,41.583 90.200,41.726 90.750 C 42.085 92.135,42.346 96.277,42.477 102.667 C 42.597 108.552,42.606 108.609,43.561 109.062 C 44.437 109.477,76.563 109.477,77.504 109.061 C 78.628 108.566,78.667 108.384,78.667 103.652 C 78.667 99.555,78.677 99.427,79.029 99.052 L 79.391 98.667 84.193 98.667 C 89.062 98.667,89.882 98.588,91.255 97.992 C 92.416 97.487,94.150 95.419,94.161 94.525 C 94.164 94.310,94.272 93.897,94.401 93.609 C 94.582 93.202,94.657 91.701,94.730 86.982 C 94.850 79.318,94.462 80.137,98.000 80.083 C 102.143 80.021,102.574 79.827,102.560 78.029 C 102.553 77.036,102.478 76.787,101.859 75.713 C 101.478 75.052,101.167 74.392,101.167 74.248 C 101.167 74.104,101.032 73.783,100.868 73.535 C 100.347 72.745,100.170 72.433,99.845 71.727 C 99.670 71.347,99.446 70.987,99.347 70.925 C 99.248 70.864,99.167 70.644,99.167 70.436 C 99.167 70.228,98.976 69.879,98.743 69.660 C 98.510 69.441,98.083 68.772,97.795 68.173 C 97.507 67.573,97.197 66.984,97.105 66.863 C 96.879 66.563,96.168 64.801,96.167 64.539 C 96.167 64.422,95.972 63.955,95.734 63.500 C 95.328 62.723,95.231 62.264,94.667 58.455 C 94.575 57.835,94.500 56.935,94.500 56.455 C 94.501 55.042,94.020 51.461,93.668 50.250 C 93.588 49.975,93.433 49.413,93.323 49.000 C 92.735 46.798,90.047 40.667,89.669 40.667 C 89.598 40.667,89.226 40.186,88.843 39.599 C 88.036 38.360,87.481 37.690,86.042 36.215 C 85.469 35.628,85.000 35.083,85.000 35.004 C 85.000 34.925,84.738 34.699,84.418 34.501 C 84.097 34.303,83.779 34.050,83.709 33.940 C 83.542 33.673,81.123 31.853,80.119 31.238 C 79.120 30.628,78.219 30.090,77.625 29.752 C 76.804 29.285,77.129 28.352,78.118 28.338 C 78.320 28.336,78.770 28.521,79.118 28.750 M29.356 29.814 C 29.826 29.899,30.014 30.714,29.652 31.099 C 29.279 31.496,29.241 31.500,26.047 31.500 L 22.818 31.500 22.378 31.060 L 21.938 30.620 22.427 30.183 L 22.917 29.746 26.083 29.771 C 27.825 29.784,29.298 29.804,29.356 29.814 M36.000 29.833 L 34.250 29.917 34.207 41.258 C 34.171 50.867,34.201 52.649,34.402 52.925 C 34.635 53.243,34.927 53.249,47.927 53.220 C 62.339 53.188,61.939 53.208,62.114 52.539 C 62.311 51.786,62.271 30.205,62.073 30.006 C 61.890 29.824,39.340 29.674,36.000 29.833 M73.851 30.099 C 74.282 30.490,74.247 30.909,73.756 31.231 C 72.998 31.728,67.672 31.621,67.182 31.099 C 66.764 30.654,67.019 29.924,67.638 29.795 C 68.623 29.588,73.553 29.830,73.851 30.099 M153.005 31.177 C 153.302 31.731,153.152 36.803,152.833 37.004 C 152.685 37.097,149.398 37.163,144.787 37.164 L 136.990 37.167 137.037 39.208 L 137.083 41.250 143.805 41.333 C 150.215 41.413,150.538 41.432,150.764 41.740 C 151.076 42.168,151.108 47.325,150.800 47.633 C 150.651 47.782,148.866 47.833,143.795 47.833 L 136.990 47.833 137.037 49.958 L 137.083 52.083 144.991 52.127 C 151.061 52.160,152.930 52.218,153.033 52.377 C 153.220 52.665,153.173 57.677,152.980 58.038 C 152.831 58.315,152.236 58.333,143.140 58.333 L 133.459 58.333 131.521 56.422 L 129.583 54.511 129.538 42.902 C 129.505 34.383,129.544 31.231,129.684 31.063 C 130.049 30.622,152.768 30.733,153.005 31.177 M181.790 30.970 C 181.951 31.072,182.007 33.454,182.040 41.592 L 182.083 52.083 189.318 52.127 C 193.298 52.151,196.635 52.238,196.735 52.320 C 196.859 52.423,196.890 53.383,196.833 55.360 L 196.750 58.250 187.708 58.293 L 178.667 58.336 176.855 56.543 C 175.859 55.557,174.922 54.565,174.772 54.338 C 174.418 53.802,174.349 31.384,174.700 31.033 C 174.929 30.804,181.437 30.746,181.790 30.970 M223.962 33.811 C 223.994 35.805,223.949 36.778,223.817 36.936 C 223.659 37.126,222.257 37.167,215.813 37.167 L 208.000 37.167 208.000 39.248 L 208.000 41.330 214.958 41.373 L 221.917 41.417 221.962 44.395 C 221.994 46.450,221.949 47.444,221.817 47.603 C 221.660 47.792,220.404 47.833,214.813 47.833 L 208.000 47.833 208.000 49.998 L 208.000 52.163 215.958 52.207 L 223.917 52.250 223.917 55.238 L 223.917 58.226 223.500 58.321 C 223.271 58.374,218.870 58.379,213.721 58.333 L 204.358 58.250 202.429 56.323 L 200.500 54.395 200.500 42.712 C 200.500 33.521,200.544 31.010,200.708 30.943 C 200.823 30.897,206.092 30.872,212.417 30.888 L 223.917 30.917 223.962 33.811 M250.709 32.167 C 251.405 32.900,252.055 33.500,252.154 33.500 C 252.252 33.500,252.333 33.574,252.333 33.665 C 252.333 33.755,252.633 34.111,253.000 34.456 L 253.666 35.083 253.666 46.615 C 253.667 55.115,253.616 58.178,253.475 58.265 C 253.169 58.455,246.618 58.334,246.378 58.134 C 246.220 58.003,246.167 57.101,246.167 54.566 C 246.167 50.502,246.836 50.974,241.167 51.036 L 236.917 51.083 236.872 54.524 C 236.834 57.437,236.786 57.999,236.560 58.186 C 236.158 58.519,229.910 58.422,229.379 58.074 L 229.000 57.826 229.000 46.507 L 229.000 35.188 231.110 33.099 C 232.271 31.950,233.302 30.976,233.402 30.935 C 233.502 30.893,237.152 30.854,241.514 30.846 L 249.445 30.833 250.709 32.167 M281.373 32.625 C 283.844 35.054,283.673 34.526,283.661 39.687 C 283.649 44.923,283.774 44.528,281.376 46.889 L 279.542 48.696 281.428 51.524 C 283.487 54.612,283.609 54.886,283.656 56.533 C 283.709 58.406,283.852 58.333,280.092 58.333 L 276.863 58.333 276.431 57.821 C 276.194 57.539,276.000 57.244,276.000 57.166 C 276.000 57.088,275.906 56.923,275.792 56.799 C 275.398 56.374,274.880 55.576,274.767 55.221 C 274.705 55.024,274.551 54.825,274.426 54.777 C 274.301 54.729,274.148 54.459,274.086 54.178 C 274.024 53.897,273.901 53.667,273.812 53.667 C 273.723 53.667,273.539 53.423,273.403 53.125 C 273.138 52.545,272.882 52.129,272.067 50.964 C 271.783 50.558,271.503 50.034,271.444 49.799 C 271.297 49.212,268.062 48.864,266.542 49.272 L 266.167 49.372 266.167 53.666 C 266.167 57.033,266.119 57.999,265.945 58.143 C 265.687 58.357,259.204 58.479,258.875 58.276 C 258.570 58.087,258.570 31.067,258.875 30.944 C 258.990 30.897,263.688 30.854,269.317 30.846 L 279.550 30.833 281.373 32.625 M295.781 31.515 C 296.039 31.890,296.419 32.388,296.625 32.623 C 296.831 32.857,297.000 33.150,297.000 33.274 C 297.000 33.398,297.104 33.500,297.231 33.500 C 297.357 33.500,297.506 33.631,297.560 33.792 C 297.614 33.952,297.918 34.421,298.235 34.833 C 298.552 35.246,298.816 35.648,298.822 35.726 C 298.832 35.849,299.091 36.205,299.836 37.118 C 299.926 37.229,300.000 37.384,300.000 37.464 C 300.000 37.543,300.335 38.053,300.745 38.596 C 301.155 39.139,301.602 39.733,301.738 39.917 C 301.874 40.100,302.177 40.486,302.410 40.774 C 302.643 41.062,302.833 41.375,302.833 41.469 C 302.833 41.562,302.891 41.664,302.962 41.694 C 303.033 41.725,303.624 42.553,304.275 43.534 C 304.926 44.516,305.506 45.272,305.563 45.215 C 305.620 45.158,305.667 41.944,305.667 38.073 C 305.667 31.810,305.696 31.025,305.930 30.934 C 306.706 30.637,312.820 30.831,312.996 31.159 C 313.270 31.671,313.224 57.691,312.949 58.067 C 312.764 58.320,312.373 58.356,309.680 58.368 L 306.621 58.382 306.186 57.857 C 305.946 57.569,305.620 57.164,305.461 56.958 C 305.302 56.752,304.938 56.283,304.653 55.917 C 304.368 55.550,304.019 55.025,303.877 54.750 C 303.736 54.475,303.574 54.212,303.517 54.167 C 303.257 53.955,302.536 52.878,302.429 52.542 C 302.364 52.335,302.253 52.167,302.182 52.167 C 302.111 52.167,301.967 51.976,301.861 51.744 C 301.656 51.294,301.581 51.190,300.921 50.434 C 300.690 50.169,300.500 49.901,300.500 49.839 C 300.500 49.777,300.270 49.469,299.989 49.155 C 299.708 48.841,299.390 48.425,299.281 48.232 C 299.172 48.038,298.860 47.551,298.587 47.148 C 298.314 46.746,298.014 46.292,297.920 46.140 C 297.827 45.987,297.506 45.515,297.208 45.090 C 296.910 44.664,296.667 44.239,296.667 44.144 C 296.667 44.050,296.573 44.003,296.458 44.042 C 296.297 44.095,296.240 45.689,296.204 51.093 C 296.179 54.933,296.095 58.138,296.019 58.215 C 295.723 58.510,289.104 58.358,288.875 58.050 C 288.578 57.650,288.570 31.330,288.867 31.033 C 289.008 30.892,289.983 30.833,292.189 30.833 L 295.312 30.833 295.781 31.515 M329.129 33.545 C 329.184 36.653,329.137 36.796,328.041 36.866 L 327.250 36.917 327.207 44.466 C 327.159 52.819,327.153 52.769,328.110 52.589 C 329.113 52.401,329.167 52.550,329.167 55.511 C 329.167 56.961,329.104 58.186,329.027 58.233 C 328.672 58.453,317.622 58.364,317.481 58.141 C 317.319 57.887,317.279 53.335,317.434 52.930 C 317.505 52.747,317.752 52.667,318.247 52.667 C 319.386 52.667,319.341 53.009,319.293 44.564 L 319.250 36.917 318.500 36.867 C 318.047 36.837,317.667 36.709,317.542 36.544 C 317.254 36.165,317.248 31.318,317.535 31.031 C 317.688 30.879,319.138 30.840,323.410 30.873 L 329.083 30.917 329.129 33.545 M340.302 31.208 C 340.864 31.765,342.665 34.221,342.666 34.433 C 342.666 34.533,342.825 34.758,343.019 34.933 C 343.213 35.107,343.439 35.400,343.522 35.583 C 343.737 36.062,344.962 37.844,345.530 38.505 C 345.982 39.031,347.167 40.656,347.167 40.750 C 347.167 40.804,347.467 41.254,347.833 41.750 C 348.200 42.246,348.500 42.725,348.500 42.814 C 348.500 42.903,348.596 43.075,348.714 43.196 C 348.832 43.318,349.182 43.773,349.493 44.208 C 349.803 44.644,350.119 45.000,350.195 45.000 C 350.271 45.000,350.333 41.890,350.333 38.089 C 350.333 31.303,350.339 31.175,350.673 30.996 C 351.235 30.696,357.803 30.849,358.004 31.167 C 358.286 31.614,358.214 57.704,357.930 58.093 C 357.710 58.395,357.489 58.415,354.695 58.389 C 351.274 58.357,351.338 58.377,350.333 57.006 C 349.921 56.442,349.415 55.787,349.208 55.550 C 349.002 55.312,348.832 55.035,348.829 54.934 C 348.827 54.833,348.565 54.460,348.246 54.107 C 347.927 53.753,347.667 53.402,347.667 53.327 C 347.667 53.252,347.568 53.091,347.448 52.970 C 347.279 52.799,345.349 49.967,343.750 47.540 C 343.658 47.401,343.407 47.091,343.192 46.852 C 342.710 46.315,341.940 45.184,341.789 44.792 C 341.650 44.428,341.236 44.411,341.101 44.764 C 341.046 44.909,341.000 47.937,341.000 51.493 C 341.000 56.464,340.952 57.999,340.792 58.130 C 340.542 58.335,334.015 58.472,333.708 58.278 C 333.544 58.175,333.500 55.254,333.500 44.587 C 333.500 33.896,333.544 31.010,333.708 30.944 C 334.491 30.628,339.937 30.846,340.302 31.208 M385.950 32.914 L 388.040 34.995 387.972 37.039 C 387.884 39.700,388.111 39.500,385.172 39.500 L 382.697 39.500 381.730 38.586 C 380.181 37.121,380.345 37.155,375.136 37.206 L 370.583 37.250 370.583 44.667 L 370.583 52.083 375.500 52.083 L 380.417 52.083 380.417 50.000 L 380.417 47.917 377.512 47.871 C 373.867 47.814,374.167 48.101,374.167 44.656 C 374.167 40.950,373.347 41.333,381.271 41.333 L 387.634 41.333 387.811 41.841 C 388.031 42.472,388.069 53.631,387.853 54.199 C 387.713 54.566,384.069 58.331,383.849 58.335 C 383.429 58.343,369.757 58.349,368.575 58.342 L 367.068 58.333 365.124 56.397 C 362.743 54.024,362.971 55.378,363.033 43.983 L 363.083 34.883 365.115 32.858 L 367.146 30.833 375.503 30.833 L 383.860 30.833 385.950 32.914 M58.204 33.042 L 58.593 33.417 58.505 38.775 C 58.410 44.555,58.345 44.936,57.496 44.714 C 56.823 44.538,56.794 44.328,56.772 39.459 C 56.760 36.869,56.689 34.656,56.615 34.542 C 56.418 34.238,39.582 34.238,39.385 34.542 C 39.311 34.656,39.212 36.861,39.167 39.441 C 39.091 43.723,39.056 44.163,38.771 44.477 C 38.371 44.919,37.508 44.567,37.488 43.954 C 37.405 41.388,37.530 33.236,37.655 33.111 C 38.006 32.761,39.432 32.704,48.449 32.686 L 57.815 32.667 58.204 33.042 M236.944 37.278 C 236.678 37.544,236.822 44.294,237.097 44.399 C 237.535 44.567,245.280 44.512,245.739 44.337 L 246.167 44.175 246.167 40.947 C 246.167 38.031,246.137 37.692,245.862 37.442 C 245.547 37.157,237.219 37.003,236.944 37.278 M266.445 37.469 C 266.117 37.831,266.024 42.225,266.339 42.420 C 266.488 42.512,268.393 42.532,274.713 42.505 L 276.008 42.500 275.963 39.875 L 275.917 37.250 271.320 37.206 C 267.032 37.164,266.704 37.182,266.445 37.469 M11.917 38.500 C 11.733 38.579,11.332 38.649,11.025 38.655 C 10.277 38.671,9.073 39.907,8.919 40.818 C 8.625 42.561,10.142 44.500,11.801 44.500 C 14.904 44.500,15.897 40.029,13.095 38.673 C 12.315 38.295,12.374 38.303,11.917 38.500 M73.862 40.942 C 74.030 41.094,74.167 41.342,74.167 41.492 C 74.167 42.107,73.850 42.167,70.583 42.167 C 67.243 42.167,67.000 42.116,67.000 41.417 C 67.000 40.720,67.248 40.667,70.479 40.667 C 73.109 40.667,73.601 40.707,73.862 40.942 M170.591 42.242 C 170.983 42.635,171.000 42.740,171.000 44.818 L 171.000 46.984 170.375 47.158 C 169.697 47.346,158.117 47.372,157.250 47.187 L 156.750 47.080 156.702 44.749 C 156.637 41.523,155.884 41.833,163.776 41.833 L 170.182 41.833 170.591 42.242 M54.066 47.489 C 54.978 47.705,55.207 48.316,54.573 48.842 C 54.393 48.992,46.575 49.096,42.292 49.006 C 41.458 48.989,41.094 47.969,41.792 47.603 C 42.331 47.320,52.932 47.222,54.066 47.489 M29.812 52.069 C 30.220 52.922,29.902 53.001,26.093 52.995 C 22.637 52.989,22.167 52.904,22.167 52.283 C 22.167 51.597,22.745 51.491,26.248 51.538 L 29.579 51.583 29.812 52.069 M73.844 51.673 C 74.205 51.865,74.273 52.494,73.967 52.800 C 73.825 52.942,72.837 53.000,70.583 53.000 C 67.243 53.000,67.000 52.949,67.000 52.250 C 67.000 51.554,67.249 51.500,70.461 51.500 C 72.252 51.500,73.656 51.572,73.844 51.673 M37.973 57.425 C 38.098 57.699,38.167 58.964,38.167 61.000 C 38.167 63.036,38.098 64.301,37.973 64.575 C 37.728 65.114,37.090 65.146,36.816 64.633 C 36.543 64.124,36.598 57.772,36.879 57.322 C 37.167 56.861,37.741 56.914,37.973 57.425 M59.509 57.375 C 60.055 58.029,59.987 64.059,59.426 64.750 L 59.021 65.250 58.558 64.794 L 58.095 64.338 58.092 61.016 C 58.089 57.107,58.470 56.129,59.509 57.375 M152.011 71.006 C 152.467 71.250,152.509 76.313,152.058 76.688 C 151.835 76.873,150.344 76.926,144.308 76.965 L 136.833 77.013 136.833 78.684 C 136.833 81.248,136.131 81.000,143.389 81.000 C 147.998 81.000,149.652 81.052,149.800 81.200 C 149.970 81.370,150.120 86.894,149.958 87.037 C 149.935 87.057,146.992 87.113,143.417 87.162 L 136.917 87.250 136.872 92.153 C 136.843 95.430,136.767 97.129,136.644 97.278 C 136.307 97.684,129.894 97.592,129.673 97.178 C 129.559 96.965,129.500 93.123,129.500 85.867 L 129.500 74.879 129.963 74.315 C 130.218 74.004,131.094 73.094,131.909 72.292 L 133.392 70.833 142.540 70.833 C 148.528 70.833,151.800 70.893,152.011 71.006 M177.273 72.936 L 179.333 75.039 179.333 84.151 L 179.333 93.262 177.224 95.381 L 175.114 97.500 167.423 97.500 L 159.732 97.500 157.783 95.526 L 155.833 93.552 155.833 84.171 L 155.833 74.789 157.794 72.811 L 159.755 70.833 167.484 70.833 L 175.212 70.833 177.273 72.936 M191.133 71.033 C 191.284 71.184,191.333 73.609,191.333 80.924 C 191.333 90.562,191.335 90.617,191.684 90.933 C 192.281 91.473,199.365 91.518,199.933 90.985 L 200.333 90.609 200.333 80.822 C 200.333 72.052,200.361 71.025,200.597 70.934 C 201.217 70.697,207.302 70.826,207.558 71.082 C 207.775 71.299,207.796 72.732,207.725 82.374 L 207.642 93.417 205.574 95.458 L 203.506 97.500 195.816 97.500 L 188.126 97.500 186.383 95.792 C 185.425 94.852,184.534 93.881,184.404 93.633 C 184.082 93.022,184.046 71.354,184.367 71.033 C 184.508 70.892,185.496 70.833,187.750 70.833 C 190.004 70.833,190.992 70.892,191.133 71.033 M219.125 71.235 C 219.331 71.452,219.500 71.697,219.500 71.778 C 219.500 71.859,219.631 72.048,219.792 72.197 C 219.952 72.346,220.271 72.743,220.500 73.080 C 220.729 73.416,221.148 74.008,221.432 74.396 C 221.715 74.783,222.161 75.471,222.424 75.925 C 222.686 76.379,222.956 76.789,223.024 76.837 C 223.232 76.984,224.000 78.172,224.000 78.346 C 224.000 78.436,224.111 78.553,224.246 78.605 C 224.474 78.692,226.157 81.104,227.748 83.624 C 228.644 85.043,228.667 84.900,228.667 77.768 C 228.667 72.908,228.718 71.182,228.867 71.033 C 229.124 70.776,235.369 70.751,235.844 71.006 C 236.243 71.219,236.363 96.904,235.967 97.300 C 235.826 97.441,234.873 97.500,232.746 97.500 C 229.339 97.500,229.626 97.603,228.575 96.000 C 228.305 95.587,228.025 95.175,227.954 95.083 C 227.883 94.992,227.586 94.542,227.294 94.083 C 227.002 93.625,226.666 93.190,226.548 93.117 C 226.430 93.043,226.333 92.891,226.333 92.779 C 226.333 92.666,226.085 92.313,225.783 91.995 C 225.480 91.677,225.022 91.053,224.766 90.608 C 224.509 90.163,224.157 89.657,223.983 89.483 C 223.809 89.309,223.667 89.054,223.667 88.917 C 223.667 88.779,223.597 88.667,223.511 88.667 C 223.426 88.667,223.308 88.517,223.250 88.334 C 223.192 88.152,223.054 87.908,222.944 87.793 C 222.833 87.678,222.464 87.171,222.124 86.667 C 219.577 82.896,219.758 82.596,219.715 90.652 C 219.688 95.812,219.635 97.251,219.465 97.358 C 218.945 97.688,213.021 97.521,212.667 97.167 C 212.251 96.751,212.129 71.110,212.542 70.944 C 213.357 70.615,218.764 70.854,219.125 71.235 M262.039 72.625 C 263.041 73.610,263.936 74.555,264.028 74.724 C 264.232 75.100,264.222 93.265,264.017 93.630 C 263.941 93.765,263.065 94.691,262.070 95.688 L 260.260 97.500 250.809 97.500 L 241.358 97.500 241.012 97.061 C 240.593 96.528,240.453 71.447,240.867 71.033 C 241.018 70.882,243.417 70.833,250.642 70.833 L 260.216 70.833 262.039 72.625 M290.509 72.751 C 291.555 73.806,292.462 74.810,292.526 74.981 C 292.703 75.460,292.674 96.625,292.496 97.094 L 292.342 97.500 289.121 97.500 C 285.138 97.500,285.500 97.847,285.500 94.034 C 285.500 91.430,285.457 90.895,285.212 90.481 L 284.925 89.995 280.671 90.039 L 276.417 90.083 276.333 93.583 C 276.287 95.508,276.189 97.177,276.115 97.292 C 276.015 97.446,275.168 97.500,272.835 97.500 L 269.689 97.500 269.345 97.016 C 268.847 96.317,268.797 75.259,269.292 74.808 C 269.452 74.662,270.371 73.714,271.333 72.703 L 273.083 70.863 280.845 70.848 L 288.607 70.833 290.509 72.751 M318.318 71.065 C 318.534 71.325,318.484 76.571,318.265 76.791 C 318.196 76.860,316.421 76.942,314.320 76.972 L 310.500 77.027 310.500 87.064 C 310.500 94.647,310.451 97.149,310.300 97.300 C 309.920 97.680,303.950 97.572,303.594 97.178 C 303.323 96.880,303.300 96.125,303.276 86.928 C 303.259 80.435,303.192 77.001,303.083 77.004 C 301.420 77.039,295.851 76.864,295.702 76.772 C 295.341 76.549,295.424 71.228,295.792 71.013 C 296.288 70.724,318.077 70.774,318.318 71.065 M331.800 71.033 C 331.936 71.170,332.000 71.967,332.000 73.533 C 332.000 76.196,331.866 76.500,330.686 76.500 C 329.805 76.500,329.838 76.202,329.836 84.195 C 329.833 92.130,329.772 91.667,330.818 91.667 C 331.977 91.667,332.000 91.724,332.000 94.583 C 332.000 96.319,331.938 97.162,331.800 97.300 C 331.450 97.650,321.106 97.579,320.812 97.224 C 320.503 96.852,320.483 92.284,320.788 91.978 C 320.901 91.866,321.314 91.731,321.705 91.678 L 322.417 91.583 322.417 84.083 L 322.417 76.583 321.667 76.534 C 321.214 76.504,320.834 76.376,320.708 76.210 C 320.423 75.835,320.416 71.318,320.700 71.033 C 320.986 70.747,331.514 70.747,331.800 71.033 M357.612 72.708 L 359.499 74.583 359.499 84.075 L 359.500 93.567 357.500 95.533 L 355.500 97.500 347.930 97.500 L 340.359 97.500 338.180 95.385 L 336.000 93.270 336.001 84.177 C 336.002 73.927,335.872 74.933,337.394 73.454 C 337.839 73.021,338.271 72.667,338.352 72.667 C 338.433 72.667,338.500 72.580,338.500 72.473 C 338.500 72.367,338.855 71.955,339.288 71.557 L 340.076 70.833 347.901 70.833 L 355.726 70.833 357.612 72.708 M371.281 71.515 C 371.539 71.890,371.919 72.388,372.125 72.623 C 372.331 72.857,372.500 73.109,372.500 73.182 C 372.500 73.256,372.695 73.526,372.933 73.783 C 373.464 74.356,374.333 75.629,374.333 75.833 C 374.333 75.916,374.432 76.043,374.553 76.117 C 374.674 76.190,375.017 76.681,375.315 77.208 C 375.614 77.735,375.922 78.167,376.001 78.167 C 376.080 78.167,376.196 78.335,376.259 78.542 C 376.323 78.748,376.497 79.045,376.646 79.202 C 376.795 79.359,377.047 79.659,377.207 79.868 C 377.366 80.078,377.685 80.475,377.915 80.750 C 378.145 81.025,378.333 81.344,378.333 81.458 C 378.333 81.573,378.399 81.667,378.480 81.667 C 378.560 81.667,378.719 81.892,378.833 82.167 C 378.947 82.442,379.090 82.667,379.152 82.667 C 379.213 82.667,379.512 83.078,379.817 83.581 C 380.122 84.084,380.438 84.455,380.519 84.405 C 380.601 84.354,380.667 81.388,380.667 77.773 C 380.667 72.909,380.718 71.182,380.867 71.033 C 381.251 70.649,387.616 70.761,387.827 71.156 C 388.017 71.511,388.042 96.033,387.854 96.917 L 387.747 97.417 384.748 97.458 C 383.099 97.481,381.675 97.443,381.583 97.375 C 381.312 97.173,380.500 95.916,380.500 95.699 C 380.500 95.590,380.438 95.500,380.361 95.500 C 380.285 95.500,379.970 95.110,379.661 94.633 C 379.352 94.156,378.983 93.640,378.841 93.486 C 378.408 93.016,377.992 92.455,377.442 91.601 C 377.153 91.152,376.654 90.393,376.333 89.915 C 376.012 89.437,375.544 88.737,375.292 88.359 C 375.040 87.982,374.833 87.605,374.833 87.522 C 374.833 87.440,374.646 87.249,374.417 87.099 C 374.188 86.949,374.000 86.709,374.000 86.567 C 374.000 86.095,371.932 83.649,371.803 83.969 C 371.741 84.123,371.685 87.141,371.678 90.675 C 371.670 95.437,371.615 97.152,371.467 97.300 C 371.184 97.582,364.982 97.582,364.700 97.300 C 364.482 97.082,364.395 71.161,364.611 70.944 C 364.672 70.883,366.092 70.833,367.767 70.833 L 370.812 70.833 371.281 71.515 M49.930 72.064 C 47.668 73.433,48.307 77.085,50.870 77.436 C 52.464 77.655,54.201 76.714,54.259 75.601 C 54.270 75.408,54.336 75.070,54.408 74.851 C 55.083 72.779,51.960 70.835,49.930 72.064 M250.875 76.962 L 248.000 77.008 248.000 84.171 L 248.000 91.333 252.144 91.333 C 256.084 91.333,256.310 91.316,256.728 90.988 L 257.167 90.642 257.164 84.030 C 257.163 80.392,257.106 77.329,257.037 77.221 C 256.887 76.985,254.855 76.899,250.875 76.962 M162.938 83.865 L 162.959 90.730 163.331 91.032 C 163.859 91.460,171.481 91.495,171.905 91.071 C 172.134 90.842,172.167 89.960,172.167 83.905 L 172.167 77.000 167.542 77.000 L 162.917 77.000 162.938 83.865 M276.372 80.375 L 276.417 83.750 280.631 83.795 C 286.044 83.852,285.500 84.248,285.500 80.244 L 285.500 77.000 280.913 77.000 L 276.326 77.000 276.372 80.375 M343.333 83.844 C 343.333 88.297,343.394 90.803,343.508 91.015 C 343.675 91.326,343.875 91.341,347.849 91.327 L 352.016 91.314 352.175 90.896 C 352.266 90.656,352.333 87.605,352.333 83.739 L 352.333 77.000 347.833 77.000 L 343.333 77.000 343.333 83.844 "
              stroke="none" fill="none" fill-rule="evenodd"></path>
        <path id="path2"
              d="M47.679 18.482 C 47.360 18.931,47.333 19.198,47.333 21.989 C 47.333 25.820,47.614 26.733,48.564 25.986 L 49.000 25.642 49.000 22.180 C 49.000 19.090,48.969 18.691,48.708 18.468 C 48.154 17.992,48.027 17.994,47.679 18.482 M36.821 18.522 C 36.603 18.930,36.448 23.262,36.600 24.713 C 36.742 26.069,37.190 26.476,37.833 25.833 C 38.207 25.460,38.348 19.497,38.004 18.594 C 37.797 18.049,37.098 18.006,36.821 18.522 M58.429 18.429 C 58.285 18.573,58.162 18.854,58.156 19.054 C 58.150 19.253,58.132 20.785,58.116 22.456 L 58.087 25.496 58.554 25.956 L 59.021 26.417 59.426 25.917 C 59.941 25.282,60.061 19.589,59.579 18.658 C 59.297 18.113,58.836 18.021,58.429 18.429 M32.753 28.389 L 32.333 28.694 32.333 34.149 C 32.333 40.792,32.472 40.443,30.000 39.998 C 25.099 39.114,25.102 39.114,24.353 39.693 C 24.134 39.862,23.883 40.000,23.795 40.000 C 23.708 40.000,23.464 40.131,23.254 40.292 C 23.044 40.452,22.732 40.676,22.561 40.789 C 22.390 40.902,21.950 41.195,21.583 41.440 C 20.153 42.397,16.532 41.484,16.238 40.092 C 16.179 39.812,15.997 39.433,15.834 39.250 C 15.672 39.067,15.487 38.748,15.425 38.542 C 15.362 38.335,15.247 38.167,15.168 38.167 C 15.090 38.167,14.781 37.960,14.481 37.708 C 13.977 37.284,13.163 36.975,11.909 36.732 C 10.449 36.450,7.500 38.590,7.500 39.932 C 7.500 40.142,7.425 40.360,7.333 40.417 C 7.242 40.473,7.167 40.865,7.167 41.287 C 7.167 43.846,9.099 46.032,11.333 45.999 C 12.201 45.987,13.454 45.769,13.667 45.595 C 13.804 45.482,14.265 45.191,14.691 44.948 C 15.135 44.695,15.547 44.309,15.656 44.045 C 16.306 42.472,16.463 42.441,18.639 43.452 C 20.377 44.260,20.352 44.269,24.802 41.295 C 25.434 40.873,25.540 40.853,26.283 41.015 C 26.723 41.110,27.496 41.250,28.000 41.325 C 28.504 41.400,29.367 41.575,29.917 41.714 C 30.467 41.853,31.198 42.015,31.542 42.074 C 31.885 42.133,32.181 42.197,32.199 42.216 C 32.217 42.235,32.273 44.892,32.324 48.121 C 32.414 53.825,32.427 54.001,32.771 54.346 C 33.121 54.695,33.240 54.701,40.355 54.753 C 44.330 54.781,47.707 54.854,47.859 54.914 C 48.281 55.081,48.329 55.498,48.331 59.035 C 48.333 62.020,48.362 62.348,48.644 62.619 C 48.815 62.782,48.983 63.004,49.019 63.110 C 49.054 63.216,49.674 63.917,50.395 64.669 L 51.707 66.034 51.592 67.392 C 51.477 68.760,51.052 69.641,50.326 70.015 C 50.192 70.083,49.633 70.360,49.083 70.629 C 46.999 71.648,46.190 75.007,47.540 77.039 C 47.985 77.708,49.388 78.831,49.788 78.839 C 49.951 78.842,50.229 78.954,50.407 79.089 C 51.029 79.559,52.805 79.236,53.814 78.469 C 54.033 78.303,54.309 78.167,54.428 78.167 C 54.673 78.167,55.188 77.489,55.758 76.418 C 56.376 75.255,56.153 73.033,55.313 72.000 C 54.590 71.110,54.426 70.954,53.686 70.448 L 53.000 69.978 53.000 68.688 C 53.000 67.811,53.078 67.293,53.245 67.074 C 53.781 66.365,53.355 65.193,52.063 63.818 C 51.597 63.322,50.924 62.587,50.566 62.184 L 49.917 61.452 49.866 58.434 C 49.797 54.303,48.983 54.755,56.441 54.791 C 63.173 54.823,63.536 54.783,63.820 53.967 C 63.943 53.615,64.000 49.503,64.000 41.062 L 64.000 28.674 63.549 28.379 C 62.837 27.913,33.393 27.922,32.753 28.389 M77.458 28.513 C 77.003 28.779,77.093 29.450,77.625 29.752 C 78.219 30.090,79.120 30.628,80.119 31.238 C 81.123 31.853,83.542 33.673,83.709 33.940 C 83.779 34.050,84.097 34.303,84.418 34.501 C 84.738 34.699,85.000 34.925,85.000 35.004 C 85.000 35.083,85.469 35.628,86.042 36.215 C 87.481 37.690,88.036 38.360,88.843 39.599 C 89.226 40.186,89.598 40.667,89.669 40.667 C 90.047 40.667,92.735 46.798,93.323 49.000 C 93.433 49.413,93.588 49.975,93.668 50.250 C 94.020 51.461,94.501 55.042,94.500 56.455 C 94.500 56.935,94.575 57.835,94.667 58.455 C 95.231 62.264,95.328 62.723,95.734 63.500 C 95.972 63.955,96.167 64.422,96.167 64.539 C 96.168 64.801,96.879 66.563,97.105 66.863 C 97.197 66.984,97.507 67.573,97.795 68.173 C 98.083 68.772,98.510 69.441,98.743 69.660 C 98.976 69.879,99.167 70.228,99.167 70.436 C 99.167 70.644,99.248 70.864,99.347 70.925 C 99.446 70.987,99.670 71.347,99.845 71.727 C 100.170 72.433,100.347 72.745,100.868 73.535 C 101.032 73.783,101.167 74.104,101.167 74.248 C 101.167 74.392,101.478 75.052,101.859 75.713 C 102.478 76.787,102.553 77.036,102.560 78.029 C 102.574 79.827,102.143 80.021,98.000 80.083 C 94.462 80.137,94.850 79.318,94.730 86.982 C 94.657 91.701,94.582 93.202,94.401 93.609 C 94.272 93.897,94.164 94.310,94.161 94.525 C 94.150 95.419,92.416 97.487,91.255 97.992 C 89.882 98.588,89.062 98.667,84.193 98.667 L 79.391 98.667 79.029 99.052 C 78.677 99.427,78.667 99.555,78.667 103.652 C 78.667 108.384,78.628 108.566,77.504 109.061 C 76.563 109.477,44.437 109.477,43.561 109.062 C 42.606 108.609,42.597 108.552,42.477 102.667 C 42.346 96.277,42.085 92.135,41.726 90.750 C 41.583 90.200,41.404 89.150,41.327 88.417 C 41.172 86.932,40.735 84.718,40.523 84.333 C 40.446 84.196,40.289 83.671,40.174 83.167 C 40.058 82.662,39.859 82.051,39.731 81.808 C 39.604 81.564,39.500 81.168,39.500 80.926 C 39.500 80.684,39.350 80.193,39.167 79.833 C 38.983 79.474,38.833 79.008,38.833 78.798 C 38.832 78.588,38.528 77.817,38.156 77.083 C 37.784 76.350,37.323 75.262,37.132 74.667 C 36.940 74.071,36.645 73.404,36.475 73.186 C 36.305 72.967,36.167 72.679,36.167 72.546 C 36.167 72.162,35.288 71.333,34.881 71.333 C 34.382 71.333,34.109 71.857,34.400 72.255 C 34.521 72.421,34.586 72.690,34.544 72.851 C 34.501 73.013,34.587 73.317,34.733 73.527 C 34.880 73.736,35.000 74.049,35.000 74.221 C 35.000 74.394,35.218 74.858,35.484 75.252 C 35.750 75.646,36.023 76.145,36.090 76.359 C 36.157 76.574,36.411 77.125,36.654 77.583 C 36.897 78.042,37.191 78.867,37.307 79.417 C 37.423 79.967,37.586 80.567,37.669 80.750 C 37.996 81.473,38.667 83.695,38.667 84.054 C 38.667 84.262,38.730 84.505,38.807 84.592 C 38.883 84.679,39.037 85.200,39.147 85.750 C 39.257 86.300,39.466 87.275,39.611 87.917 C 39.756 88.558,39.934 89.646,40.006 90.333 C 40.078 91.021,40.214 91.927,40.308 92.347 C 40.545 93.405,40.891 103.079,40.758 104.940 C 40.549 107.868,41.129 109.872,42.377 110.540 L 43.083 110.917 60.309 110.961 L 77.535 111.006 78.259 110.644 C 78.658 110.445,79.232 110.027,79.534 109.715 L 80.083 109.149 80.140 104.898 L 80.196 100.647 80.635 100.480 C 80.890 100.383,82.743 100.324,85.078 100.339 C 89.783 100.370,91.696 100.068,92.540 99.162 C 92.708 98.981,92.948 98.833,93.073 98.833 C 93.410 98.833,94.871 97.167,95.277 96.320 C 96.077 94.650,96.074 94.676,96.164 88.305 C 96.211 84.944,96.312 82.132,96.388 82.055 C 96.465 81.979,97.627 81.870,98.972 81.813 C 102.198 81.677,104.000 80.819,104.000 79.419 C 104.000 79.223,104.110 78.918,104.245 78.740 C 104.557 78.327,104.559 77.979,104.253 77.022 C 104.117 76.598,103.965 76.041,103.915 75.785 C 103.865 75.529,103.601 75.087,103.329 74.802 C 103.056 74.517,102.833 74.154,102.833 73.996 C 102.833 73.837,102.722 73.615,102.586 73.502 C 102.450 73.389,101.807 72.199,101.159 70.857 C 100.510 69.515,99.914 68.304,99.834 68.167 C 99.266 67.191,97.268 63.046,97.158 62.615 C 96.454 59.855,96.210 58.283,96.083 55.667 C 96.003 54.033,95.774 52.496,95.025 48.583 C 94.955 48.217,94.778 47.729,94.632 47.500 C 94.486 47.271,94.313 46.831,94.249 46.523 C 94.185 46.215,93.940 45.540,93.704 45.023 C 93.469 44.506,93.293 43.956,93.314 43.801 C 93.334 43.646,93.164 43.397,92.936 43.247 C 92.708 43.098,92.474 42.761,92.417 42.499 C 92.359 42.237,92.204 41.934,92.073 41.824 C 91.941 41.715,91.833 41.541,91.832 41.438 C 91.827 40.895,90.793 39.224,89.786 38.133 C 89.531 37.856,89.217 37.378,89.089 37.070 C 88.960 36.762,88.426 36.114,87.902 35.630 C 87.378 35.146,86.679 34.460,86.349 34.106 C 85.164 32.833,81.073 29.667,80.613 29.667 C 80.497 29.667,80.255 29.554,80.076 29.417 C 78.718 28.374,78.077 28.153,77.458 28.513 M22.427 30.183 L 21.938 30.620 22.378 31.060 L 22.818 31.500 26.047 31.500 C 29.759 31.500,30.411 31.282,29.745 30.266 C 29.400 29.740,29.847 29.800,26.083 29.771 L 22.917 29.746 22.427 30.183 M62.073 30.006 C 62.271 30.205,62.311 51.786,62.114 52.539 C 61.939 53.208,62.339 53.188,47.927 53.220 C 34.927 53.249,34.635 53.243,34.402 52.925 C 34.201 52.649,34.171 50.867,34.207 41.258 L 34.250 29.917 36.000 29.833 C 39.340 29.674,61.890 29.824,62.073 30.006 M67.638 29.795 C 67.019 29.924,66.764 30.654,67.182 31.099 C 68.016 31.987,74.167 31.612,74.167 30.673 C 74.167 29.933,69.791 29.344,67.638 29.795 M129.684 31.063 C 129.544 31.231,129.505 34.383,129.538 42.902 L 129.583 54.511 131.521 56.422 L 133.459 58.333 143.140 58.333 C 152.236 58.333,152.831 58.315,152.980 58.038 C 153.173 57.677,153.220 52.665,153.033 52.377 C 152.930 52.218,151.061 52.160,144.991 52.127 L 137.083 52.083 137.037 49.958 L 136.990 47.833 143.795 47.833 C 148.866 47.833,150.651 47.782,150.800 47.633 C 151.108 47.325,151.076 42.168,150.764 41.740 C 150.538 41.432,150.215 41.413,143.805 41.333 L 137.083 41.250 137.037 39.208 L 136.990 37.167 144.787 37.164 C 149.398 37.163,152.685 37.097,152.833 37.004 C 153.152 36.803,153.302 31.731,153.005 31.177 C 152.768 30.733,130.049 30.622,129.684 31.063 M174.700 31.033 C 174.349 31.384,174.418 53.802,174.772 54.338 C 174.922 54.565,175.859 55.557,176.855 56.543 L 178.667 58.336 187.708 58.293 L 196.750 58.250 196.833 55.360 C 196.890 53.383,196.859 52.423,196.735 52.320 C 196.635 52.238,193.298 52.151,189.318 52.127 L 182.083 52.083 182.040 41.592 C 182.007 33.454,181.951 31.072,181.790 30.970 C 181.437 30.746,174.929 30.804,174.700 31.033 M200.708 30.943 C 200.544 31.010,200.500 33.521,200.500 42.712 L 200.500 54.395 202.429 56.323 L 204.358 58.250 213.721 58.333 C 218.870 58.379,223.271 58.374,223.500 58.321 L 223.917 58.226 223.917 55.238 L 223.917 52.250 215.958 52.207 L 208.000 52.163 208.000 49.998 L 208.000 47.833 214.813 47.833 C 220.404 47.833,221.660 47.792,221.817 47.603 C 221.949 47.444,221.994 46.450,221.962 44.395 L 221.917 41.417 214.958 41.373 L 208.000 41.330 208.000 39.248 L 208.000 37.167 215.813 37.167 C 222.257 37.167,223.659 37.126,223.817 36.936 C 223.949 36.778,223.994 35.805,223.962 33.811 L 223.917 30.917 212.417 30.888 C 206.092 30.872,200.823 30.897,200.708 30.943 M233.402 30.935 C 233.302 30.976,232.271 31.950,231.110 33.099 L 229.000 35.188 229.000 46.507 L 229.000 57.826 229.379 58.074 C 229.910 58.422,236.158 58.519,236.560 58.186 C 236.786 57.999,236.834 57.437,236.872 54.524 L 236.917 51.083 241.167 51.036 C 246.836 50.974,246.167 50.502,246.167 54.566 C 246.167 57.101,246.220 58.003,246.378 58.134 C 246.618 58.334,253.169 58.455,253.475 58.265 C 253.616 58.178,253.667 55.115,253.666 46.615 L 253.666 35.083 253.000 34.456 C 252.633 34.111,252.333 33.755,252.333 33.665 C 252.333 33.574,252.252 33.500,252.154 33.500 C 252.055 33.500,251.405 32.900,250.709 32.167 L 249.445 30.833 241.514 30.846 C 237.152 30.854,233.502 30.893,233.402 30.935 M258.875 30.944 C 258.570 31.067,258.570 58.087,258.875 58.276 C 259.204 58.479,265.687 58.357,265.945 58.143 C 266.119 57.999,266.167 57.033,266.167 53.666 L 266.167 49.372 266.542 49.272 C 268.062 48.864,271.297 49.212,271.444 49.799 C 271.503 50.034,271.783 50.558,272.067 50.964 C 272.882 52.129,273.138 52.545,273.403 53.125 C 273.539 53.423,273.723 53.667,273.812 53.667 C 273.901 53.667,274.024 53.897,274.086 54.178 C 274.148 54.459,274.301 54.729,274.426 54.777 C 274.551 54.825,274.705 55.024,274.767 55.221 C 274.880 55.576,275.398 56.374,275.792 56.799 C 275.906 56.923,276.000 57.088,276.000 57.166 C 276.000 57.244,276.194 57.539,276.431 57.821 L 276.863 58.333 280.092 58.333 C 283.852 58.333,283.709 58.406,283.656 56.533 C 283.609 54.886,283.487 54.612,281.428 51.524 L 279.542 48.696 281.376 46.889 C 283.774 44.528,283.649 44.923,283.661 39.687 C 283.673 34.526,283.844 35.054,281.373 32.625 L 279.550 30.833 269.317 30.846 C 263.688 30.854,258.990 30.897,258.875 30.944 M288.867 31.033 C 288.570 31.330,288.578 57.650,288.875 58.050 C 289.104 58.358,295.723 58.510,296.019 58.215 C 296.095 58.138,296.179 54.933,296.204 51.093 C 296.240 45.689,296.297 44.095,296.458 44.042 C 296.573 44.003,296.667 44.050,296.667 44.144 C 296.667 44.239,296.910 44.664,297.208 45.090 C 297.506 45.515,297.827 45.987,297.920 46.140 C 298.014 46.292,298.314 46.746,298.587 47.148 C 298.860 47.551,299.172 48.038,299.281 48.232 C 299.390 48.425,299.708 48.841,299.989 49.155 C 300.270 49.469,300.500 49.777,300.500 49.839 C 300.500 49.901,300.690 50.169,300.921 50.434 C 301.581 51.190,301.656 51.294,301.861 51.744 C 301.967 51.976,302.111 52.167,302.182 52.167 C 302.253 52.167,302.364 52.335,302.429 52.542 C 302.536 52.878,303.257 53.955,303.517 54.167 C 303.574 54.212,303.736 54.475,303.877 54.750 C 304.019 55.025,304.368 55.550,304.653 55.917 C 304.938 56.283,305.302 56.752,305.461 56.958 C 305.620 57.164,305.946 57.569,306.186 57.857 L 306.621 58.382 309.680 58.368 C 312.373 58.356,312.764 58.320,312.949 58.067 C 313.224 57.691,313.270 31.671,312.996 31.159 C 312.820 30.831,306.706 30.637,305.930 30.934 C 305.696 31.025,305.667 31.810,305.667 38.073 C 305.667 41.944,305.620 45.158,305.563 45.215 C 305.506 45.272,304.926 44.516,304.275 43.534 C 303.624 42.553,303.033 41.725,302.962 41.694 C 302.891 41.664,302.833 41.562,302.833 41.469 C 302.833 41.375,302.643 41.062,302.410 40.774 C 302.177 40.486,301.874 40.100,301.738 39.917 C 301.602 39.733,301.155 39.139,300.745 38.596 C 300.335 38.053,300.000 37.543,300.000 37.464 C 300.000 37.384,299.926 37.229,299.836 37.118 C 299.091 36.205,298.832 35.849,298.822 35.726 C 298.816 35.648,298.552 35.246,298.235 34.833 C 297.918 34.421,297.614 33.952,297.560 33.792 C 297.506 33.631,297.357 33.500,297.231 33.500 C 297.104 33.500,297.000 33.398,297.000 33.274 C 297.000 33.150,296.831 32.857,296.625 32.623 C 296.419 32.388,296.039 31.890,295.781 31.515 L 295.312 30.833 292.189 30.833 C 289.983 30.833,289.008 30.892,288.867 31.033 M317.535 31.031 C 317.248 31.318,317.254 36.165,317.542 36.544 C 317.667 36.709,318.047 36.837,318.500 36.867 L 319.250 36.917 319.293 44.564 C 319.341 53.009,319.386 52.667,318.247 52.667 C 317.752 52.667,317.505 52.747,317.434 52.930 C 317.279 53.335,317.319 57.887,317.481 58.141 C 317.622 58.364,328.672 58.453,329.027 58.233 C 329.104 58.186,329.167 56.961,329.167 55.511 C 329.167 52.550,329.113 52.401,328.110 52.589 C 327.153 52.769,327.159 52.819,327.207 44.466 L 327.250 36.917 328.041 36.866 C 329.137 36.796,329.184 36.653,329.129 33.545 L 329.083 30.917 323.410 30.873 C 319.138 30.840,317.688 30.879,317.535 31.031 M333.708 30.944 C 333.544 31.010,333.500 33.896,333.500 44.587 C 333.500 55.254,333.544 58.175,333.708 58.278 C 334.015 58.472,340.542 58.335,340.792 58.130 C 340.952 57.999,341.000 56.464,341.000 51.493 C 341.000 47.937,341.046 44.909,341.101 44.764 C 341.236 44.411,341.650 44.428,341.789 44.792 C 341.940 45.184,342.710 46.315,343.192 46.852 C 343.407 47.091,343.658 47.401,343.750 47.540 C 345.349 49.967,347.279 52.799,347.448 52.970 C 347.568 53.091,347.667 53.252,347.667 53.327 C 347.667 53.402,347.927 53.753,348.246 54.107 C 348.565 54.460,348.827 54.833,348.829 54.934 C 348.832 55.035,349.002 55.312,349.208 55.550 C 349.415 55.787,349.921 56.442,350.333 57.006 C 351.338 58.377,351.274 58.357,354.695 58.389 C 357.489 58.415,357.710 58.395,357.930 58.093 C 358.214 57.704,358.286 31.614,358.004 31.167 C 357.803 30.849,351.235 30.696,350.673 30.996 C 350.339 31.175,350.333 31.303,350.333 38.089 C 350.333 41.890,350.271 45.000,350.195 45.000 C 350.119 45.000,349.803 44.644,349.493 44.208 C 349.182 43.773,348.832 43.318,348.714 43.196 C 348.596 43.075,348.500 42.903,348.500 42.814 C 348.500 42.725,348.200 42.246,347.833 41.750 C 347.467 41.254,347.167 40.804,347.167 40.750 C 347.167 40.656,345.982 39.031,345.530 38.505 C 344.962 37.844,343.737 36.062,343.522 35.583 C 343.439 35.400,343.213 35.107,343.019 34.933 C 342.825 34.758,342.666 34.533,342.666 34.433 C 342.665 34.221,340.864 31.765,340.302 31.208 C 339.937 30.846,334.491 30.628,333.708 30.944 M365.115 32.858 L 363.083 34.883 363.033 43.983 C 362.971 55.378,362.743 54.024,365.124 56.397 L 367.068 58.333 368.575 58.342 C 369.757 58.349,383.429 58.343,383.849 58.335 C 384.069 58.331,387.713 54.566,387.853 54.199 C 388.069 53.631,388.031 42.472,387.811 41.841 L 387.634 41.333 381.271 41.333 C 373.347 41.333,374.167 40.950,374.167 44.656 C 374.167 48.101,373.867 47.814,377.512 47.871 L 380.417 47.917 380.417 50.000 L 380.417 52.083 375.500 52.083 L 370.583 52.083 370.583 44.667 L 370.583 37.250 375.136 37.206 C 380.345 37.155,380.181 37.121,381.730 38.586 L 382.697 39.500 385.172 39.500 C 388.111 39.500,387.884 39.700,387.972 37.039 L 388.040 34.995 385.950 32.914 L 383.860 30.833 375.503 30.833 L 367.146 30.833 365.115 32.858 M152.629 31.163 C 152.794 31.166,152.831 31.769,152.796 33.875 L 152.750 36.583 144.869 36.667 C 135.698 36.764,136.673 36.460,136.669 39.219 C 136.665 42.132,135.887 41.832,143.464 41.839 C 148.282 41.843,149.980 41.895,150.167 42.047 C 150.433 42.264,150.521 46.895,150.266 47.307 C 150.179 47.448,148.374 47.500,143.594 47.500 C 135.859 47.500,136.640 47.205,136.703 50.107 L 136.750 52.250 144.750 52.333 L 152.750 52.417 152.750 55.167 L 152.750 57.917 143.242 57.960 L 133.735 58.003 131.784 56.028 L 129.833 54.052 129.833 42.623 C 129.833 35.157,129.891 31.175,130.000 31.139 C 130.118 31.099,150.201 31.121,152.629 31.163 M181.042 31.134 L 181.667 31.167 181.667 41.649 C 181.667 51.053,181.694 52.141,181.930 52.232 C 182.075 52.288,185.244 52.334,188.972 52.336 C 192.700 52.337,195.919 52.383,196.125 52.438 C 196.620 52.571,196.725 57.711,196.236 57.899 C 196.091 57.954,192.134 58.000,187.442 58.000 L 178.911 58.000 176.956 56.039 L 175.000 54.078 175.000 42.650 C 175.000 36.365,175.031 31.191,175.070 31.153 C 175.138 31.085,179.809 31.070,181.042 31.134 M223.757 31.559 C 223.806 31.756,223.824 32.967,223.798 34.250 L 223.750 36.583 215.932 36.627 C 210.497 36.657,208.045 36.727,207.890 36.855 C 207.590 37.104,207.569 41.336,207.867 41.633 C 208.015 41.782,209.728 41.833,214.544 41.833 C 218.691 41.833,221.138 41.895,221.344 42.006 C 221.799 42.249,221.840 46.815,221.391 47.188 C 221.172 47.370,219.758 47.434,214.433 47.500 L 207.750 47.583 207.750 49.917 L 207.750 52.250 215.750 52.333 L 223.750 52.417 223.771 54.667 C 223.783 55.904,223.756 57.160,223.711 57.458 L 223.630 58.000 214.187 58.000 L 204.745 58.000 202.789 56.039 L 200.833 54.078 200.833 42.624 L 200.833 31.169 211.517 31.126 C 223.862 31.077,223.636 31.069,223.757 31.559 M251.229 33.180 L 253.333 35.275 253.333 46.551 L 253.333 57.827 252.958 57.919 C 252.752 57.970,251.233 57.990,249.583 57.964 L 246.583 57.917 246.500 54.333 C 246.454 52.362,246.359 50.662,246.289 50.554 C 246.058 50.197,237.062 50.313,236.610 50.679 C 236.267 50.956,236.246 51.136,236.167 54.443 L 236.083 57.917 232.917 57.917 L 229.750 57.917 229.707 46.498 L 229.664 35.079 231.707 33.081 L 233.750 31.083 241.437 31.084 L 249.124 31.084 251.229 33.180 M279.740 31.658 C 280.126 31.992,281.055 32.892,281.805 33.658 L 283.167 35.049 283.167 39.799 L 283.167 44.548 281.251 46.482 C 279.209 48.544,278.990 48.971,279.667 49.583 C 279.850 49.749,280.000 49.940,280.000 50.007 C 280.000 50.137,281.588 52.625,282.123 53.333 C 283.084 54.608,283.182 54.910,283.132 56.447 L 283.083 57.917 280.095 57.962 L 277.106 58.008 276.636 57.494 C 276.378 57.211,276.167 56.908,276.167 56.821 C 276.167 56.734,275.904 56.290,275.583 55.833 C 275.262 55.377,275.000 54.939,275.000 54.861 C 275.000 54.782,274.850 54.583,274.667 54.417 C 274.483 54.251,274.333 54.026,274.333 53.916 C 274.333 53.807,274.183 53.545,274.000 53.333 C 273.817 53.122,273.665 52.867,273.663 52.766 C 273.661 52.604,273.222 51.884,272.291 50.513 C 272.131 50.277,271.890 49.850,271.757 49.565 C 271.574 49.173,271.380 49.027,270.966 48.970 C 270.078 48.846,266.136 48.964,265.981 49.119 C 265.903 49.197,265.819 51.208,265.795 53.589 L 265.750 57.917 262.750 57.964 C 261.100 57.990,259.581 57.970,259.375 57.919 L 259.000 57.827 259.000 44.498 L 259.000 31.170 267.375 31.127 C 271.981 31.103,276.490 31.076,277.393 31.066 L 279.037 31.049 279.740 31.658 M295.232 31.391 C 295.402 31.674,297.268 34.151,297.664 34.619 C 297.758 34.730,297.921 35.011,298.027 35.244 C 298.133 35.476,298.278 35.667,298.349 35.667 C 298.420 35.667,298.531 35.835,298.596 36.042 C 298.661 36.248,298.966 36.724,299.274 37.100 C 299.582 37.477,299.833 37.859,299.833 37.951 C 299.833 38.101,300.225 38.604,300.920 39.347 C 301.056 39.493,301.167 39.670,301.167 39.741 C 301.167 39.812,301.454 40.218,301.805 40.644 C 302.157 41.069,302.491 41.529,302.549 41.667 C 302.770 42.194,305.260 45.726,305.457 45.792 C 305.924 45.946,306.000 44.864,306.000 38.091 L 306.000 31.203 306.375 31.134 C 306.581 31.096,307.087 31.079,307.500 31.098 C 307.912 31.116,309.282 31.139,310.543 31.149 L 312.835 31.167 312.793 44.542 L 312.750 57.917 309.766 57.962 C 306.130 58.018,306.987 58.663,303.230 53.042 C 302.173 51.460,301.248 50.167,301.175 50.167 C 301.101 50.167,300.946 49.939,300.831 49.660 C 300.715 49.382,300.481 49.079,300.310 48.988 C 300.140 48.896,299.996 48.730,299.990 48.619 C 299.985 48.508,299.816 48.180,299.615 47.891 C 298.700 46.573,297.032 44.048,296.853 43.708 C 296.610 43.248,296.236 43.225,296.006 43.656 C 295.895 43.863,295.833 46.444,295.833 50.888 C 295.833 57.035,295.804 57.809,295.570 57.899 C 295.425 57.954,293.925 58.000,292.236 58.000 L 289.167 58.000 289.167 44.611 C 289.167 37.247,289.207 31.182,289.255 31.133 C 289.535 30.854,295.052 31.092,295.232 31.391 M328.751 31.195 C 328.860 31.305,328.968 35.200,328.875 35.708 C 328.799 36.127,328.727 36.167,328.055 36.167 C 327.495 36.167,327.220 36.265,326.909 36.576 L 326.500 36.985 326.500 44.551 L 326.500 52.118 326.909 52.559 C 327.234 52.909,327.471 53.000,328.064 53.000 C 328.633 53.000,328.830 53.069,328.892 53.292 C 328.961 53.542,328.933 57.522,328.859 57.875 C 328.828 58.023,318.314 58.046,317.930 57.899 C 317.708 57.813,317.667 57.441,317.667 55.500 C 317.667 52.997,317.665 53.000,318.669 53.000 C 318.931 53.000,319.337 52.927,319.572 52.837 L 320.000 52.675 320.000 44.830 L 320.000 36.985 319.591 36.576 C 319.341 36.325,318.990 36.167,318.688 36.167 C 317.659 36.167,317.667 36.185,317.667 33.576 L 317.667 31.188 318.208 31.136 C 319.002 31.059,328.669 31.114,328.751 31.195 M339.438 31.102 C 339.878 31.196,341.167 32.586,341.167 32.968 C 341.167 33.045,341.354 33.285,341.583 33.500 C 341.813 33.715,342.005 33.972,342.011 34.071 C 342.017 34.169,342.356 34.700,342.763 35.250 C 343.171 35.800,343.583 36.436,343.680 36.664 C 343.776 36.892,343.981 37.204,344.136 37.357 C 344.290 37.511,344.567 37.835,344.750 38.079 C 344.933 38.322,345.196 38.654,345.333 38.817 C 345.471 38.980,345.658 39.227,345.750 39.366 C 345.842 39.506,346.063 39.837,346.241 40.102 C 346.420 40.367,347.035 41.303,347.608 42.184 C 349.304 44.789,350.737 46.344,350.857 45.708 C 350.870 45.640,350.891 42.381,350.905 38.466 C 350.918 34.552,350.986 31.291,351.057 31.221 C 351.201 31.077,356.117 30.995,356.959 31.122 L 357.502 31.204 357.459 44.560 L 357.417 57.917 354.833 57.966 C 352.017 58.020,351.167 57.935,351.167 57.600 C 351.167 57.405,350.821 56.945,350.080 56.153 C 349.944 56.007,349.833 55.813,349.833 55.720 C 349.833 55.627,349.683 55.416,349.500 55.250 C 349.317 55.084,349.167 54.857,349.167 54.745 C 349.167 54.633,349.057 54.450,348.924 54.339 C 348.791 54.229,347.876 52.926,346.891 51.444 C 345.907 49.962,344.757 48.300,344.335 47.750 C 343.517 46.683,343.340 46.431,342.393 45.000 C 341.664 43.897,341.010 43.257,340.814 43.453 C 340.735 43.532,340.651 46.818,340.627 50.757 L 340.583 57.917 337.583 57.964 C 335.933 57.990,334.415 57.970,334.208 57.919 L 333.833 57.827 333.833 44.506 L 333.833 31.186 334.542 31.122 C 335.791 31.010,338.943 30.997,339.438 31.102 M385.652 33.145 L 387.667 35.180 387.664 36.799 C 387.661 39.360,387.870 39.168,385.125 39.132 L 382.787 39.102 381.810 38.176 C 381.273 37.667,380.704 37.137,380.546 37.000 C 380.200 36.699,370.940 36.537,370.500 36.824 C 370.172 37.039,370.027 51.714,370.349 52.102 C 370.656 52.472,380.590 52.441,380.732 52.070 C 380.903 51.626,380.844 48.165,380.661 47.822 C 380.501 47.524,380.287 47.500,377.799 47.500 C 374.294 47.500,374.500 47.682,374.500 44.584 L 374.500 42.220 374.925 42.027 C 375.657 41.693,387.436 41.759,387.566 42.097 C 387.621 42.242,387.667 44.995,387.667 48.214 L 387.667 54.068 385.701 56.034 L 383.735 58.000 375.500 58.000 L 367.265 58.000 365.299 56.034 L 363.333 54.068 363.333 44.624 L 363.333 35.180 365.308 33.185 C 367.081 31.394,367.350 31.184,367.933 31.137 C 368.291 31.107,371.971 31.089,376.111 31.097 L 383.638 31.111 385.652 33.145 M38.450 32.828 C 38.101 32.895,37.744 33.023,37.655 33.111 C 37.530 33.236,37.405 41.388,37.488 43.954 C 37.508 44.567,38.371 44.919,38.771 44.477 C 39.056 44.163,39.091 43.723,39.167 39.441 C 39.212 36.861,39.311 34.656,39.385 34.542 C 39.582 34.238,56.418 34.238,56.615 34.542 C 56.689 34.656,56.760 36.869,56.772 39.459 C 56.794 44.328,56.823 44.538,57.496 44.714 C 58.345 44.936,58.410 44.555,58.505 38.775 L 58.593 33.417 58.204 33.042 L 57.815 32.667 48.449 32.686 C 43.298 32.696,38.798 32.760,38.450 32.828 M236.667 36.816 L 236.250 36.931 236.205 40.626 L 236.160 44.321 236.655 44.577 C 237.350 44.937,246.020 44.961,246.316 44.604 C 246.449 44.444,246.493 43.279,246.462 40.734 L 246.417 37.093 246.000 36.882 C 245.546 36.653,237.460 36.595,236.667 36.816 M266.333 36.882 C 265.916 37.093,265.601 41.524,265.914 42.792 L 266.006 43.167 270.963 43.167 C 275.736 43.167,275.928 43.154,276.128 42.834 C 276.486 42.259,276.428 37.148,276.060 36.879 C 275.646 36.577,266.932 36.579,266.333 36.882 M245.862 37.442 C 246.137 37.692,246.167 38.031,246.167 40.947 L 246.167 44.175 245.739 44.337 C 245.280 44.512,237.535 44.567,237.097 44.399 C 236.822 44.294,236.678 37.544,236.944 37.278 C 237.219 37.003,245.547 37.157,245.862 37.442 M275.963 39.875 L 276.008 42.500 274.713 42.505 C 268.393 42.532,266.488 42.512,266.339 42.420 C 266.024 42.225,266.117 37.831,266.445 37.469 C 266.704 37.182,267.032 37.164,271.320 37.206 L 275.917 37.250 275.963 39.875 M13.095 38.673 C 15.897 40.029,14.904 44.500,11.801 44.500 C 10.142 44.500,8.625 42.561,8.919 40.818 C 9.073 39.907,10.277 38.671,11.025 38.655 C 11.332 38.649,11.733 38.579,11.917 38.500 C 12.374 38.303,12.315 38.295,13.095 38.673 M67.200 40.867 C 67.090 40.977,67.000 41.224,67.000 41.417 C 67.000 42.116,67.243 42.167,70.583 42.167 C 73.850 42.167,74.167 42.107,74.167 41.492 C 74.167 40.766,73.725 40.667,70.479 40.667 C 68.306 40.667,67.341 40.726,67.200 40.867 M157.013 42.125 C 156.673 42.402,156.657 42.536,156.702 44.749 L 156.750 47.080 157.250 47.187 C 158.117 47.372,169.697 47.346,170.375 47.158 L 171.000 46.984 171.000 44.818 C 171.000 42.740,170.983 42.635,170.591 42.242 L 170.182 41.833 163.776 41.833 C 157.923 41.833,157.339 41.858,157.013 42.125 M170.140 42.458 C 170.386 42.931,170.543 46.031,170.348 46.545 L 170.175 47.000 163.851 47.000 C 160.373 47.000,157.409 46.954,157.264 46.899 C 156.801 46.721,156.884 43.061,157.362 42.552 L 157.725 42.167 163.857 42.167 C 169.527 42.167,170.000 42.189,170.140 42.458 M41.792 47.603 C 41.094 47.969,41.458 48.989,42.292 49.006 C 46.575 49.096,54.393 48.992,54.573 48.842 C 55.207 48.316,54.978 47.705,54.066 47.489 C 52.932 47.222,42.331 47.320,41.792 47.603 M22.542 51.756 C 22.335 51.901,22.167 52.138,22.167 52.283 C 22.167 52.904,22.637 52.989,26.093 52.995 C 29.902 53.001,30.220 52.922,29.812 52.069 L 29.579 51.583 26.248 51.538 C 23.434 51.500,22.858 51.534,22.542 51.756 M67.200 51.700 C 67.090 51.810,67.000 52.057,67.000 52.250 C 67.000 52.949,67.243 53.000,70.583 53.000 C 72.837 53.000,73.825 52.942,73.967 52.800 C 74.273 52.494,74.205 51.865,73.844 51.673 C 73.370 51.419,67.457 51.443,67.200 51.700 M36.879 57.322 C 36.598 57.772,36.543 64.124,36.816 64.633 C 37.090 65.146,37.728 65.114,37.973 64.575 C 38.098 64.301,38.167 63.036,38.167 61.000 C 38.167 58.964,38.098 57.699,37.973 57.425 C 37.741 56.914,37.167 56.861,36.879 57.322 M58.404 57.348 C 58.118 57.664,58.090 57.993,58.092 61.016 L 58.095 64.338 58.558 64.794 L 59.021 65.250 59.426 64.750 C 59.987 64.059,60.055 58.029,59.509 57.375 C 59.120 56.908,58.809 56.900,58.404 57.348 M131.909 72.292 C 131.094 73.094,130.218 74.004,129.963 74.315 L 129.500 74.879 129.500 85.867 C 129.500 93.123,129.559 96.965,129.673 97.178 C 129.894 97.592,136.307 97.684,136.644 97.278 C 136.767 97.129,136.843 95.430,136.872 92.153 L 136.917 87.250 143.417 87.162 C 146.992 87.113,149.935 87.057,149.958 87.037 C 150.120 86.894,149.970 81.370,149.800 81.200 C 149.652 81.052,147.998 81.000,143.389 81.000 C 136.131 81.000,136.833 81.248,136.833 78.684 L 136.833 77.013 144.308 76.965 C 150.344 76.926,151.835 76.873,152.058 76.688 C 152.509 76.313,152.467 71.250,152.011 71.006 C 151.800 70.893,148.528 70.833,142.540 70.833 L 133.392 70.833 131.909 72.292 M157.794 72.811 L 155.833 74.789 155.833 84.171 L 155.833 93.552 157.783 95.526 L 159.732 97.500 167.423 97.500 L 175.114 97.500 177.224 95.381 L 179.333 93.262 179.333 84.151 L 179.333 75.039 177.273 72.936 L 175.212 70.833 167.484 70.833 L 159.755 70.833 157.794 72.811 M184.367 71.033 C 184.046 71.354,184.082 93.022,184.404 93.633 C 184.534 93.881,185.425 94.852,186.383 95.792 L 188.126 97.500 195.816 97.500 L 203.506 97.500 205.574 95.458 L 207.642 93.417 207.725 82.374 C 207.796 72.732,207.775 71.299,207.558 71.082 C 207.302 70.826,201.217 70.697,200.597 70.934 C 200.361 71.025,200.333 72.052,200.333 80.822 L 200.333 90.609 199.933 90.985 C 199.365 91.518,192.281 91.473,191.684 90.933 C 191.335 90.617,191.333 90.562,191.333 80.924 C 191.333 73.609,191.284 71.184,191.133 71.033 C 190.992 70.892,190.004 70.833,187.750 70.833 C 185.496 70.833,184.508 70.892,184.367 71.033 M212.542 70.944 C 212.129 71.110,212.251 96.751,212.667 97.167 C 213.021 97.521,218.945 97.688,219.465 97.358 C 219.635 97.251,219.688 95.812,219.715 90.652 C 219.758 82.596,219.577 82.896,222.124 86.667 C 222.464 87.171,222.833 87.678,222.944 87.793 C 223.054 87.908,223.192 88.152,223.250 88.334 C 223.308 88.517,223.426 88.667,223.511 88.667 C 223.597 88.667,223.667 88.779,223.667 88.917 C 223.667 89.054,223.809 89.309,223.983 89.483 C 224.157 89.657,224.509 90.163,224.766 90.608 C 225.022 91.053,225.480 91.677,225.783 91.995 C 226.085 92.313,226.333 92.666,226.333 92.779 C 226.333 92.891,226.430 93.043,226.548 93.117 C 226.666 93.190,227.002 93.625,227.294 94.083 C 227.586 94.542,227.883 94.992,227.954 95.083 C 228.025 95.175,228.305 95.587,228.575 96.000 C 229.626 97.603,229.339 97.500,232.746 97.500 C 234.873 97.500,235.826 97.441,235.967 97.300 C 236.363 96.904,236.243 71.219,235.844 71.006 C 235.369 70.751,229.124 70.776,228.867 71.033 C 228.718 71.182,228.667 72.908,228.667 77.768 C 228.667 84.900,228.644 85.043,227.748 83.624 C 226.157 81.104,224.474 78.692,224.246 78.605 C 224.111 78.553,224.000 78.436,224.000 78.346 C 224.000 78.172,223.232 76.984,223.024 76.837 C 222.956 76.789,222.686 76.379,222.424 75.925 C 222.161 75.471,221.715 74.783,221.432 74.396 C 221.148 74.008,220.729 73.416,220.500 73.080 C 220.271 72.743,219.952 72.346,219.792 72.197 C 219.631 72.048,219.500 71.859,219.500 71.778 C 219.500 70.986,214.055 70.333,212.542 70.944 M240.867 71.033 C 240.453 71.447,240.593 96.528,241.012 97.061 L 241.358 97.500 250.809 97.500 L 260.260 97.500 262.070 95.688 C 263.065 94.691,263.941 93.765,264.017 93.630 C 264.222 93.265,264.232 75.100,264.028 74.724 C 263.936 74.555,263.041 73.610,262.039 72.625 L 260.216 70.833 250.642 70.833 C 243.417 70.833,241.018 70.882,240.867 71.033 M271.333 72.703 C 270.371 73.714,269.452 74.662,269.292 74.808 C 268.797 75.259,268.847 96.317,269.345 97.016 L 269.689 97.500 272.835 97.500 C 275.168 97.500,276.015 97.446,276.115 97.292 C 276.189 97.177,276.287 95.508,276.333 93.583 L 276.417 90.083 280.671 90.039 L 284.925 89.995 285.212 90.481 C 285.457 90.895,285.500 91.430,285.500 94.034 C 285.500 97.847,285.138 97.500,289.121 97.500 L 292.342 97.500 292.496 97.094 C 292.674 96.625,292.703 75.460,292.526 74.981 C 292.462 74.810,291.555 73.806,290.509 72.751 L 288.607 70.833 280.845 70.848 L 273.083 70.863 271.333 72.703 M295.792 71.013 C 295.424 71.228,295.341 76.549,295.702 76.772 C 295.851 76.864,301.420 77.039,303.083 77.004 C 303.192 77.001,303.259 80.435,303.276 86.928 C 303.300 96.125,303.323 96.880,303.594 97.178 C 303.950 97.572,309.920 97.680,310.300 97.300 C 310.451 97.149,310.500 94.647,310.500 87.064 L 310.500 77.027 314.320 76.972 C 316.421 76.942,318.196 76.860,318.265 76.791 C 318.484 76.571,318.534 71.325,318.318 71.065 C 318.077 70.774,296.288 70.724,295.792 71.013 M320.700 71.033 C 320.416 71.318,320.423 75.835,320.708 76.210 C 320.834 76.376,321.214 76.504,321.667 76.534 L 322.417 76.583 322.417 84.083 L 322.417 91.583 321.705 91.678 C 321.314 91.731,320.901 91.866,320.788 91.978 C 320.483 92.284,320.503 96.852,320.812 97.224 C 321.106 97.579,331.450 97.650,331.800 97.300 C 331.938 97.162,332.000 96.319,332.000 94.583 C 332.000 91.724,331.977 91.667,330.818 91.667 C 329.772 91.667,329.833 92.130,329.836 84.195 C 329.838 76.202,329.805 76.500,330.686 76.500 C 331.866 76.500,332.000 76.196,332.000 73.533 C 332.000 71.967,331.936 71.170,331.800 71.033 C 331.514 70.747,320.986 70.747,320.700 71.033 M339.288 71.557 C 338.855 71.955,338.500 72.367,338.500 72.473 C 338.500 72.580,338.433 72.667,338.352 72.667 C 338.271 72.667,337.839 73.021,337.394 73.454 C 335.872 74.933,336.002 73.927,336.001 84.177 L 336.000 93.270 338.180 95.385 L 340.359 97.500 347.930 97.500 L 355.500 97.500 357.500 95.533 L 359.500 93.567 359.499 84.075 L 359.499 74.583 357.612 72.708 L 355.726 70.833 347.901 70.833 L 340.076 70.833 339.288 71.557 M364.611 70.944 C 364.395 71.161,364.482 97.082,364.700 97.300 C 364.982 97.582,371.184 97.582,371.467 97.300 C 371.615 97.152,371.670 95.437,371.678 90.675 C 371.685 87.141,371.741 84.123,371.803 83.969 C 371.932 83.649,374.000 86.095,374.000 86.567 C 374.000 86.709,374.188 86.949,374.417 87.099 C 374.646 87.249,374.833 87.440,374.833 87.522 C 374.833 87.605,375.040 87.982,375.292 88.359 C 375.544 88.737,376.012 89.437,376.333 89.915 C 376.654 90.393,377.153 91.152,377.442 91.601 C 377.992 92.455,378.408 93.016,378.841 93.486 C 378.983 93.640,379.352 94.156,379.661 94.633 C 379.970 95.110,380.285 95.500,380.361 95.500 C 380.438 95.500,380.500 95.590,380.500 95.699 C 380.500 95.916,381.312 97.173,381.583 97.375 C 381.675 97.443,383.099 97.481,384.748 97.458 L 387.747 97.417 387.854 96.917 C 388.042 96.033,388.017 71.511,387.827 71.156 C 387.616 70.761,381.251 70.649,380.867 71.033 C 380.718 71.182,380.667 72.909,380.667 77.773 C 380.667 81.388,380.601 84.354,380.519 84.405 C 380.438 84.455,380.122 84.084,379.817 83.581 C 379.512 83.078,379.213 82.667,379.152 82.667 C 379.090 82.667,378.947 82.442,378.833 82.167 C 378.719 81.892,378.560 81.667,378.480 81.667 C 378.399 81.667,378.333 81.573,378.333 81.458 C 378.333 81.344,378.145 81.025,377.915 80.750 C 377.685 80.475,377.366 80.078,377.207 79.868 C 377.047 79.659,376.795 79.359,376.646 79.202 C 376.497 79.045,376.323 78.748,376.259 78.542 C 376.196 78.335,376.080 78.167,376.001 78.167 C 375.922 78.167,375.614 77.735,375.315 77.208 C 375.017 76.681,374.674 76.190,374.553 76.117 C 374.432 76.043,374.333 75.916,374.333 75.833 C 374.333 75.629,373.464 74.356,372.933 73.783 C 372.695 73.526,372.500 73.256,372.500 73.182 C 372.500 73.109,372.331 72.857,372.125 72.623 C 371.919 72.388,371.539 71.890,371.281 71.515 L 370.812 70.833 367.767 70.833 C 366.092 70.833,364.672 70.883,364.611 70.944 M151.462 71.142 C 151.627 71.161,151.665 71.777,151.629 73.875 L 151.583 76.583 144.083 76.667 C 139.958 76.712,136.490 76.811,136.375 76.885 C 135.991 77.133,136.098 80.268,136.510 80.847 L 136.853 81.329 143.218 81.373 L 149.583 81.417 149.633 83.583 C 149.660 84.775,149.638 85.994,149.584 86.292 L 149.485 86.833 143.002 86.833 C 137.999 86.833,136.489 86.881,136.385 87.042 C 136.311 87.156,136.212 89.462,136.167 92.167 L 136.083 97.083 133.096 97.129 C 130.817 97.164,130.076 97.124,129.973 96.962 C 129.899 96.846,129.837 91.842,129.836 85.844 L 129.833 74.937 131.708 73.055 L 133.583 71.172 139.167 71.128 C 144.601 71.085,151.034 71.092,151.462 71.142 M176.707 72.863 C 177.669 73.822,178.541 74.766,178.645 74.959 C 178.778 75.209,178.833 77.922,178.833 84.242 L 178.833 93.173 177.292 94.773 C 176.444 95.653,175.470 96.551,175.128 96.770 L 174.507 97.167 167.414 97.167 C 159.175 97.167,160.200 97.403,157.792 94.944 L 156.167 93.284 156.167 84.181 L 156.167 75.078 158.125 73.141 C 160.495 70.797,159.161 71.080,167.729 71.100 L 174.958 71.118 176.707 72.863 M190.826 71.245 C 190.944 71.318,191.000 74.562,191.000 81.310 C 191.000 88.832,191.049 91.316,191.200 91.467 C 191.491 91.758,199.990 91.750,200.385 91.458 C 200.643 91.267,200.670 90.416,200.708 81.250 L 200.750 71.250 203.581 71.117 C 205.139 71.044,206.582 71.026,206.790 71.078 L 207.167 71.173 207.167 82.214 L 207.167 93.256 205.375 95.026 C 202.993 97.381,203.946 97.167,195.833 97.167 C 187.739 97.167,188.661 97.367,186.375 95.110 L 184.667 93.423 184.667 82.306 L 184.667 71.190 185.042 71.124 C 185.633 71.021,190.632 71.126,190.826 71.245 M218.871 71.583 C 219.080 71.831,219.362 72.165,219.500 72.324 C 219.784 72.651,219.982 72.942,220.628 73.981 C 220.879 74.384,221.238 74.909,221.428 75.148 C 221.617 75.387,221.949 75.883,222.166 76.250 C 222.383 76.617,222.847 77.265,223.197 77.690 C 223.547 78.115,223.833 78.537,223.833 78.628 C 223.833 78.718,223.947 78.887,224.086 79.002 C 224.224 79.117,225.044 80.277,225.906 81.580 C 229.256 86.640,229.167 86.738,229.167 77.980 L 229.167 71.167 230.125 71.142 C 232.771 71.073,235.199 71.083,235.331 71.165 C 235.506 71.273,235.605 96.695,235.432 96.976 C 235.351 97.106,234.475 97.167,232.670 97.167 L 230.026 97.167 229.415 96.458 C 229.080 96.069,228.688 95.525,228.546 95.250 C 228.403 94.975,228.240 94.712,228.184 94.667 C 228.127 94.621,227.862 94.246,227.596 93.833 C 227.330 93.421,226.974 92.985,226.806 92.866 C 226.638 92.746,226.500 92.569,226.500 92.473 C 226.500 92.376,226.219 91.939,225.875 91.501 C 225.531 91.063,225.044 90.377,224.792 89.977 C 224.541 89.577,224.034 88.800,223.667 88.250 C 223.299 87.700,222.793 86.923,222.541 86.523 C 221.972 85.618,220.934 84.255,220.275 83.545 C 219.349 82.549,219.334 82.651,219.331 89.895 C 219.330 93.482,219.284 96.585,219.228 96.792 C 219.089 97.311,213.454 97.387,213.065 96.875 C 212.749 96.458,212.726 71.232,213.042 71.122 C 213.156 71.083,214.430 71.068,215.871 71.090 L 218.493 71.130 218.871 71.583 M259.899 71.169 C 259.948 71.214,260.853 72.103,261.910 73.146 L 263.833 75.043 263.833 84.189 L 263.833 93.336 262.208 94.966 C 259.761 97.422,261.097 97.167,250.682 97.167 L 241.686 97.167 241.426 96.796 C 241.049 96.258,241.029 71.427,241.405 71.217 C 241.657 71.076,259.747 71.030,259.899 71.169 M290.203 73.014 L 292.083 74.908 292.167 85.715 C 292.212 91.658,292.196 96.666,292.130 96.844 C 291.946 97.342,286.272 97.342,286.006 96.844 C 285.904 96.654,285.833 95.200,285.833 93.294 C 285.833 91.006,285.775 90.008,285.633 89.867 C 285.462 89.695,276.257 89.542,276.136 89.708 C 276.120 89.731,276.064 91.400,276.011 93.417 L 275.917 97.083 273.001 97.129 C 270.406 97.170,270.062 97.143,269.876 96.889 C 269.713 96.667,269.667 94.199,269.667 85.794 L 269.667 74.986 270.458 74.136 C 272.095 72.381,273.350 71.188,273.617 71.136 C 273.768 71.107,277.139 71.092,281.107 71.102 L 288.322 71.120 290.203 73.014 M317.917 73.863 L 317.917 76.583 314.226 76.628 C 311.411 76.662,310.492 76.725,310.352 76.894 C 310.225 77.047,310.156 80.148,310.126 87.099 L 310.083 97.083 307.167 97.129 C 304.572 97.170,304.229 97.143,304.042 96.889 C 303.880 96.667,303.833 94.400,303.833 86.807 C 303.833 77.293,303.824 77.007,303.511 76.839 C 303.320 76.737,301.835 76.667,299.858 76.667 C 298.026 76.667,296.427 76.628,296.304 76.581 C 296.039 76.479,296.049 71.342,296.314 71.179 C 296.399 71.126,301.294 71.097,307.192 71.113 L 317.917 71.143 317.917 73.863 M330.708 71.091 L 331.500 71.198 331.500 73.599 L 331.500 76.000 330.770 76.000 C 329.531 76.000,329.583 75.651,329.583 83.901 C 329.583 92.419,329.547 92.130,330.626 92.199 L 331.417 92.250 331.465 94.333 C 331.491 95.479,331.471 96.585,331.420 96.792 L 331.327 97.167 326.468 97.167 C 320.506 97.167,321.000 97.402,321.000 94.563 C 321.000 92.334,321.072 92.167,322.041 92.167 C 323.183 92.167,323.167 92.283,323.167 84.179 C 323.167 75.860,323.223 76.202,321.818 76.015 L 321.083 75.917 321.037 73.554 C 320.991 71.206,320.993 71.191,321.370 71.137 C 322.150 71.027,329.947 70.988,330.708 71.091 M357.295 73.047 L 359.219 74.971 359.182 84.168 L 359.144 93.366 357.417 95.058 C 356.467 95.989,355.575 96.844,355.435 96.958 C 355.003 97.312,341.153 97.253,340.450 96.894 C 340.157 96.745,339.108 95.826,338.119 94.853 L 336.321 93.083 336.369 84.167 C 336.402 78.006,336.474 75.153,336.602 74.937 C 336.704 74.765,337.576 73.827,338.541 72.854 L 340.294 71.083 347.833 71.103 L 355.372 71.123 357.295 73.047 M370.738 71.403 C 370.944 71.750,372.704 74.125,373.035 74.503 C 373.157 74.643,373.462 75.106,373.712 75.533 C 373.962 75.960,374.270 76.412,374.395 76.538 C 374.521 76.664,374.738 76.988,374.879 77.258 C 375.113 77.709,375.841 78.718,376.376 79.333 C 376.496 79.471,376.816 79.921,377.088 80.333 C 377.360 80.746,377.623 81.121,377.673 81.167 C 377.723 81.212,378.347 82.131,379.060 83.208 C 380.124 84.816,380.429 85.167,380.761 85.167 L 381.167 85.167 381.167 78.256 C 381.167 71.841,381.188 71.335,381.458 71.200 C 381.619 71.120,383.063 71.062,384.667 71.071 L 387.583 71.086 387.631 83.585 C 387.657 90.459,387.635 96.327,387.582 96.625 L 387.485 97.167 384.917 97.167 C 382.045 97.167,381.708 97.079,381.239 96.207 C 380.971 95.707,380.505 95.068,379.205 93.417 C 378.969 93.118,378.042 91.767,377.557 91.017 C 376.854 89.929,376.791 89.833,376.284 89.095 C 376.028 88.722,375.590 88.060,375.311 87.625 C 375.033 87.190,374.744 86.833,374.669 86.833 C 374.594 86.833,374.454 86.607,374.358 86.331 C 374.261 86.055,374.066 85.784,373.925 85.730 C 373.783 85.676,373.667 85.556,373.667 85.464 C 373.667 85.373,373.385 84.933,373.042 84.487 C 372.698 84.040,372.295 83.506,372.147 83.299 C 371.405 82.266,371.333 82.858,371.333 89.966 C 371.333 98.015,371.713 97.167,368.112 97.167 C 364.379 97.167,364.833 99.003,364.833 83.902 L 364.833 71.190 365.208 71.137 C 366.667 70.929,370.568 71.117,370.738 71.403 M53.167 72.145 C 54.020 72.681,54.660 74.077,54.408 74.851 C 54.336 75.070,54.270 75.408,54.259 75.601 C 54.141 77.871,49.927 78.142,48.905 75.946 C 47.574 73.088,50.508 70.472,53.167 72.145 M162.682 76.898 C 162.360 77.286,162.505 91.296,162.833 91.504 C 163.234 91.757,172.116 91.714,172.282 91.458 C 172.438 91.217,172.410 77.092,172.252 76.837 C 172.075 76.551,162.922 76.609,162.682 76.898 M247.778 76.778 C 247.639 76.917,247.629 91.042,247.768 91.403 C 247.920 91.800,256.842 91.801,257.238 91.405 C 257.582 91.061,257.641 77.207,257.300 76.867 C 257.083 76.650,247.991 76.565,247.778 76.778 M276.200 76.867 C 275.943 77.124,275.918 83.369,276.173 83.844 C 276.385 84.241,285.245 84.355,285.633 83.967 C 285.971 83.629,285.912 76.899,285.570 76.768 C 285.039 76.564,276.412 76.655,276.200 76.867 M343.208 76.777 C 342.912 76.896,342.904 91.171,343.200 91.467 C 343.485 91.752,352.348 91.752,352.633 91.467 C 353.026 91.074,352.909 77.052,352.511 76.839 C 352.186 76.665,343.627 76.608,343.208 76.777 M257.037 77.221 C 257.106 77.329,257.163 80.392,257.164 84.030 L 257.167 90.642 256.728 90.988 C 256.310 91.316,256.084 91.333,252.144 91.333 L 248.000 91.333 248.000 84.171 L 248.000 77.008 250.875 76.962 C 254.855 76.899,256.887 76.985,257.037 77.221 M172.167 83.905 C 172.167 89.960,172.134 90.842,171.905 91.071 C 171.481 91.495,163.859 91.460,163.331 91.032 L 162.959 90.730 162.938 83.865 L 162.917 77.000 167.542 77.000 L 172.167 77.000 172.167 83.905 M285.500 80.244 C 285.500 84.248,286.044 83.852,280.631 83.795 L 276.417 83.750 276.372 80.375 L 276.326 77.000 280.913 77.000 L 285.500 77.000 285.500 80.244 M352.333 83.739 C 352.333 87.605,352.266 90.656,352.175 90.896 L 352.016 91.314 347.849 91.327 C 343.875 91.341,343.675 91.326,343.508 91.015 C 343.394 90.803,343.333 88.297,343.333 83.844 L 343.333 77.000 347.833 77.000 L 352.333 77.000 352.333 83.739 "
              stroke="none" fill="#67b5ad" fill-rule="evenodd"></path>
    </g>
</svg>